<?xml version="1.0" encoding="UTF-8"?>
<!DOCTYPE svg PUBLIC "-//W3C//DTD SVG 1.1//EN" "http://www.w3.org/Graphics/SVG/1.1/DTD/svg11.dtd">
<svg xmlns="http://www.w3.org/2000/svg" version="1.1" width="500px" height="500px" style="shape-rendering:geometricPrecision; text-rendering:geometricPrecision; image-rendering:optimizeQuality; fill-rule:evenodd; clip-rule:evenodd" xmlns:xlink="http://www.w3.org/1999/xlink">
<g><path style="opacity:1" fill="#868173" d="M 244.5,25.5 C 244.082,26.2216 243.416,26.7216 242.5,27C 247.019,27.1753 251.353,27.6753 255.5,28.5C 250.438,28.2743 245.438,28.6076 240.5,29.5C 242.031,28.0755 241.698,27.4088 239.5,27.5C 240.78,26.0687 242.447,25.4021 244.5,25.5 Z"/></g>
<g><path style="opacity:0.075" fill="#767474" d="M 286.5,55.5 C 287.924,57.5145 288.59,59.8478 288.5,62.5C 287.076,60.4855 286.41,58.1522 286.5,55.5 Z"/></g>
<g><path style="opacity:0.004" fill="#e6e6e6" d="M 210.5,62.5 C 210.5,63.5 210.5,64.5 210.5,65.5C 209.209,65.7373 208.209,65.404 207.5,64.5C 208.778,64.2178 209.778,63.5511 210.5,62.5 Z"/></g>
<g><path style="opacity:0.145" fill="#848988" d="M 301.5,72.5 C 303.403,72.7959 305.07,73.4625 306.5,74.5C 304.302,74.8799 302.635,74.2132 301.5,72.5 Z"/></g>
<g><path style="opacity:1" fill="#cdeedd" d="M 323.5,98.5 C 326.105,110.152 326.105,121.818 323.5,133.5C 320.156,143.386 314.822,152.22 307.5,160C 300.306,166.342 291.973,169.175 282.5,168.5C 283.16,151.968 277.826,137.801 266.5,126C 263.608,123.443 260.441,121.276 257,119.5C 255.981,98.6922 264.814,83.8589 283.5,75C 303.147,72.1562 316.48,79.9895 323.5,98.5 Z"/></g>
<g><path style="opacity:0.91" fill="#2c2b2d" d="M 324.5,96.5 C 352.046,93.5288 366.713,106.029 368.5,134C 367.653,152.193 360.32,167.027 346.5,178.5C 344.952,178.821 344.285,179.821 344.5,181.5C 344.5,181.833 344.5,182.167 344.5,182.5C 342.952,182.179 342.285,181.179 342.5,179.5C 345.076,165.26 341.909,152.593 333,141.5C 330.287,139.28 327.454,137.28 324.5,135.5C 323.662,135.158 323.328,134.492 323.5,133.5C 326.105,121.818 326.105,110.152 323.5,98.5C 323.328,97.5084 323.662,96.8417 324.5,96.5 Z"/></g>
<g><path style="opacity:1" fill="#dcd7eb" d="M 330.5,98.5 C 348.998,97.826 360.498,106.493 365,124.5C 367.139,145.316 360.473,162.649 345,176.5C 346.898,157.973 340.398,143.306 325.5,132.5C 328.028,122.138 328.028,111.805 325.5,101.5C 327.145,100.304 328.811,99.3037 330.5,98.5 Z"/></g>
<g><path style="opacity:1" fill="#2d2d27" d="M 244.5,25.5 C 266.246,24.7027 280.246,34.7027 286.5,55.5C 286.41,58.1522 287.076,60.4855 288.5,62.5C 289.403,65.3915 289.736,68.3915 289.5,71.5C 293.702,71.1832 297.702,71.5166 301.5,72.5C 302.635,74.2132 304.302,74.8799 306.5,74.5C 315.814,79.1453 321.814,86.4787 324.5,96.5C 323.662,96.8417 323.328,97.5084 323.5,98.5C 316.48,79.9895 303.147,72.1562 283.5,75C 264.814,83.8589 255.981,98.6922 257,119.5C 260.441,121.276 263.608,123.443 266.5,126C 277.826,137.801 283.16,151.968 282.5,168.5C 291.973,169.175 300.306,166.342 307.5,160C 314.822,152.22 320.156,143.386 323.5,133.5C 323.328,134.492 323.662,135.158 324.5,135.5C 319.72,151.452 309.72,162.952 294.5,170C 292.866,170.494 291.199,170.66 289.5,170.5C 289.877,173.525 290.044,176.525 290,179.5C 286.943,180.451 283.777,180.784 280.5,180.5C 279.174,187.811 276.841,194.811 273.5,201.5C 276.003,212.497 282.337,220.33 292.5,225C 296.821,225.499 301.154,225.666 305.5,225.5C 308.925,225.367 309.258,226.033 306.5,227.5C 305.167,227.5 303.833,227.5 302.5,227.5C 300.833,227.5 299.167,227.5 297.5,227.5C 297.5,230.5 297.5,233.5 297.5,236.5C 294.941,236.198 292.607,236.532 290.5,237.5C 290.5,237.833 290.5,238.167 290.5,238.5C 288.804,240.129 287.804,239.796 287.5,237.5C 281.364,233.943 281.03,229.777 286.5,225C 282.281,222.448 279.114,218.948 277,214.5C 276.814,217.036 276.314,219.369 275.5,221.5C 273.982,224.534 273.149,227.867 273,231.5C 272.505,229.527 272.338,227.527 272.5,225.5C 272.993,223.194 273.326,220.861 273.5,218.5C 273.665,214.818 273.499,211.152 273,207.5C 272.692,206.692 272.192,206.025 271.5,205.5C 269.147,207.523 266.814,209.523 264.5,211.5C 264.158,210.662 263.492,210.328 262.5,210.5C 274.83,198.154 280.83,183.154 280.5,165.5C 280.84,144.664 271.84,129.498 253.5,120C 238.249,116.269 226.082,120.769 217,133.5C 205.276,156.04 206.276,178.04 220,199.5C 228.43,211.426 239.93,216.759 254.5,215.5C 256.435,214.85 258.435,214.517 260.5,214.5C 258.618,215.751 256.618,216.918 254.5,218C 256.795,220.757 257.795,223.923 257.5,227.5C 255.833,227.5 254.167,227.5 252.5,227.5C 251.833,227.5 251.167,227.5 250.5,227.5C 249.833,227.5 249.167,227.5 248.5,227.5C 247.167,227.5 245.833,227.5 244.5,227.5C 242.821,227.715 241.821,227.048 241.5,225.5C 241.5,225.167 241.5,224.833 241.5,224.5C 241.366,222.708 241.699,221.042 242.5,219.5C 243.043,219.44 243.376,219.107 243.5,218.5C 242.675,217.614 241.675,217.281 240.5,217.5C 239.549,218.919 239.216,220.585 239.5,222.5C 239.263,223.791 239.596,224.791 240.5,225.5C 241.207,228.786 241.54,232.119 241.5,235.5C 241.344,239.764 242.011,243.764 243.5,247.5C 243.5,247.833 243.5,248.167 243.5,248.5C 243.663,250.857 243.497,253.19 243,255.5C 242.721,252.543 241.887,249.877 240.5,247.5C 238.682,237.674 237.016,227.674 235.5,217.5C 232.835,214.846 229.835,212.513 226.5,210.5C 225.425,212.811 225.425,215.144 226.5,217.5C 226.663,219.857 226.497,222.19 226,224.5C 225.802,222.618 225.302,220.952 224.5,219.5C 223.662,219.158 223.328,218.492 223.5,217.5C 223.889,214.447 223.223,211.78 221.5,209.5C 221.5,209.167 221.5,208.833 221.5,208.5C 221.44,207.957 221.107,207.624 220.5,207.5C 219.614,208.325 219.281,209.325 219.5,210.5C 217.721,215.623 214.721,219.957 210.5,223.5C 212.755,225.25 214.422,227.417 215.5,230C 214.258,232.272 212.592,234.106 210.5,235.5C 212.124,238.358 211.457,239.025 208.5,237.5C 208.217,236.711 207.717,236.044 207,235.5C 204.534,236.777 202.034,236.777 199.5,235.5C 198.964,232.895 198.798,230.228 199,227.5C 190.115,228.958 181.615,226.958 173.5,221.5C 173.027,220.094 172.027,219.427 170.5,219.5C 170.027,218.094 169.027,217.427 167.5,217.5C 146.485,200.007 139.985,178.007 148,151.5C 150,148.5 152,145.5 154,142.5C 158.625,138.111 163.792,134.611 169.5,132C 160.168,111.777 161.835,92.6101 174.5,74.5C 183.469,64.8955 194.469,61.5622 207.5,64.5C 208.209,65.404 209.209,65.7373 210.5,65.5C 210.5,64.5 210.5,63.5 210.5,62.5C 212.412,47.7583 219.745,36.5916 232.5,29C 234.74,28.023 237.073,27.523 239.5,27.5C 241.698,27.4088 242.031,28.0755 240.5,29.5C 223.924,35.1026 214.591,46.7692 212.5,64.5C 212.667,65.5 212.833,66.5 213,67.5C 230.009,79.6255 238.176,96.2922 237.5,117.5C 242.906,116.21 248.239,116.544 253.5,118.5C 254.492,99.6714 262.825,85.1714 278.5,75C 281.096,73.8644 283.763,73.031 286.5,72.5C 287.188,53.3818 279.188,39.2151 262.5,30C 260.187,29.338 257.854,28.838 255.5,28.5C 251.353,27.6753 247.019,27.1753 242.5,27C 243.416,26.7216 244.082,26.2216 244.5,25.5 Z M 240.5,217.5 C 241.167,218.167 241.833,218.833 242.5,219.5C 241.699,221.042 241.366,222.708 241.5,224.5C 240.833,223.833 240.167,223.167 239.5,222.5C 239.216,220.585 239.549,218.919 240.5,217.5 Z"/></g>
<g><path style="opacity:1" fill="#fbefcd" d="M 168.5,135.5 C 183.673,133.169 196.507,137.502 207,148.5C 207.333,157.5 207.667,166.5 208,175.5C 208.871,179.984 210.204,184.317 212,188.5C 214.542,193.583 217.042,198.583 219.5,203.5C 211.89,225.176 197.556,231.009 176.5,221C 152.949,205.691 143.782,184.191 149,156.5C 152.6,146.736 159.1,139.736 168.5,135.5 Z"/></g>
<g><path style="opacity:1" fill="#f9d2d0" d="M 262.5,210.5 C 259.755,212.175 257.088,213.842 254.5,215.5C 239.93,216.759 228.43,211.426 220,199.5C 206.276,178.04 205.276,156.04 217,133.5C 226.082,120.769 238.249,116.269 253.5,120C 271.84,129.498 280.84,144.664 280.5,165.5C 280.83,183.154 274.83,198.154 262.5,210.5 Z"/></g>
<g><path style="opacity:1" fill="#cce9ec" d="M 190.5,66.5 C 204.63,64.6471 216.13,69.3138 225,80.5C 232.688,91.6001 236.022,103.933 235,117.5C 221.433,123.238 212.6,133.238 208.5,147.5C 199.116,137.311 187.449,132.478 173.5,133C 165.213,117.218 164.38,101.052 171,84.5C 175.789,76.5408 182.289,70.5408 190.5,66.5 Z"/></g>
<g><path style="opacity:1" fill="#faefce" d="M 255.5,28.5 C 257.854,28.838 260.187,29.338 262.5,30C 279.188,39.2151 287.188,53.3818 286.5,72.5C 283.763,73.031 281.096,73.8644 278.5,75C 262.825,85.1714 254.492,99.6714 253.5,118.5C 248.239,116.544 242.906,116.21 237.5,117.5C 238.176,96.2922 230.009,79.6255 213,67.5C 212.833,66.5 212.667,65.5 212.5,64.5C 214.591,46.7692 223.924,35.1026 240.5,29.5C 245.438,28.6076 250.438,28.2743 255.5,28.5 Z"/></g>
<g><path style="opacity:1" fill="#faefcd" d="M 324.5,135.5 C 327.454,137.28 330.287,139.28 333,141.5C 341.909,152.593 345.076,165.26 342.5,179.5C 339.478,197.059 330.478,210.892 315.5,221C 312.107,222.62 308.774,224.12 305.5,225.5C 301.154,225.666 296.821,225.499 292.5,225C 282.337,220.33 276.003,212.497 273.5,201.5C 276.841,194.811 279.174,187.811 280.5,180.5C 283.777,180.784 286.943,180.451 290,179.5C 290.044,176.525 289.877,173.525 289.5,170.5C 291.199,170.66 292.866,170.494 294.5,170C 309.72,162.952 319.72,151.452 324.5,135.5 Z"/></g>
<g><path style="opacity:1" fill="#c2dbcf" d="M 282.5,170.5 C 284.144,170.286 285.644,170.62 287,171.5C 287.977,173.74 288.477,176.073 288.5,178.5C 286.167,178.5 283.833,178.5 281.5,178.5C 281.401,175.763 281.735,173.096 282.5,170.5 Z"/></g>
<g><path style="opacity:0.016" fill="#f0eff0" d="M 346.5,178.5 C 346.068,179.71 345.401,180.71 344.5,181.5C 344.285,179.821 344.952,178.821 346.5,178.5 Z"/></g>
<g><path style="opacity:0.89" fill="#3a3833" d="M 342.5,179.5 C 342.285,181.179 342.952,182.179 344.5,182.5C 341.039,199.692 332.039,213.192 317.5,223C 313.884,224.811 310.217,226.311 306.5,227.5C 309.258,226.033 308.925,225.367 305.5,225.5C 308.774,224.12 312.107,222.62 315.5,221C 330.478,210.892 339.478,197.059 342.5,179.5 Z"/></g>
<g><path style="opacity:0.039" fill="#959594" d="M 221.5,208.5 C 220.833,209.167 220.167,209.833 219.5,210.5C 219.281,209.325 219.614,208.325 220.5,207.5C 221.107,207.624 221.44,207.957 221.5,208.5 Z"/></g>
<g><path style="opacity:0.427" fill="#838383" d="M 221.5,209.5 C 223.223,211.78 223.889,214.447 223.5,217.5C 222.469,215.039 221.802,212.373 221.5,209.5 Z"/></g>
<g><path style="opacity:0.275" fill="#85857a" d="M 167.5,217.5 C 169.027,217.427 170.027,218.094 170.5,219.5C 168.973,219.573 167.973,218.906 167.5,217.5 Z"/></g>
<g><path style="opacity:0.027" fill="#ececec" d="M 240.5,217.5 C 241.675,217.281 242.675,217.614 243.5,218.5C 243.376,219.107 243.043,219.44 242.5,219.5C 241.833,218.833 241.167,218.167 240.5,217.5 Z"/></g>
<g><path style="opacity:0.255" fill="#8e8e8d" d="M 170.5,219.5 C 172.027,219.427 173.027,220.094 173.5,221.5C 171.973,221.573 170.973,220.906 170.5,219.5 Z"/></g>
<g><path style="opacity:0.553" fill="#6a6a6b" d="M 260.5,214.5 C 260.56,213.957 260.893,213.624 261.5,213.5C 262.803,216.645 262.803,219.645 261.5,222.5C 261.806,219.615 261.473,216.948 260.5,214.5 Z"/></g>
<g><path style="opacity:1" fill="#e4c2c3" d="M 246.5,217.5 C 248.199,217.34 249.866,217.506 251.5,218C 252.781,220.427 253.781,222.927 254.5,225.5C 250.774,225.823 247.107,225.489 243.5,224.5C 244.788,222.261 245.788,219.928 246.5,217.5 Z"/></g>
<g><path style="opacity:0.08" fill="#b3b3b3" d="M 239.5,222.5 C 240.167,223.167 240.833,223.833 241.5,224.5C 241.5,224.833 241.5,225.167 241.5,225.5C 241.167,225.5 240.833,225.5 240.5,225.5C 239.596,224.791 239.263,223.791 239.5,222.5 Z"/></g>
<g><path style="opacity:0.157" fill="#acacac" d="M 273.5,218.5 C 273.326,220.861 272.993,223.194 272.5,225.5C 272.167,225.5 271.833,225.5 271.5,225.5C 271.41,222.848 272.076,220.515 273.5,218.5 Z"/></g>
<g><path style="opacity:0.275" fill="#9a9a9a" d="M 264.5,220.5 C 264.158,227.677 263.491,234.677 262.5,241.5C 262.112,234.253 262.779,227.253 264.5,220.5 Z"/></g>
<g><path style="opacity:1" fill="#e7dfc5" d="M 205.5,224.5 C 208.225,225.713 210.559,227.546 212.5,230C 209.543,232.312 206.209,233.812 202.5,234.5C 200.755,230.245 201.755,226.912 205.5,224.5 Z"/></g>
<g><path style="opacity:0.016" fill="#c5c5c5" d="M 302.5,227.5 C 301.432,228.434 300.099,228.768 298.5,228.5C 298.81,231.713 298.477,234.713 297.5,237.5C 297.5,237.167 297.5,236.833 297.5,236.5C 297.5,233.5 297.5,230.5 297.5,227.5C 299.167,227.5 300.833,227.5 302.5,227.5 Z"/></g>
<g><path style="opacity:1" fill="#ede6c9" d="M 289.5,226.5 C 291.435,227.15 293.435,227.483 295.5,227.5C 295.5,229.833 295.5,232.167 295.5,234.5C 292.117,234.743 288.951,234.076 286,232.5C 285.333,231.833 285.333,231.167 286,230.5C 287.376,229.295 288.542,227.962 289.5,226.5 Z"/></g>
<g><path style="opacity:1" fill="#3a3a3a" d="M 226.5,217.5 C 230.197,231.296 233.53,245.296 236.5,259.5C 236.66,261.199 236.494,262.866 236,264.5C 235.617,263.944 235.117,263.611 234.5,263.5C 230.574,248.977 227.241,234.311 224.5,219.5C 225.302,220.952 225.802,222.618 226,224.5C 226.497,222.19 226.663,219.857 226.5,217.5 Z"/></g>
<g><path style="opacity:0.541" fill="#676567" d="M 290.5,237.5 C 292.607,236.532 294.941,236.198 297.5,236.5C 297.5,236.833 297.5,237.167 297.5,237.5C 295.215,238.546 292.882,238.546 290.5,237.5 Z"/></g>
<g><path style="opacity:0.043" fill="#afb1b1" d="M 244.5,227.5 C 245.833,227.5 247.167,227.5 248.5,227.5C 248.5,232.5 248.5,237.5 248.5,242.5C 247.514,238.03 247.181,233.363 247.5,228.5C 246.209,228.737 245.209,228.404 244.5,227.5 Z"/></g>
<g><path style="opacity:0.814" fill="#3d3d3d" d="M 275.5,221.5 C 270.502,251.485 265.502,281.485 260.5,311.5C 259.662,311.842 259.328,312.508 259.5,313.5C 259.167,313.5 258.833,313.5 258.5,313.5C 258.737,312.209 258.404,311.209 257.5,310.5C 258.369,308.283 258.702,305.95 258.5,303.5C 258.5,302.5 258.5,301.5 258.5,300.5C 259.404,299.791 259.737,298.791 259.5,297.5C 259.5,295.833 259.5,294.167 259.5,292.5C 260.608,288.308 261.608,283.975 262.5,279.5C 264.217,276.155 264.884,272.489 264.5,268.5C 264.851,264.316 265.518,260.316 266.5,256.5C 267.222,256.082 267.722,255.416 268,254.5C 268.498,251.518 268.665,248.518 268.5,245.5C 269.337,238.806 270.337,232.14 271.5,225.5C 271.833,225.5 272.167,225.5 272.5,225.5C 272.338,227.527 272.505,229.527 273,231.5C 273.149,227.867 273.982,224.534 275.5,221.5 Z"/></g>
<g><path style="opacity:0.22" fill="#818080" d="M 241.5,235.5 C 242.795,239.267 243.461,243.267 243.5,247.5C 242.011,243.764 241.344,239.764 241.5,235.5 Z"/></g>
<g><path style="opacity:0.397" fill="#777777" d="M 268.5,245.5 C 268.665,248.518 268.498,251.518 268,254.5C 267.722,255.416 267.222,256.082 266.5,256.5C 266.931,252.663 267.598,248.997 268.5,245.5 Z"/></g>
<g><path style="opacity:0.784" fill="#575757" d="M 240.5,247.5 C 241.887,249.877 242.721,252.543 243,255.5C 243.497,253.19 243.663,250.857 243.5,248.5C 244.709,252.618 245.376,256.951 245.5,261.5C 244.732,260.737 244.232,259.737 244,258.5C 243.283,259.044 242.783,259.711 242.5,260.5C 241.551,256.343 240.884,252.01 240.5,247.5 Z"/></g>
<g><path style="opacity:0.724" fill="#404140" d="M 287.5,237.5 C 287.804,239.796 288.804,240.129 290.5,238.5C 281.7,264.914 272.367,290.914 262.5,316.5C 262.715,314.821 262.048,313.821 260.5,313.5C 260.5,312.833 260.5,312.167 260.5,311.5C 270.044,287.07 279.044,262.403 287.5,237.5 Z"/></g>
<g><path style="opacity:0.8" fill="#797979" d="M 236.5,259.5 C 237.458,261.302 238.125,263.302 238.5,265.5C 236.744,266.552 236.077,268.219 236.5,270.5C 235.593,268.343 234.927,266.01 234.5,263.5C 235.117,263.611 235.617,263.944 236,264.5C 236.494,262.866 236.66,261.199 236.5,259.5 Z"/></g>
<g><path style="opacity:0.935" fill="#3b3b3b" d="M 245.5,261.5 C 247.042,267.953 248.042,274.62 248.5,281.5C 248.198,284.059 248.532,286.393 249.5,288.5C 249.343,289.873 249.51,291.207 250,292.5C 250.497,289.854 250.664,287.187 250.5,284.5C 251.165,287.314 251.498,290.314 251.5,293.5C 251.266,297.631 250.6,301.631 249.5,305.5C 248.662,305.842 248.328,306.508 248.5,307.5C 247.596,306.791 247.263,305.791 247.5,304.5C 248.338,304.158 248.672,303.492 248.5,302.5C 248.802,299.941 248.468,297.607 247.5,295.5C 245.899,283.825 244.232,272.158 242.5,260.5C 242.783,259.711 243.283,259.044 244,258.5C 244.232,259.737 244.732,260.737 245.5,261.5 Z"/></g>
<g><path style="opacity:0.949" fill="#101010" d="M 238.5,265.5 C 238.5,266.167 238.5,266.833 238.5,267.5C 238.66,269.199 238.494,270.866 238,272.5C 237.617,271.944 237.117,271.611 236.5,271.5C 236.5,271.167 236.5,270.833 236.5,270.5C 236.077,268.219 236.744,266.552 238.5,265.5 Z"/></g>
<g><path style="opacity:0.959" fill="#444444" d="M 210.5,235.5 C 222.124,260.637 233.791,285.971 245.5,311.5C 245.365,313.972 246.032,315.306 247.5,315.5C 248.775,317.608 249.275,319.942 249,322.5C 245.852,317.157 245.019,317.491 246.5,323.5C 239.922,309.338 233.589,295.005 227.5,280.5C 227.88,278.302 227.213,276.635 225.5,275.5C 219.322,263.138 213.656,250.472 208.5,237.5C 211.457,239.025 212.124,238.358 210.5,235.5 Z"/></g>
<g><path style="opacity:0.173" fill="#828282" d="M 264.5,268.5 C 264.884,272.489 264.217,276.155 262.5,279.5C 262.808,275.64 263.475,271.974 264.5,268.5 Z"/></g>
<g><path style="opacity:0.839" fill="#646464" d="M 238.5,267.5 C 239.768,269.905 240.435,272.572 240.5,275.5C 239.778,275.082 239.278,274.416 239,273.5C 238.506,275.134 238.34,276.801 238.5,278.5C 237.593,276.343 236.927,274.01 236.5,271.5C 237.117,271.611 237.617,271.944 238,272.5C 238.494,270.866 238.66,269.199 238.5,267.5 Z"/></g>
<g><path style="opacity:0.104" fill="#afafaf" d="M 249.5,264.5 C 250.49,270.645 250.823,276.978 250.5,283.5C 249.549,284.919 249.216,286.585 249.5,288.5C 248.532,286.393 248.198,284.059 248.5,281.5C 249.489,276.025 249.822,270.358 249.5,264.5 Z"/></g>
<g><path style="opacity:0.876" fill="#0c0c0c" d="M 240.5,275.5 C 240.66,277.199 240.494,278.866 240,280.5C 239.722,279.584 239.222,278.918 238.5,278.5C 238.34,276.801 238.506,275.134 239,273.5C 239.278,274.416 239.778,275.082 240.5,275.5 Z"/></g>
<g><path style="opacity:0.322" fill="#858585" d="M 225.5,275.5 C 227.213,276.635 227.88,278.302 227.5,280.5C 226.463,279.07 225.796,277.403 225.5,275.5 Z"/></g>
<g><path style="opacity:0.8" fill="#676767" d="M 240.5,275.5 C 241.768,277.905 242.435,280.572 242.5,283.5C 241.778,283.082 241.278,282.416 241,281.5C 240.506,283.134 240.34,284.801 240.5,286.5C 239.469,284.039 238.802,281.373 238.5,278.5C 239.222,278.918 239.722,279.584 240,280.5C 240.494,278.866 240.66,277.199 240.5,275.5 Z"/></g>
<g><path style="opacity:0.807" fill="#363636" d="M 242.5,283.5 C 243.768,285.905 244.435,288.572 244.5,291.5C 244.66,293.199 244.494,294.866 244,296.5C 243.617,295.944 243.117,295.611 242.5,295.5C 241.525,292.689 240.858,289.689 240.5,286.5C 240.34,284.801 240.506,283.134 241,281.5C 241.278,282.416 241.778,283.082 242.5,283.5 Z"/></g>
<g><path style="opacity:0.686" fill="#7c7c7c" d="M 244.5,291.5 C 245.621,293.954 246.454,296.621 247,299.5C 247.49,298.207 247.657,296.873 247.5,295.5C 248.468,297.607 248.802,299.941 248.5,302.5C 247.833,302.5 247.5,302.833 247.5,303.5C 246.4,301.723 245.566,299.723 245,297.5C 244.505,299.473 244.338,301.473 244.5,303.5C 243.629,300.997 242.963,298.33 242.5,295.5C 243.117,295.611 243.617,295.944 244,296.5C 244.494,294.866 244.66,293.199 244.5,291.5 Z"/></g>
<g><path style="opacity:0.104" fill="#b1b1b1" d="M 258.5,294.5 C 258.263,295.791 258.596,296.791 259.5,297.5C 259.737,298.791 259.404,299.791 258.5,300.5C 258.167,300.5 257.833,300.5 257.5,300.5C 257.205,298.265 257.539,296.265 258.5,294.5 Z"/></g>
<g><path style="opacity:0.953" fill="#34302f" d="M 355.5,336.5 C 355.473,334.801 354.806,333.467 353.5,332.5C 358.172,329.492 362.838,326.492 367.5,323.5C 375.339,319.194 383.339,315.028 391.5,311C 393.5,306.667 392.167,305 387.5,306C 380.407,309.297 373.74,313.131 367.5,317.5C 362.293,319.234 357.626,321.901 353.5,325.5C 353.631,324.761 353.464,324.094 353,323.5C 352.292,324.381 351.458,325.047 350.5,325.5C 351.031,323.376 352.365,321.876 354.5,321C 365.606,315.187 376.606,309.187 387.5,303C 391.89,302.212 394.557,304.045 395.5,308.5C 395.61,310.374 394.944,311.874 393.5,313C 383.5,318.333 373.5,323.667 363.5,329C 360.308,331.028 357.641,333.528 355.5,336.5 Z"/></g>
<g><path style="opacity:1" fill="#eecbcc" d="M 367.5,323.5 C 366.624,323.631 365.957,323.298 365.5,322.5C 366.174,320.805 366.841,319.138 367.5,317.5C 373.74,313.131 380.407,309.297 387.5,306C 392.167,305 393.5,306.667 391.5,311C 383.339,315.028 375.339,319.194 367.5,323.5 Z"/></g>
<g><path style="opacity:0.2" fill="#969696" d="M 257.5,303.5 C 257.833,303.5 258.167,303.5 258.5,303.5C 258.702,305.95 258.369,308.283 257.5,310.5C 256.164,309.66 256.164,307.327 257.5,303.5 Z"/></g>
<g><path style="opacity:0.866" fill="#272424" d="M 262.5,210.5 C 263.492,210.328 264.158,210.662 264.5,211.5C 264.5,214.5 264.5,217.5 264.5,220.5C 262.779,227.253 262.112,234.253 262.5,241.5C 261.426,258.5 260.426,275.5 259.5,292.5C 258.662,292.842 258.328,293.508 258.5,294.5C 257.539,296.265 257.205,298.265 257.5,300.5C 257.5,301.5 257.5,302.5 257.5,303.5C 256.164,307.327 256.164,309.66 257.5,310.5C 258.404,311.209 258.737,312.209 258.5,313.5C 258.372,319.453 259.039,319.787 260.5,314.5C 260.5,314.167 260.5,313.833 260.5,313.5C 262.048,313.821 262.715,314.821 262.5,316.5C 261.958,319.673 260.958,322.673 259.5,325.5C 258.596,326.209 258.263,327.209 258.5,328.5C 288.671,328.831 318.671,328.498 348.5,327.5C 348.833,326.5 349.5,325.833 350.5,325.5C 351.458,325.047 352.292,324.381 353,323.5C 353.464,324.094 353.631,324.761 353.5,325.5C 352.71,326.794 351.71,327.961 350.5,329C 352.063,329.759 353.063,330.926 353.5,332.5C 354.806,333.467 355.473,334.801 355.5,336.5C 354.883,336.611 354.383,336.944 354,337.5C 353.768,336.263 353.268,335.263 352.5,334.5C 352.489,332.983 351.823,331.816 350.5,331C 300.829,330.712 251.162,330.212 201.5,329.5C 201.5,329.167 201.5,328.833 201.5,328.5C 217.503,328.667 233.503,328.5 249.5,328C 248.915,326.698 248.249,325.531 247.5,324.5C 246.833,324.5 246.5,324.167 246.5,323.5C 245.019,317.491 245.852,317.157 249,322.5C 249.275,319.942 248.775,317.608 247.5,315.5C 247.34,313.847 246.674,312.514 245.5,311.5C 245.599,308.763 245.265,306.096 244.5,303.5C 244.338,301.473 244.505,299.473 245,297.5C 245.566,299.723 246.4,301.723 247.5,303.5C 247.5,303.833 247.5,304.167 247.5,304.5C 247.263,305.791 247.596,306.791 248.5,307.5C 248.298,309.989 248.798,312.323 250,314.5C 250.556,312.115 250.39,309.782 249.5,307.5C 249.5,306.833 249.5,306.167 249.5,305.5C 250.6,301.631 251.266,297.631 251.5,293.5C 251.498,290.314 251.165,287.314 250.5,284.5C 250.5,284.167 250.5,283.833 250.5,283.5C 250.823,276.978 250.49,270.645 249.5,264.5C 249.277,257.16 248.944,249.827 248.5,242.5C 248.5,237.5 248.5,232.5 248.5,227.5C 249.167,227.5 249.833,227.5 250.5,227.5C 250.179,232.695 250.513,237.695 251.5,242.5C 252.983,260.8 253.649,279.133 253.5,297.5C 253.334,301.514 253.501,305.514 254,309.5C 254.453,306.16 254.953,302.826 255.5,299.5C 255.48,298.274 255.147,297.274 254.5,296.5C 255.494,289.914 256.161,283.247 256.5,276.5C 258.205,271.097 258.872,265.43 258.5,259.5C 258.795,246.963 259.795,234.629 261.5,222.5C 262.803,219.645 262.803,216.645 261.5,213.5C 260.893,213.624 260.56,213.957 260.5,214.5C 258.435,214.517 256.435,214.85 254.5,215.5C 257.088,213.842 259.755,212.175 262.5,210.5 Z"/></g>
<g><path style="opacity:0.224" fill="#999999" d="M 248.5,307.5 C 248.833,307.5 249.167,307.5 249.5,307.5C 250.39,309.782 250.556,312.115 250,314.5C 248.798,312.323 248.298,309.989 248.5,307.5 Z"/></g>
<g><path style="opacity:0.075" fill="#8c8c8c" d="M 254.5,296.5 C 255.147,297.274 255.48,298.274 255.5,299.5C 254.953,302.826 254.453,306.16 254,309.5C 253.501,305.514 253.334,301.514 253.5,297.5C 254.167,297.5 254.5,297.167 254.5,296.5 Z"/></g>
<g><path style="opacity:0.394" fill="#929292" d="M 258.5,259.5 C 258.872,265.43 258.205,271.097 256.5,276.5C 256.816,270.651 257.482,264.984 258.5,259.5 Z"/></g>
<g><path style="opacity:0.102" fill="#ababac" d="M 250.5,227.5 C 251.167,227.5 251.833,227.5 252.5,227.5C 251.555,232.405 251.221,237.405 251.5,242.5C 250.513,237.695 250.179,232.695 250.5,227.5 Z"/></g>
<g><path style="opacity:0.075" fill="#a9a9a9" d="M 258.5,313.5 C 258.833,313.5 259.167,313.5 259.5,313.5C 259.5,314.167 259.833,314.5 260.5,314.5C 259.039,319.787 258.372,319.453 258.5,313.5 Z"/></g>
<g><path style="opacity:1" fill="#cbcdcf" d="M 367.5,317.5 C 366.841,319.138 366.174,320.805 365.5,322.5C 365.957,323.298 366.624,323.631 367.5,323.5C 362.838,326.492 358.172,329.492 353.5,332.5C 353.063,330.926 352.063,329.759 350.5,329C 351.71,327.961 352.71,326.794 353.5,325.5C 357.626,321.901 362.293,319.234 367.5,317.5 Z"/></g>
<g><path style="opacity:0.576" fill="#565553" d="M 247.5,324.5 C 248.249,325.531 248.915,326.698 249.5,328C 233.503,328.5 217.503,328.667 201.5,328.5C 197.143,328.414 192.81,328.08 188.5,327.5C 207.683,327.106 227.35,327.106 247.5,327.5C 247.5,326.5 247.5,325.5 247.5,324.5 Z"/></g>
<g><path style="opacity:0.251" fill="#828281" d="M 259.5,325.5 C 288.815,327.492 318.481,328.159 348.5,327.5C 318.671,328.498 288.671,328.831 258.5,328.5C 258.263,327.209 258.596,326.209 259.5,325.5 Z"/></g>
<g><path style="opacity:1" fill="#fad4d1" d="M 201.5,329.5 C 251.162,330.212 300.829,330.712 350.5,331C 351.823,331.816 352.489,332.983 352.5,334.5C 345.821,366.216 338.987,397.882 332,429.5C 331.167,430.333 330.333,431.167 329.5,432C 315.924,433.15 302.257,433.65 288.5,433.5C 253.499,433.061 218.499,432.561 183.5,432C 180.131,429.635 177.964,426.468 177,422.5C 169.537,394.27 161.537,366.27 153,338.5C 151.621,334.525 152.787,331.691 156.5,330C 171.496,329.5 186.496,329.333 201.5,329.5 Z"/></g>
<g><path style="opacity:0.004" fill="#c4c3c3" d="M 157.5,361.5 C 158.738,363.214 159.405,365.214 159.5,367.5C 157.926,365.898 157.259,363.898 157.5,361.5 Z"/></g>
<g><path style="opacity:0.106" fill="#b3b4b2" d="M 159.5,368.5 C 160.738,370.214 161.405,372.214 161.5,374.5C 159.926,372.898 159.259,370.898 159.5,368.5 Z"/></g>
<g><path style="opacity:1" fill="#353030" d="M 188.5,327.5 C 192.81,328.08 197.143,328.414 201.5,328.5C 201.5,328.833 201.5,329.167 201.5,329.5C 186.496,329.333 171.496,329.5 156.5,330C 152.787,331.691 151.621,334.525 153,338.5C 161.537,366.27 169.537,394.27 177,422.5C 177.964,426.468 180.131,429.635 183.5,432C 218.499,432.561 253.499,433.061 288.5,433.5C 302.257,433.65 315.924,433.15 329.5,432C 330.333,431.167 331.167,430.333 332,429.5C 338.987,397.882 345.821,366.216 352.5,334.5C 353.268,335.263 353.768,336.263 354,337.5C 354.383,336.944 354.883,336.611 355.5,336.5C 348.884,367.521 342.051,398.521 335,429.5C 334.108,432.273 332.275,433.94 329.5,434.5C 327.447,434.402 325.78,435.069 324.5,436.5C 323.833,436.5 323.167,436.5 322.5,436.5C 319.024,435.357 315.358,435.19 311.5,436C 312.044,436.717 312.711,437.217 313.5,437.5C 322.019,445.623 323.519,454.957 318,465.5C 317.124,467.635 315.624,468.969 313.5,469.5C 312.5,469.833 311.833,470.5 311.5,471.5C 305.71,473.521 299.71,474.021 293.5,473C 291.308,472.074 289.308,470.907 287.5,469.5C 287.5,468.167 286.833,467.5 285.5,467.5C 284.662,467.158 284.328,466.492 284.5,465.5C 284.573,463.973 283.906,462.973 282.5,462.5C 281.89,461.609 281.557,460.609 281.5,459.5C 281.294,455.102 281.627,450.768 282.5,446.5C 282.229,444.62 282.896,443.287 284.5,442.5C 285.906,442.027 286.573,441.027 286.5,439.5C 286.953,438.542 287.619,437.708 288.5,437C 284.833,436.667 281.167,436.333 277.5,436C 258.318,435.698 239.651,435.198 221.5,434.5C 223.863,437.549 225.863,440.882 227.5,444.5C 227.768,446.099 227.434,447.432 226.5,448.5C 221.199,436.073 212.199,432.573 199.5,438C 190.666,445.149 189.166,453.649 195,463.5C 203.075,471.804 211.908,472.637 221.5,466C 224.603,463.194 226.27,459.694 226.5,455.5C 227.309,453.708 227.809,451.708 228,449.5C 228.498,452.817 228.665,456.15 228.5,459.5C 224.576,470.136 216.909,474.636 205.5,473C 191.932,468.666 186.765,459.499 190,445.5C 192.245,441.503 195.078,438.003 198.5,435C 193.167,434.667 187.833,434.333 182.5,434C 180.376,432.878 178.543,431.378 177,429.5C 170.903,411.383 165.737,393.05 161.5,374.5C 161.405,372.214 160.738,370.214 159.5,368.5C 159.5,368.167 159.5,367.833 159.5,367.5C 159.405,365.214 158.738,363.214 157.5,361.5C 153.592,351.456 151.425,341.123 151,330.5C 152.558,328.232 154.724,327.066 157.5,327C 167.91,326.192 178.243,326.359 188.5,327.5 Z"/></g>
<g><path style="opacity:0.118" fill="#cdcccb" d="M 322.5,436.5 C 319.287,436.19 316.287,436.523 313.5,437.5C 312.711,437.217 312.044,436.717 311.5,436C 315.358,435.19 319.024,435.357 322.5,436.5 Z"/></g>
<g><path style="opacity:0.086" fill="#aca8a8" d="M 329.5,434.5 C 328.22,435.931 326.553,436.598 324.5,436.5C 325.78,435.069 327.447,434.402 329.5,434.5 Z"/></g>
<g><path style="opacity:0.251" fill="#a2a1a0" d="M 286.5,439.5 C 286.573,441.027 285.906,442.027 284.5,442.5C 284.427,440.973 285.094,439.973 286.5,439.5 Z"/></g>
<g><path style="opacity:1" fill="#a3a0a1" d="M 226.5,448.5 C 226.5,450.833 226.5,453.167 226.5,455.5C 226.27,459.694 224.603,463.194 221.5,466C 211.908,472.637 203.075,471.804 195,463.5C 189.166,453.649 190.666,445.149 199.5,438C 212.199,432.573 221.199,436.073 226.5,448.5 Z"/></g>
<g><path style="opacity:0.086" fill="#d5d4d5" d="M 282.5,446.5 C 281.627,450.768 281.294,455.102 281.5,459.5C 280.355,455.689 280.188,451.689 281,447.5C 281.383,446.944 281.883,446.611 282.5,446.5 Z"/></g>
<g><path style="opacity:0.263" fill="#5d5d5d" d="M 227.5,444.5 C 228.222,444.918 228.722,445.584 229,446.5C 229.814,451.02 229.647,455.354 228.5,459.5C 228.665,456.15 228.498,452.817 228,449.5C 227.809,451.708 227.309,453.708 226.5,455.5C 226.5,453.167 226.5,450.833 226.5,448.5C 227.434,447.432 227.768,446.099 227.5,444.5 Z"/></g>
<g><path style="opacity:1" fill="#232225" d="M 206.5,444.5 C 215.261,444.087 218.761,448.087 217,456.5C 212.439,462.758 207.439,463.091 202,457.5C 199.528,451.779 201.028,447.446 206.5,444.5 Z"/></g>
<g><path style="opacity:1" fill="#dee2e6" d="M 206.5,446.5 C 213.825,445.992 216.658,449.326 215,456.5C 210.977,460.579 207.144,460.413 203.5,456C 201.812,451.903 202.812,448.737 206.5,446.5 Z"/></g>
<g><path style="opacity:1" fill="#a3a0a1" d="M 295.5,436.5 C 314.905,435.98 321.738,444.98 316,463.5C 306.047,474.16 296.047,474.16 286,463.5C 280.259,451.155 283.426,442.155 295.5,436.5 Z"/></g>
<g><path style="opacity:1" fill="#1e1f21" d="M 297.5,445.5 C 306.874,445.357 310.374,449.69 308,458.5C 302.125,464.191 297.125,463.524 293,456.5C 291.776,451.626 293.276,447.959 297.5,445.5 Z"/></g>
<g><path style="opacity:1" fill="#dee3e8" d="M 297.5,447.5 C 306.807,446.953 309.474,450.787 305.5,459C 299.35,461.925 295.683,460.092 294.5,453.5C 294.628,451.045 295.628,449.045 297.5,447.5 Z"/></g>
<g><path style="opacity:0.024" fill="#c6c6c6" d="M 282.5,462.5 C 283.906,462.973 284.573,463.973 284.5,465.5C 283.094,465.027 282.427,464.027 282.5,462.5 Z"/></g>
<g><path style="opacity:0.165" fill="#d9d9d9" d="M 285.5,467.5 C 286.833,467.5 287.5,468.167 287.5,469.5C 286.5,469.167 285.833,468.5 285.5,467.5 Z"/></g>
<g><path style="opacity:0.004" fill="#dddddd" d="M 313.5,469.5 C 313.5,470.833 312.833,471.5 311.5,471.5C 311.833,470.5 312.5,469.833 313.5,469.5 Z"/></g>
</svg>
