<?xml version="1.0" standalone="no"?>
<!DOCTYPE svg PUBLIC "-//W3C//DTD SVG 20010904//EN"
 "http://www.w3.org/TR/2001/REC-SVG-20010904/DTD/svg10.dtd">
<svg version="1.0" xmlns="http://www.w3.org/2000/svg"
 width="1408.000000pt" height="768.000000pt" viewBox="0 0 1408.000000 768.000000"
 preserveAspectRatio="xMidYMid meet">

<g transform="translate(0.000000,768.000000) scale(0.100000,-0.100000)"
fill="#000000" stroke="none">
<path d="M5255 7211 c-53 -23 -88 -66 -115 -138 -69 -182 -76 -470 -20 -783
65 -360 261 -708 609 -1084 76 -81 141 -166 141 -181 0 -4 -23 -33 -52 -64
-65 -71 -122 -159 -185 -286 -47 -94 -75 -161 -173 -415 -22 -58 -65 -150 -96
-205 -64 -116 -73 -145 -51 -179 14 -21 14 -28 1 -72 -8 -27 -16 -75 -17 -107
-2 -52 1 -61 24 -81 19 -16 28 -37 33 -72 11 -74 43 -134 75 -140 22 -5 33
-18 55 -70 38 -87 103 -154 149 -154 24 0 54 -13 100 -44 36 -24 82 -49 101
-56 20 -6 36 -13 36 -15 0 -16 -69 -192 -110 -279 -60 -127 -73 -194 -43 -222
18 -19 18 -20 -10 -103 -37 -107 -41 -190 -11 -223 19 -20 22 -39 27 -143 l5
-120 -49 -73 c-51 -76 -68 -128 -51 -158 7 -13 4 -34 -13 -78 -42 -112 -41
-194 1 -210 9 -3 14 -20 14 -43 0 -58 51 -190 104 -272 26 -40 46 -74 44 -76
-2 -1 -34 -15 -73 -30 -38 -16 -86 -38 -105 -50 -75 -47 -149 -154 -150 -216
0 -34 39 -91 74 -108 50 -23 171 -33 272 -21 88 11 94 10 113 -9 52 -52 172
-76 266 -52 45 11 47 11 73 -17 63 -67 145 -90 256 -72 142 22 249 86 340 199
48 60 50 61 98 61 26 0 48 -3 48 -7 0 -4 -11 -18 -24 -32 -40 -43 -76 -124
-76 -174 0 -37 5 -50 32 -76 74 -72 205 -103 356 -83 48 7 193 41 322 77 129
36 318 86 420 111 304 73 310 75 321 95 5 10 26 28 47 39 58 31 148 118 180
177 8 13 15 12 61 -2 170 -56 451 48 451 168 0 18 12 32 46 53 81 51 128 149
106 220 -8 28 -6 40 14 80 19 38 24 63 24 124 0 120 -31 188 -97 217 -26 10
-33 19 -33 41 0 34 -31 102 -56 124 -35 31 -92 48 -159 48 -53 0 -69 4 -86 21
-19 19 -30 21 -80 16 -33 -3 -75 -15 -98 -28 -23 -12 -43 -21 -45 -18 -2 2
-17 31 -34 64 -81 162 -215 334 -440 566 -127 131 -142 150 -142 181 0 28 -13
52 -64 115 -34 45 -77 104 -94 131 l-31 51 48 30 c26 17 58 42 71 56 16 17 34
25 57 25 55 0 148 101 169 184 4 18 16 31 35 38 38 13 60 65 67 161 4 70 8 83
30 102 24 21 25 27 23 116 -9 422 -116 789 -316 1085 -37 53 -62 100 -58 104
4 4 51 39 103 78 52 39 156 130 230 204 347 341 540 657 619 1014 89 399 73
784 -37 906 -46 52 -85 68 -161 68 -166 0 -336 -105 -592 -368 -159 -162 -238
-259 -361 -442 -150 -223 -253 -456 -403 -908 -48 -145 -60 -172 -74 -167 -43
17 -187 55 -278 74 -100 21 -141 19 -157 -7 -3 -6 -30 -4 -68 4 -91 19 -141
18 -171 -6 -35 -28 -75 -26 -82 3 -125 568 -247 882 -477 1227 -216 325 -413
525 -573 581 -69 24 -148 24 -200 0z m200 -71 c151 -65 398 -341 587 -658 166
-279 250 -498 362 -949 26 -100 46 -184 46 -187 0 -3 -33 -15 -72 -27 -40 -12
-102 -34 -137 -50 -35 -16 -65 -28 -66 -27 -1 2 -7 57 -14 123 -14 146 -67
397 -126 600 -131 451 -255 708 -448 925 -92 104 -190 157 -240 131 -22 -11
-22 -11 0 -6 38 10 93 -23 172 -102 162 -163 292 -410 418 -793 75 -230 166
-609 191 -798 l9 -62 -22 20 c-24 23 -57 26 -73 7 -6 -7 -12 -36 -14 -65 l-3
-53 -132 145 c-73 79 -170 191 -215 249 -46 57 -93 117 -106 133 l-23 29 21
-40 c61 -112 222 -321 368 -476 l71 -76 -37 -37 -38 -36 -46 62 c-26 35 -81
101 -123 148 -362 402 -526 705 -592 1096 -25 153 -26 500 0 594 23 87 64 167
90 182 55 29 120 28 192 -2z m3305 -2 c56 -29 86 -84 105 -194 38 -210 -5
-608 -92 -858 -91 -264 -272 -527 -548 -800 -77 -76 -189 -175 -250 -221 -153
-116 -230 -195 -189 -195 9 0 29 10 46 21 17 12 33 18 37 13 185 -255 294
-511 340 -799 17 -106 38 -386 29 -391 -4 -3 -18 2 -31 11 -13 8 -26 13 -29
10 -3 -3 -1 -29 4 -58 10 -53 5 -187 -7 -208 -5 -7 -15 0 -28 21 -24 37 -37
26 -37 -32 0 -52 -33 -135 -72 -183 l-33 -40 -5 45 -5 45 -49 -64 c-120 -155
-334 -251 -599 -268 -112 -6 -112 -6 -77 -22 26 -11 70 -15 165 -15 117 0 138
3 205 27 41 15 82 30 90 33 10 3 22 -8 35 -33 11 -21 49 -76 84 -122 56 -75
62 -86 47 -96 -15 -11 -14 -15 6 -41 12 -16 99 -110 193 -209 204 -216 260
-282 338 -400 95 -144 180 -328 211 -459 l7 -30 -20 25 c-26 31 -26 25 3 -85
27 -102 42 -199 28 -177 -7 9 -12 -14 -17 -70 -16 -192 -79 -347 -191 -468
-84 -90 -119 -112 -167 -104 -39 6 -50 -10 -25 -35 14 -14 17 -13 -140 -47
-68 -15 -212 -51 -320 -81 -294 -80 -491 -131 -544 -138 l-48 -7 0 30 c0 18
13 47 35 75 40 53 42 58 18 49 -35 -12 -81 -66 -93 -108 l-12 -43 -41 5 c-23
3 -57 12 -75 19 -31 13 -33 16 -27 46 11 49 42 94 82 119 44 28 28 37 -22 13
-43 -20 -84 -67 -92 -105 -8 -41 -23 -36 -23 8 0 83 100 180 242 237 79 31
159 34 368 12 74 -8 137 -13 140 -10 8 9 -24 24 -43 20 -9 -2 -39 2 -67 9 -27
7 -98 18 -157 25 -157 17 -152 14 -196 100 -71 141 -82 284 -36 450 18 66 18
75 5 82 -9 5 -16 14 -16 20 0 17 50 111 71 134 23 24 24 34 4 34 -86 0 233
346 421 456 76 45 40 39 -58 -9 -51 -25 -121 -68 -155 -96 l-63 -51 0 40 c0
59 -14 49 -33 -26 -15 -54 -30 -80 -78 -138 -71 -83 -99 -133 -99 -176 0 -17
-11 -52 -24 -78 -30 -60 -40 -106 -27 -129 14 -28 -21 -168 -64 -254 -128
-253 -312 -503 -424 -573 -37 -23 -147 -66 -171 -66 -16 0 -11 41 10 89 22 47
20 62 -5 41 -21 -17 -47 -67 -55 -105 -5 -28 -8 -30 -45 -27 -22 2 -51 10 -63
19 -21 13 -23 20 -17 51 4 20 15 53 26 74 16 32 17 38 4 38 -8 0 -28 -24 -45
-52 l-30 -53 0 56 c0 46 8 72 46 150 103 210 154 440 161 727 6 208 -7 261
-26 110 -6 -51 -14 -108 -17 -127 l-5 -33 -31 28 c-38 37 -91 109 -130 177
l-30 52 6 -50 c9 -73 52 -152 119 -219 l58 -59 -16 -101 c-25 -159 -81 -358
-134 -474 -27 -59 -52 -128 -56 -154 -6 -43 -10 -48 -46 -62 -22 -9 -44 -16
-50 -16 -12 0 -8 91 6 123 4 10 3 17 -4 17 -16 0 -51 -75 -51 -110 0 -33 -6
-35 -62 -19 -45 12 -55 39 -39 104 14 54 14 58 0 49 -6 -3 -19 -25 -29 -47
l-19 -41 -7 28 c-4 17 2 64 17 124 21 84 24 120 23 272 -1 191 -14 314 -69
617 -19 105 -35 203 -35 216 0 14 -3 33 -6 42 -6 14 -8 14 -25 -1 -24 -22 -29
-16 -41 43 -10 55 -1 160 18 217 17 47 13 54 -20 32 -14 -9 -30 -16 -37 -16
-18 0 -1 85 38 185 19 50 42 109 51 132 9 23 13 45 10 49 -4 3 -22 -6 -40 -21
-52 -44 -47 -14 27 151 36 81 74 171 83 201 l16 53 73 -6 c45 -4 73 -3 73 3 0
5 -58 36 -129 67 -166 74 -229 114 -270 170 -37 52 -54 58 -49 19 5 -43 -14
-41 -49 5 -39 52 -73 140 -73 192 0 50 -16 59 -38 21 -35 -63 -55 -8 -47 129
l6 95 -30 -35 c-16 -19 -33 -32 -37 -28 -13 14 16 123 53 195 20 40 33 76 30
80 -4 4 -21 -1 -37 -11 -17 -9 -30 -13 -30 -7 0 5 27 60 60 123 32 62 88 190
123 283 80 213 150 360 220 468 54 84 176 213 242 258 19 13 34 30 32 38 -4
27 211 130 348 166 39 10 80 25 91 32 24 16 98 20 132 8 18 -6 21 -4 16 9 -3
9 -4 22 -1 30 5 11 18 11 88 -1 45 -8 98 -21 117 -29 45 -18 45 -18 40 11 -3
14 -2 28 3 30 10 7 205 -39 302 -71 l79 -26 -7 -49 c-4 -27 -3 -49 2 -49 17 0
56 98 153 385 143 424 225 605 375 830 252 378 607 713 815 769 76 20 99 19
150 -6z m-2645 -1918 c0 -7 -10 -19 -22 -27 -23 -15 -23 -15 -23 27 0 42 0 42
23 28 12 -9 22 -21 22 -28z m-301 -3317 c53 -259 96 -594 96 -746 0 -95 -2
-107 -15 -99 -32 17 -107 120 -147 200 -37 73 -42 92 -47 175 -6 88 -7 92 -28
89 -18 -3 -23 2 -23 18 0 31 38 138 66 185 29 51 29 55 4 55 -31 0 -24 31 21
93 44 63 65 71 73 30z m2972 -3 c-20 -66 -21 -62 10 -54 16 4 36 13 44 20 45
39 162 24 204 -27 23 -27 26 -39 26 -110 0 -43 2 -79 5 -79 4 0 19 7 35 15 16
8 35 12 43 9 26 -10 51 -82 51 -147 -1 -66 -14 -102 -60 -156 -15 -18 -25 -33
-23 -34 2 -1 13 -7 24 -13 31 -17 31 -69 1 -114 -27 -41 -100 -90 -139 -94
-50 -6 -61 -27 -22 -44 86 -40 -85 -142 -237 -142 -70 0 -141 18 -134 34 82
183 91 230 90 461 -2 184 -4 208 -29 300 -39 141 -38 144 14 172 24 12 57 23
74 23 25 0 28 -3 23 -20z m-1646 -804 c0 -33 36 -132 69 -191 l29 -52 -66 -26
c-57 -22 -74 -24 -112 -17 -25 5 -62 9 -82 10 l-37 0 72 113 c40 61 81 131 91
154 20 44 36 48 36 9z m-1230 -103 c0 -10 -9 -56 -20 -103 -11 -47 -20 -104
-20 -126 l0 -41 -46 -7 c-26 -3 -66 -6 -90 -6 -43 0 -43 0 -33 28 6 15 27 44
47 65 39 40 28 49 -24 17 -18 -12 -42 -40 -55 -67 -21 -44 -23 -45 -62 -40
-22 3 -44 10 -49 15 -15 15 6 70 39 104 15 15 24 30 21 33 -9 10 -58 -36 -78
-73 -15 -28 -19 -32 -20 -16 0 29 54 107 98 140 91 70 292 123 292 77z"/>
<path d="M6065 5507 c-4 -10 -3 -23 4 -30 16 -16 26 0 14 25 -10 21 -11 22
-18 5z"/>
<path d="M6069 5440 c-15 -16 -15 -17 6 -17 17 0 21 4 18 18 -3 11 -6 19 -7
18 0 0 -8 -9 -17 -19z"/>
<path d="M8567 7006 c-26 -7 -71 -29 -100 -49 -61 -42 -205 -185 -276 -274
-207 -260 -452 -847 -566 -1356 -43 -196 -53 -257 -38 -257 3 0 32 25 64 55
65 62 93 71 83 28 -10 -43 -31 -91 -54 -123 -23 -32 -26 -50 -7 -50 6 0 70 42
142 93 182 129 447 389 554 543 25 35 9 22 -54 -46 -108 -115 -192 -197 -307
-297 -83 -73 -240 -194 -245 -189 -1 1 3 18 9 38 29 97 -44 137 -119 66 -13
-12 -23 -19 -23 -17 0 18 128 466 162 564 103 304 261 657 369 825 108 169
278 349 381 405 31 17 67 28 94 29 23 0 40 4 36 7 -16 15 -60 16 -105 5z"/>
<path d="M5791 4550 c-35 -17 -70 -30 -77 -30 -19 0 -18 -24 1 -40 8 -7 11
-17 7 -24 -4 -6 -8 -27 -9 -46 -16 -297 -16 -306 1 -365 14 -47 15 -59 4 -66
-7 -4 -10 -10 -7 -13 11 -11 288 -68 303 -63 32 13 76 228 76 372 0 80 -25
181 -56 228 -54 83 -133 98 -243 47z m184 -60 c18 -20 17 -20 -11 -20 -45 0
-95 -32 -131 -84 -45 -65 -57 -115 -58 -226 0 -78 4 -104 23 -144 24 -54 24
-61 -7 -51 -54 17 -78 245 -38 364 48 141 164 225 222 161z m1 -115 c18 -18
23 -32 19 -48 -8 -27 -50 -67 -71 -67 -22 0 -64 46 -64 70 0 27 43 70 70 70
12 0 32 -11 46 -25z m22 -297 c20 -20 14 -48 -14 -60 -23 -11 -29 -10 -45 11
-14 17 -16 27 -9 42 12 21 50 25 68 7z m16 -143 c-4 -8 -14 -15 -23 -15 -14 1
-13 3 3 15 25 19 27 19 20 0z"/>
<path d="M7190 4524 c-138 -37 -244 -151 -286 -307 -27 -100 -11 -267 31 -331
13 -19 13 -25 3 -29 -24 -10 96 -7 186 4 49 6 157 16 240 22 86 7 151 16 151
22 1 6 13 33 27 60 14 28 33 75 42 105 22 74 20 214 -4 268 l-18 40 24 6 c41
11 27 29 -62 80 -128 73 -221 90 -334 60z m186 -85 c90 -43 153 -145 162 -260
6 -82 -11 -153 -49 -213 -25 -41 -33 -46 -66 -46 l-36 0 21 23 c71 76 90 235
39 339 -44 91 -127 140 -232 140 -73 0 -119 -18 -176 -69 l-44 -38 26 35 c31
42 116 96 173 109 55 13 128 5 182 -20z m-175 -117 c49 -40 9 -132 -57 -132
-27 0 -74 40 -74 64 0 68 80 109 131 68z m-223 -334 c13 -26 38 -60 57 -77
l33 -29 -39 -10 c-37 -9 -41 -8 -56 14 -39 60 -55 185 -36 275 7 28 9 20 13
-46 4 -54 13 -95 28 -127z m383 72 c23 -13 25 -43 3 -64 -22 -23 -41 -20 -60
9 -16 24 -16 27 1 45 21 23 29 24 56 10z"/>
<path d="M6224 3890 c-55 -17 -62 -35 -34 -87 13 -25 39 -56 57 -70 31 -24 33
-29 33 -87 -1 -64 -10 -85 -47 -104 -44 -24 -79 -15 -117 30 -30 35 -36 38
-36 20 0 -90 111 -134 194 -77 l37 25 42 -35 c89 -77 223 -81 294 -10 18 18
33 43 33 56 l0 23 -27 -27 c-63 -60 -153 -73 -231 -33 -60 31 -82 55 -93 106
-13 57 -4 82 39 102 54 25 112 77 112 99 0 24 -11 24 -41 0 -44 -34 -130 -72
-149 -66 -19 6 -90 82 -90 96 0 16 95 21 162 9 77 -13 92 -10 55 15 -30 19
-149 29 -193 15z"/>
<path d="M6260 3360 c0 -20 52 -60 87 -66 23 -4 46 -1 67 9 l31 16 -41 0 c-22
1 -63 12 -90 26 -57 29 -54 28 -54 15z"/>
<path d="M6245 3000 c19 -31 162 -69 193 -51 17 10 18 9 -124 45 -73 19 -77
19 -69 6z"/>
</g>
</svg>
