<?xml version="1.0" encoding="UTF-8" standalone="no"?>
<svg
   version="1.1"
   width="1024"
   height="1024"
   id="svg210"
   sodipodi:docname="01c3df182fcc51e60a36bd4299e875aa.svg"
   xmlns:inkscape="http://www.inkscape.org/namespaces/inkscape"
   xmlns:sodipodi="http://sodipodi.sourceforge.net/DTD/sodipodi-0.dtd"
   xmlns="http://www.w3.org/2000/svg"
   xmlns:svg="http://www.w3.org/2000/svg">
  <defs
     id="defs214" />
  <sodipodi:namedview
     id="namedview212"
     pagecolor="#ffffff"
     bordercolor="#666666"
     borderopacity="1.0"
     inkscape:pageshadow="2"
     inkscape:pageopacity="0.0"
     inkscape:pagecheckerboard="0" />
  <path
     d="m 0,0 c 337.92,0 675.84,0 1024,0 0,337.92 0,675.84 0,1024 -337.92,0 -675.84,0 -1024,0 C 0,686.08 0,348.16 0,0 Z"
     fill="#fefefe"
     id="path2" />
  <path
     d="m 858.1875,27.625 c 10.39851,8.413906 13.68688,20.820673 15.41113,33.546631 0.64764,6.177385 0.69857,12.309627 0.65137,18.515869 -0.008,1.313635 -0.015,2.627271 -0.0227,3.980713 C 873.98407,105.7776 871.11376,128.28138 863,149 c -0.2989,0.78166 -0.5978,1.56331 -0.90576,2.36865 C 853.47624,173.79182 842.0412,193.24596 827,212 c -0.81211,1.01965 -1.62422,2.0393 -2.46094,3.08984 -6.7575,8.2627 -14.25073,15.80548 -21.78906,23.34766 -0.51951,0.52051 -1.03903,1.04102 -1.57428,1.5773 C 795.29888,245.89036 789.36811,251.65205 783,257 c -0.60199,0.50878 -1.20398,1.01755 -1.82422,1.54175 -7.76913,6.50998 -15.7368,12.73521 -23.92578,18.70825 -1.14348,0.84135 -1.14348,0.84135 -2.31006,1.69971 -0.71752,0.51675 -1.43505,1.0335 -2.17432,1.56591 -0.63131,0.45666 -1.26263,0.91331 -1.91308,1.38379 -1.94672,1.15654 -3.6402,1.66841 -5.85254,2.10059 0.99948,1.14628 1.99963,2.29199 3,3.4375 0.64324,0.73992 1.28648,1.47984 1.94922,2.24219 1.29281,1.46272 2.60557,2.90827 3.94531,4.32812 31.40176,33.64018 39.72691,81.24176 46.21094,125.04688 0.14856,0.97405 0.29713,1.94809 0.45019,2.95166 0.31026,2.0903 0.59681,4.18419 0.86524,6.28027 0.22285,1.59836 0.22285,1.59836 0.45019,3.229 0.18648,1.43908 0.18648,1.43908 0.37671,2.90723 1.14417,3.92012 3.59839,5.67961 6.77564,8.06543 3.7894,2.89822 5.75654,5.94017 6.41406,10.63672 -0.48302,3.17411 -1.18005,4.61755 -3.4375,6.875 -0.66,0 -1.32,0 -2,0 0.54141,0.96486 0.54141,0.96486 1.09375,1.94922 3.67849,7.16283 5.50872,13.99421 3.90625,22.05078 -1.84766,2.37891 -1.84766,2.37891 -4,4 -0.99,0 -1.98,0 -3,0 0.16081,0.71769 0.32162,1.43537 0.4873,2.1748 0.84797,4.67272 0.73862,9.33746 0.7627,14.0752 0.0309,1.49854 0.0309,1.49854 0.0625,3.02734 0.041,7.84886 -0.90929,14.38486 -5.5625,20.84766 C 801,530 801,530 797.1875,529.8125 796.13562,529.54437 795.08375,529.27625 794,529 c -0.15855,0.55687 -0.31711,1.11375 -0.48047,1.6875 C 791.4298,537.52241 788.62503,545.38635 782,549 c -0.99,0.26813 -1.98,0.53625 -3,0.8125 -3.90268,1.54481 -4.76312,3.72395 -7,7.1875 -1.66392,0.67349 -3.33032,1.34092 -5,2 -0.45633,1.15049 -0.45633,1.15049 -0.92188,2.32422 -4.56263,11.32392 -22.31228,18.18184 -32.82812,22.73828 -3.54244,1.46942 -5.32354,1.9375 -9.25,1.9375 3.78771,13.01633 10.52693,23.7904 18,35 0.26562,2.15625 0.26562,2.15625 0.25,4.5 0.005,0.77344 0.0103,1.54687 0.0156,2.34375 C 741.99998,630 741.99998,630 739.99998,633 c -0.66,0 -1.32,0 -2,0 0.47051,1.03898 0.94102,2.07797 1.42578,3.14844 11.6842,26.03996 11.6842,26.03996 7.84766,36.91015 -1.62722,2.75833 -2.98032,3.84814 -6.02344,4.81641 -1.11375,0.0619 -1.11375,0.0619 -2.25,0.125 0.15984,0.61617 0.31969,1.23234 0.48437,1.86719 2.03247,12.34874 2.24403,27.7746 -4.48437,38.69531 -2,2.4375 -2,2.4375 -5,4.4375 -3.1875,0.125 -3.1875,0.125 -6,0 -0.0412,1.155 -0.0825,2.31 -0.125,3.5 -1.75931,15.54057 -10.65406,32.87235 -21.875,43.5 -2.95665,1.47832 -5.7423,1.06033 -9,1 -0.24234,1.23492 -0.48469,2.46984 -0.73437,3.74219 -1.66655,8.44026 -3.36914,16.86593 -5.26563,25.25781 -6.01795,26.8482 -10.58145,53.41553 -11,81 0.90275,0.27807 0.90275,0.27807 1.82373,0.56177 10.31782,3.28616 17.95072,9.45688 23.61377,18.81323 1.41818,6.61815 1.40958,11.8448 -1.9375,17.875 -4.82271,7.21143 -11.15801,11.51304 -19.5,13.75 -4.02954,0.43388 -8.06062,0.38976 -12.10937,0.35156 -6.15765,0.1188 -8.44964,1.42315 -12.89063,5.64844 -2.63281,1.32812 -2.63281,1.32812 -5.125,2.25 -0.82758,0.31453 -1.65516,0.62906 -2.50781,0.95312 -6.30177,2.12139 -12.25166,2.01728 -18.86719,2.04688 -1.12148,0.0206 -2.24297,0.0412 -3.39844,0.0625 -16.88268,0.078 -27.09217,-4.94751 -39.10156,-16.3125 -0.59684,-0.54398 -1.19367,-1.08797 -1.80859,-1.64844 -8.99133,-8.4954 -16.30123,-19.14563 -23.19141,-29.35156 -4.30286,1.61873 -8.35133,3.65874 -12.4375,5.75 -5.36383,2.70518 -10.75005,5.33195 -16.25,7.75 -1.09699,0.48469 -2.19398,0.96938 -3.32422,1.46875 -2.89816,1.00015 -4.95481,1.25637 -7.98828,1.03125 0.5427,0.65227 1.08539,1.30453 1.64453,1.97656 6.59567,8.05742 10.05329,13.16156 9.76172,23.82813 -0.71276,5.60616 -2.8903,9.06986 -7.16797,12.68359 -12.37501,8.50939 -28.72253,8.89252 -43.17578,8.82422 -0.76628,-10e-4 -1.53255,-0.002 -2.32205,-0.004 -19.754,-0.0578 -39.41242,-1.53963 -59.09488,-3.10007 -2.56212,-0.20233 -5.12451,-0.40053 -7.68707,-0.5971 -10.6574,-0.81881 -21.30931,-1.69272 -31.9585,-2.61182 -0.74862,-0.0642 -1.49725,-0.12846 -2.26855,-0.19464 -4.46422,-0.38366 -8.92758,-0.77562 -13.39002,-1.17938 -2.0188,-0.18193 -4.03802,-0.35912 -6.05725,-0.53614 -19.63969,-1.82165 -19.63969,-1.82165 -27.15918,-8.83984 -1.72389,-3.44779 -1.31625,-6.42509 -1.125,-10.25 -1.82531,0.12375 -1.82531,0.12375 -3.6875,0.25 -15.28769,-0.0952 -32.04973,-9.3307 -43.3125,-19.25 -0.74121,-0.62262 -1.48242,-1.24523 -2.24609,-1.88672 -3.05586,-2.5983 -5.51477,-4.75457 -7.75391,-8.11328 -2.44233,1.17232 -4.69681,2.4355 -7,3.875 -11.13802,6.423 -24.33947,8.43034 -37,7.125 -7.4276,-2.28996 -12.75809,-5.81372 -17.10937,-12.26563 -0.89063,-1.73437 -0.89063,-1.73437 -0.89063,-3.73437 -1.03061,0.23396 -1.03061,0.23396 -2.08203,0.47266 -8.94764,1.61704 -17.12746,1.74177 -24.78906,-3.54688 -4.05321,-3.66648 -6.70406,-8.07607 -9.12891,-12.92578 -0.097,-1.95638 -0.12979,-3.91623 -0.125,-5.875 -0.004,-1.57395 -0.004,-1.57395 -0.008,-3.17969 0.11282,-2.50208 0.40772,-4.56288 1.13281,-6.94531 -1.01062,-0.51563 -2.02125,-1.03125 -3.0625,-1.5625 -8.46091,-4.88129 -13.01632,-11.61177 -16.02344,-20.73047 -3.13178,-12.70113 -0.72218,-24.68889 5.84375,-35.74219 3.53037,-5.58419 7.36372,-8.97471 13.24219,-11.96484 0.66,0 1.32,0 2,0 -0.33,-0.99 -0.66,-1.98 -1,-3 -1.06454,-14.24037 1.75436,-24.9166 11,-36 6.37164,-6.92511 13.95684,-11.77527 23.49609,-12.41016 1.60502,-0.0484 3.2107,-0.0783 4.81641,-0.0898 0.7649,-0.006 1.52979,-0.0127 2.31787,-0.0193 4.82833,0.10928 8.13512,0.98801 12.36963,3.51929 0.40219,-0.92813 0.40219,-0.92813 0.8125,-1.875 1.1875,-2.125 1.1875,-2.125 4.1875,-4.125 7.31216,-0.86025 12.12468,2.08312 18,6 0.0954,-0.9668 0.19078,-1.93359 0.28906,-2.92969 0.67668,-4.67118 2.31551,-8.84019 4.08594,-13.19531 0.34942,-0.86383 0.69883,-1.72767 1.05884,-2.61768 9.91728,-23.89877 23.60035,-46.55154 41.56616,-65.25732 0.63615,-0.66338 1.2723,-1.32677 1.92773,-2.01025 8.94746,-9.27049 17.95405,-18.10735 28.35694,-25.73194 1.77253,-1.29975 3.52763,-2.62081 5.28174,-3.94531 19.05173,-14.2888 39.39517,-26.68879 59.66797,-39.14453 17.21711,-10.61139 33.5814,-21.78117 48.76562,-35.16797 -0.39832,-0.54527 -0.79664,-1.09055 -1.20703,-1.65234 -5.96803,-8.49464 -8.16852,-16.03352 -8.79297,-26.34766 -0.88687,0.12375 -1.77375,0.2475 -2.6875,0.375 -3.3125,-0.375 -3.3125,-0.375 -6,-2.8125 -6.63428,-9.30939 -5.63066,-19.63893 -5.3125,-30.5625 -0.7773,-0.13664 -1.55461,-0.27328 -2.35547,-0.41406 -3.58354,-0.79399 -4.64135,-1.46988 -6.64453,-4.58594 -1.72803,-9.37616 1.76349,-17.86445 6.71094,-25.71484 0.42539,-0.75411 0.85078,-1.50821 1.28906,-2.28516 -0.8639,-2.74878 -1.9552,-3.9552 -4,-6 -0.5567,-3.47937 -0.59825,-5.94357 1.16797,-9.0625 2.25727,-3.06386 4.4499,-5.62961 7.42578,-8.02734 3.45048,-4.17306 3.58684,-8.07862 4.21875,-13.34766 5.36428,-37.08699 18.31223,-75.2496 39.1875,-106.5625 -0.70528,-0.11303 -1.41056,-0.22607 -2.13721,-0.34253 -3.13506,-0.72 -5.74861,-1.82616 -8.66748,-3.177 -1.12881,-0.52127 -2.25763,-1.04253 -3.42065,-1.57959 -1.21691,-0.57037 -2.43345,-1.14152 -3.64966,-1.71338 -0.6217,-0.29095 -1.2434,-0.58189 -1.88394,-0.88165 -33.46792,-15.68305 -66.51614,-33.58864 -94.24106,-58.30585 -0.85465,-0.73348 -1.7093,-1.46695 -2.58984,-2.22266 -23.8096,-20.72525 -39.27585,-46.96595 -51.41016,-75.77734 -0.28327,-0.66645 -0.56654,-1.33289 -0.8584,-2.01953 -10.11924,-24.16611 -16.39529,-51.09696 -16.5791,-77.29297 -0.0102,-1.114959 -0.0205,-2.229917 -0.031,-3.378662 0.11666,-10.808484 2.37683,-19.94964 9.46851,-28.308838 10.38522,-9.837475 22.19673,-11.496133 35.89453,-11.269531 39.46676,1.502297 78.8027,30.87424 106.44531,56.792971 2.15937,2.01033 4.34804,3.94479 6.59766,5.85156 8.65516,7.51442 16.67537,15.87218 24.0625,24.625 0.91023,1.04794 1.82182,2.09471 2.73438,3.14063 6.72763,7.73385 13.15096,15.63086 19.26562,23.85937 0.46954,0.62761 0.93908,1.25522 1.42285,1.90186 50.57715,67.85022 50.57715,67.85022 50.57715,84.09814 0.95777,-0.4473 1.91555,-0.89461 2.90234,-1.35547 24.57983,-11.24924 48.3728,-13.83564 75.19068,-13.9397 2.0541,-0.0115 4.10818,-0.0319 6.16211,-0.0615 13.80025,-0.19763 26.36986,0.87496 39.74487,4.35669 0.1994,-0.74161 0.3988,-1.48323 0.60425,-2.24731 2.20485,-8.18021 4.44271,-16.2806 7.44946,-24.20606 1.17117,-3.15181 2.2881,-6.32128 3.40723,-9.49194 16.13811,-45.5335 35.23991,-90.24489 68.53906,-126.05469 1.12922,-1.30887 2.25436,-2.621276 3.375,-3.9375 7.80074,-8.915128 16.31306,-16.75601 25.625,-24.0625 0.95004,-0.778594 1.90008,-1.557188 2.87891,-2.359375 C 796.13762,35.392257 832.43595,10.100316 858.1875,27.625 Z"
     fill="#e0d5c7"
     id="path4" />
  <path
     d="m 858.1875,27.625 c 10.39851,8.413906 13.68688,20.820673 15.41113,33.546631 0.64764,6.177385 0.69857,12.309627 0.65137,18.515869 -0.008,1.313635 -0.015,2.627271 -0.0227,3.980713 C 873.98407,105.7776 871.11376,128.28138 863,149 c -0.2989,0.78166 -0.5978,1.56331 -0.90576,2.36865 C 853.47624,173.79182 842.0412,193.24596 827,212 c -0.81211,1.01965 -1.62422,2.0393 -2.46094,3.08984 -6.7575,8.2627 -14.25073,15.80548 -21.78906,23.34766 -0.51951,0.52051 -1.03903,1.04102 -1.57428,1.5773 C 795.29888,245.89036 789.36811,251.65205 783,257 c -0.60199,0.50878 -1.20398,1.01755 -1.82422,1.54175 -7.76913,6.50998 -15.7368,12.73521 -23.92578,18.70825 -1.14348,0.84135 -1.14348,0.84135 -2.31006,1.69971 -0.71752,0.51675 -1.43505,1.0335 -2.17432,1.56591 -0.63131,0.45666 -1.26263,0.91331 -1.91308,1.38379 -1.94672,1.15654 -3.6402,1.66841 -5.85254,2.10059 0.99948,1.14628 1.99963,2.29199 3,3.4375 0.64324,0.73992 1.28648,1.47984 1.94922,2.24219 1.29281,1.46272 2.60557,2.90827 3.94531,4.32812 31.40176,33.64018 39.72691,81.24176 46.21094,125.04688 0.14856,0.97405 0.29713,1.94809 0.45019,2.95166 0.31026,2.0903 0.59681,4.18419 0.86524,6.28027 0.22285,1.59836 0.22285,1.59836 0.45019,3.229 0.18648,1.43908 0.18648,1.43908 0.37671,2.90723 1.14417,3.92012 3.59839,5.67961 6.77564,8.06543 3.7894,2.89822 5.75654,5.94017 6.41406,10.63672 -0.48302,3.17411 -1.18005,4.61755 -3.4375,6.875 -0.66,0 -1.32,0 -2,0 0.54141,0.96486 0.54141,0.96486 1.09375,1.94922 3.67849,7.16283 5.50872,13.99421 3.90625,22.05078 -1.84766,2.37891 -1.84766,2.37891 -4,4 -0.99,0 -1.98,0 -3,0 0.16081,0.71769 0.32162,1.43537 0.4873,2.1748 0.84797,4.67272 0.73862,9.33746 0.7627,14.0752 0.0309,1.49854 0.0309,1.49854 0.0625,3.02734 0.041,7.84886 -0.90929,14.38486 -5.5625,20.84766 C 801,530 801,530 797.1875,529.8125 796.13562,529.54437 795.08375,529.27625 794,529 c -0.15855,0.55687 -0.31711,1.11375 -0.48047,1.6875 C 791.4298,537.52241 788.62503,545.38635 782,549 c -0.99,0.26813 -1.98,0.53625 -3,0.8125 -3.90268,1.54481 -4.76312,3.72395 -7,7.1875 -1.66392,0.67349 -3.33032,1.34092 -5,2 -0.45633,1.15049 -0.45633,1.15049 -0.92188,2.32422 -4.56263,11.32392 -22.31228,18.18184 -32.82812,22.73828 -3.54244,1.46942 -5.32354,1.9375 -9.25,1.9375 3.78771,13.01633 10.52693,23.7904 18,35 0.26562,2.15625 0.26562,2.15625 0.25,4.5 0.005,0.77344 0.0103,1.54687 0.0156,2.34375 C 741.99998,630 741.99998,630 739.99998,633 c -0.66,0 -1.32,0 -2,0 0.47051,1.03898 0.94102,2.07797 1.42578,3.14844 11.6842,26.03996 11.6842,26.03996 7.84766,36.91015 -1.62722,2.75833 -2.98032,3.84814 -6.02344,4.81641 -1.11375,0.0619 -1.11375,0.0619 -2.25,0.125 0.15984,0.61617 0.31969,1.23234 0.48437,1.86719 2.03247,12.34874 2.24403,27.7746 -4.48437,38.69531 -2,2.4375 -2,2.4375 -5,4.4375 -3.1875,0.125 -3.1875,0.125 -6,0 -0.0412,1.155 -0.0825,2.31 -0.125,3.5 -1.75931,15.54057 -10.65406,32.87235 -21.875,43.5 -2.95665,1.47832 -5.7423,1.06033 -9,1 -0.24234,1.23492 -0.48469,2.46984 -0.73437,3.74219 -1.66655,8.44026 -3.36914,16.86593 -5.26563,25.25781 -6.01795,26.8482 -10.58145,53.41553 -11,81 0.90275,0.27807 0.90275,0.27807 1.82373,0.56177 10.31782,3.28616 17.95072,9.45688 23.61377,18.81323 1.41818,6.61815 1.40958,11.8448 -1.9375,17.875 -4.82271,7.21143 -11.15801,11.51304 -19.5,13.75 -4.02954,0.43388 -8.06062,0.38976 -12.10937,0.35156 -6.15765,0.1188 -8.44964,1.42315 -12.89063,5.64844 -2.63281,1.32812 -2.63281,1.32812 -5.125,2.25 -0.82758,0.31453 -1.65516,0.62906 -2.50781,0.95312 -6.30177,2.12139 -12.25166,2.01728 -18.86719,2.04688 -1.12148,0.0206 -2.24297,0.0412 -3.39844,0.0625 -16.88268,0.078 -27.09217,-4.94751 -39.10156,-16.3125 -0.59684,-0.54398 -1.19367,-1.08797 -1.80859,-1.64844 -8.99133,-8.4954 -16.30123,-19.14563 -23.19141,-29.35156 -4.30286,1.61873 -8.35133,3.65874 -12.4375,5.75 -5.36383,2.70518 -10.75005,5.33195 -16.25,7.75 -1.09699,0.48469 -2.19398,0.96938 -3.32422,1.46875 -2.89816,1.00015 -4.95481,1.25637 -7.98828,1.03125 0.5427,0.65227 1.08539,1.30453 1.64453,1.97656 6.59567,8.05742 10.05329,13.16156 9.76172,23.82813 -0.71276,5.60616 -2.8903,9.06986 -7.16797,12.68359 -12.37501,8.50939 -28.72253,8.89252 -43.17578,8.82422 -0.76628,-10e-4 -1.53255,-0.002 -2.32205,-0.004 -19.754,-0.0578 -39.41242,-1.53963 -59.09488,-3.10007 -2.56212,-0.20233 -5.12451,-0.40053 -7.68707,-0.5971 -10.6574,-0.81881 -21.30931,-1.69272 -31.9585,-2.61182 -0.74862,-0.0642 -1.49725,-0.12846 -2.26855,-0.19464 -4.46422,-0.38366 -8.92758,-0.77562 -13.39002,-1.17938 -2.0188,-0.18193 -4.03802,-0.35912 -6.05725,-0.53614 -19.63969,-1.82165 -19.63969,-1.82165 -27.15918,-8.83984 -1.72389,-3.44779 -1.31625,-6.42509 -1.125,-10.25 -1.82531,0.12375 -1.82531,0.12375 -3.6875,0.25 -15.28769,-0.0952 -32.04973,-9.3307 -43.3125,-19.25 -0.74121,-0.62262 -1.48242,-1.24523 -2.24609,-1.88672 -3.05586,-2.5983 -5.51477,-4.75457 -7.75391,-8.11328 -2.44233,1.17232 -4.69681,2.4355 -7,3.875 -11.13802,6.423 -24.33947,8.43034 -37,7.125 -7.4276,-2.28996 -12.75809,-5.81372 -17.10937,-12.26563 -0.89063,-1.73437 -0.89063,-1.73437 -0.89063,-3.73437 -1.03061,0.23396 -1.03061,0.23396 -2.08203,0.47266 -8.94764,1.61704 -17.12746,1.74177 -24.78906,-3.54688 -4.05321,-3.66648 -6.70406,-8.07607 -9.12891,-12.92578 -0.097,-1.95638 -0.12979,-3.91623 -0.125,-5.875 -0.004,-1.57395 -0.004,-1.57395 -0.008,-3.17969 0.11282,-2.50208 0.40772,-4.56288 1.13281,-6.94531 -1.01062,-0.51563 -2.02125,-1.03125 -3.0625,-1.5625 -8.46091,-4.88129 -13.01632,-11.61177 -16.02344,-20.73047 -3.13178,-12.70113 -0.72218,-24.68889 5.84375,-35.74219 3.53037,-5.58419 7.36372,-8.97471 13.24219,-11.96484 0.66,0 1.32,0 2,0 -0.33,-0.99 -0.66,-1.98 -1,-3 -1.06454,-14.24037 1.75436,-24.9166 11,-36 6.37164,-6.92511 13.95684,-11.77527 23.49609,-12.41016 1.60502,-0.0484 3.2107,-0.0783 4.81641,-0.0898 0.7649,-0.006 1.52979,-0.0127 2.31787,-0.0193 4.82833,0.10928 8.13512,0.98801 12.36963,3.51929 0.40219,-0.92813 0.40219,-0.92813 0.8125,-1.875 1.1875,-2.125 1.1875,-2.125 4.1875,-4.125 7.31216,-0.86025 12.12468,2.08312 18,6 0.0954,-0.9668 0.19078,-1.93359 0.28906,-2.92969 0.67668,-4.67118 2.31551,-8.84019 4.08594,-13.19531 0.34942,-0.86383 0.69883,-1.72767 1.05884,-2.61768 9.91728,-23.89877 23.60035,-46.55154 41.56616,-65.25732 0.63615,-0.66338 1.2723,-1.32677 1.92773,-2.01025 8.94746,-9.27049 17.95405,-18.10735 28.35694,-25.73194 1.77253,-1.29975 3.52763,-2.62081 5.28174,-3.94531 19.05173,-14.2888 39.39517,-26.68879 59.66797,-39.14453 17.21711,-10.61139 33.5814,-21.78117 48.76562,-35.16797 -0.39832,-0.54527 -0.79664,-1.09055 -1.20703,-1.65234 -5.96803,-8.49464 -8.16852,-16.03352 -8.79297,-26.34766 -0.88687,0.12375 -1.77375,0.2475 -2.6875,0.375 -3.3125,-0.375 -3.3125,-0.375 -6,-2.8125 -6.63428,-9.30939 -5.63066,-19.63893 -5.3125,-30.5625 -0.7773,-0.13664 -1.55461,-0.27328 -2.35547,-0.41406 -3.58354,-0.79399 -4.64135,-1.46988 -6.64453,-4.58594 -1.72803,-9.37616 1.76349,-17.86445 6.71094,-25.71484 0.42539,-0.75411 0.85078,-1.50821 1.28906,-2.28516 -0.8639,-2.74878 -1.9552,-3.9552 -4,-6 -0.5567,-3.47937 -0.59825,-5.94357 1.16797,-9.0625 2.25727,-3.06386 4.4499,-5.62961 7.42578,-8.02734 3.45048,-4.17306 3.58684,-8.07862 4.21875,-13.34766 5.36428,-37.08699 18.31223,-75.2496 39.1875,-106.5625 -0.70528,-0.11303 -1.41056,-0.22607 -2.13721,-0.34253 -3.13506,-0.72 -5.74861,-1.82616 -8.66748,-3.177 -1.12881,-0.52127 -2.25763,-1.04253 -3.42065,-1.57959 -1.21691,-0.57037 -2.43345,-1.14152 -3.64966,-1.71338 -0.6217,-0.29095 -1.2434,-0.58189 -1.88394,-0.88165 -33.46792,-15.68305 -66.51614,-33.58864 -94.24106,-58.30585 -0.85465,-0.73348 -1.7093,-1.46695 -2.58984,-2.22266 -23.8096,-20.72525 -39.27585,-46.96595 -51.41016,-75.77734 -0.28327,-0.66645 -0.56654,-1.33289 -0.8584,-2.01953 -10.11924,-24.16611 -16.39529,-51.09696 -16.5791,-77.29297 -0.0102,-1.114959 -0.0205,-2.229917 -0.031,-3.378662 0.11666,-10.808484 2.37683,-19.94964 9.46851,-28.308838 10.38522,-9.837475 22.19673,-11.496133 35.89453,-11.269531 39.46676,1.502297 78.8027,30.87424 106.44531,56.792971 2.15937,2.01033 4.34804,3.94479 6.59766,5.85156 8.65516,7.51442 16.67537,15.87218 24.0625,24.625 0.91023,1.04794 1.82182,2.09471 2.73438,3.14063 6.72763,7.73385 13.15096,15.63086 19.26562,23.85937 0.46954,0.62761 0.93908,1.25522 1.42285,1.90186 50.57715,67.85022 50.57715,67.85022 50.57715,84.09814 0.95777,-0.4473 1.91555,-0.89461 2.90234,-1.35547 24.57983,-11.24924 48.3728,-13.83564 75.19068,-13.9397 2.0541,-0.0115 4.10818,-0.0319 6.16211,-0.0615 13.80025,-0.19763 26.36986,0.87496 39.74487,4.35669 0.1994,-0.74161 0.3988,-1.48323 0.60425,-2.24731 2.20485,-8.18021 4.44271,-16.2806 7.44946,-24.20606 1.17117,-3.15181 2.2881,-6.32128 3.40723,-9.49194 16.13811,-45.5335 35.23991,-90.24489 68.53906,-126.05469 1.12922,-1.30887 2.25436,-2.621276 3.375,-3.9375 7.80074,-8.915128 16.31306,-16.75601 25.625,-24.0625 0.95004,-0.778594 1.90008,-1.557188 2.87891,-2.359375 C 796.13762,35.392257 832.43595,10.100316 858.1875,27.625 Z m -96.75,47.1875 c -0.64276,0.597883 -1.28552,1.195767 -1.94775,1.811768 C 755.03257,80.846762 750.96413,85.314394 747,90 c -0.53005,0.623826 -1.06009,1.247651 -1.6062,1.890381 C 737.57513,101.17331 730.41562,110.69628 724,121 c -0.40283,0.64485 -0.80566,1.28971 -1.2207,1.9541 C 706.31843,149.54976 694.36134,178.56539 684,208 c -0.42225,1.19448 -0.42225,1.19448 -0.85303,2.41309 -1.4682,4.15867 -2.92377,8.3214 -4.36572,12.48925 -1.23748,3.56747 -2.51356,7.11853 -3.8125,10.66407 -0.49403,1.36427 -0.49403,1.36427 -0.99805,2.7561 -0.63339,1.74709 -1.27496,3.49125 -1.92578,5.23193 -0.28295,0.78641 -0.5659,1.57282 -0.85742,2.38306 -0.25395,0.68965 -0.50789,1.3793 -0.76953,2.08984 -0.49713,2.34627 -0.25792,3.73919 0.58203,5.97266 1.74519,1.20224 1.74519,1.20224 3.875,2 3.31113,1.53095 5.51038,2.56893 7.125,6 0.1875,3.25 0.1875,3.25 0,6 -1.32,0.66 -2.64,1.32 -4,2 0.10313,-0.7425 0.20625,-1.485 0.3125,-2.25 -0.0627,-2.90376 -0.0627,-2.90376 -2.3125,-5 -3.83299,-2.23591 -6.59698,-2.45149 -11,-2.75 -0.33,-1.65 -0.66,-3.3 -1,-5 -35.35111,-12.66492 -82.16113,-8.36492 -116,7 -1.98,0.99 -1.98,0.99 -4,2 0.66,3.63 1.32,7.26 2,11 -3.50217,-3.16527 -5.75975,-6.68349 -8.0625,-10.75 -0.88191,-1.52396 -1.76481,-3.04735 -2.64844,-4.57031 -0.50757,-0.87818 -1.01513,-1.75635 -1.53808,-2.66114 C 510.07128,214.1965 484.91504,174.93188 453,140 c -0.90015,-1.00484 -1.79986,-2.01007 -2.69922,-3.01562 -11.20267,-12.43981 -23.32379,-23.66773 -36.68359,-33.75684 -1.50961,-1.14588 -3.00165,-2.31479 -4.49219,-3.485353 C 392.44033,86.811568 373.87058,75.461239 354.0625,68.0625 352.92748,67.638439 352.92748,67.638439 351.76953,67.205811 338.7625,62.574044 321.51739,59.732228 308.1875,64.5625 c -7.15886,3.662673 -12.26068,8.25026 -15.38477,15.704834 -1.60585,5.46664 -1.43101,11.014591 -1.36523,16.670166 0.009,1.313071 0.0176,2.626143 0.0266,3.979 0.28298,17.7857 3.93002,35.3152 9.83374,52.07276 0.77944,2.23207 1.51843,4.47571 2.25684,6.72168 9.94444,29.82749 24.04719,56.15274 46.01465,78.80713 1.36052,1.40927 2.6971,2.84154 4.03222,4.2749 11.80389,12.35664 26.04565,22.0492 40.39844,31.20703 1.05316,0.67418 2.10633,1.34836 3.19141,2.04297 20.43903,12.81597 42.06172,23.88149 63.87109,34.14453 24.05439,11.37157 24.05439,11.37157 28.9375,18.8125 -6.57831,-1.77108 -6.57831,-1.77108 -9.1875,-3.1875 -1.78111,-0.98128 -1.78111,-0.98128 -3.75928,-0.60376 -2.68613,1.03517 -3.28395,2.16468 -4.71728,4.63892 -0.71604,1.23073 -0.71604,1.23073 -1.44654,2.48632 -0.49975,0.90041 -0.9995,1.80082 -1.5144,2.72852 -0.52489,0.93521 -1.04978,1.87043 -1.59058,2.83398 -14.51155,26.49383 -25.37293,57.74986 -29.83129,87.6543 -0.1551,1.03528 -0.31019,2.07056 -0.46998,3.13721 -0.2707,1.93028 -0.51131,3.86514 -0.71435,5.80371 -0.87695,6.4676 -3.01405,9.51438 -7.99365,13.73022 -1.93873,1.94193 -2.39176,3.10095 -2.77515,5.77808 2.64,0 5.28,0 8,0 -1.25927,5.1741 -2.97914,8.93661 -5.9375,13.4375 -4.52924,7.10895 -7.5993,12.97372 -7.0625,21.5625 2.468,-1.15173 4.04784,-2.04784 6,-4 1.32,0 2.64,0 4,0 -0.0722,1.00418 -0.14438,2.00836 -0.21875,3.04297 -1.80071,17.36851 -1.80071,17.36851 2.21875,33.95703 0.99,-0.33 1.98,-0.66 3,-1 0.33,-1.65 0.66,-3.3 1,-5 1.65,0.33 3.3,0.66 5,1 0.16436,1.63195 0.16436,1.63195 0.33203,3.29687 1.22989,14.25687 1.22989,14.25687 5.66797,27.70313 0.66,0 1.32,0 2,0 0.66,-1.65 1.32,-3.3 2,-5 1.8125,0.5 1.8125,0.5 4,2 0.89821,1.92915 1.54723,3.89017 2.22656,5.90625 1.94042,5.25284 5.15241,9.01306 9.77344,12.09375 0.99,0 1.98,0 3,0 0.33,-2.31 0.66,-4.62 1,-7 2.99554,0.32772 4.58321,0.58228 6.74609,2.75 0.55817,0.7425 1.11633,1.485 1.69141,2.25 3.50445,4.17993 7.18439,7.04732 11.75,9.9375 0.59418,0.37705 1.18835,0.7541 1.80054,1.14258 4.93579,3.03741 8.96482,5.21983 14.82446,5.04492 1.18529,-0.0271 1.18529,-0.0271 2.39453,-0.0547 0.59168,-0.0232 1.18336,-0.0464 1.79297,-0.0703 0,-1.32 0,-2.64 0,-4 6.53266,2.63819 6.53266,2.63819 8.9375,4.5 6.63332,4.82423 14.14017,5.11709 22.0625,5.5 -0.33,0.66 -0.66,1.32 -1,2 -9.20424,0.25607 -17.713,0.39266 -26,-4 -0.99,0.66 -1.98,1.32 -3,2 0,0.66 0,1.32 0,2 -14.34717,-0.27543 -24.30194,-5.89412 -35,-15 -0.33,-0.66 -0.66,-1.32 -1,-2 -0.84111,0.23396 -0.84111,0.23396 -1.69922,0.47266 -4.86326,1.11466 -10.02306,1.85874 -14.47265,-0.74219 -2.43237,-2.0655 -4.39351,-3.86122 -5.82813,-6.73047 -3.5594,1.51965 -5.85908,3.63 -8.625,6.3125 -16.90749,15.81593 -37.76002,27.64431 -57.37158,39.74219 -16.4033,10.12047 -32.59314,20.34938 -48.00342,31.94531 -0.9506,0.71301 -0.9506,0.71301 -1.92041,1.44043 -8.26823,6.23992 -16.04127,12.89691 -23.51807,20.06543 -1.02252,0.9784 -2.05035,1.9513 -3.08398,2.91797 -40.81839,38.18922 -59.06128,94.13095 -63.47754,148.57617 -0.0495,2.66978 -0.032,5.32932 0,8 -0.66,0 -1.32,0 -2,0 -2.38898,-17.03614 -0.86933,-33.28931 2.30908,-50.09619 0.22929,-1.22896 0.45859,-2.45792 0.69483,-3.72412 0.21471,-1.09587 0.42942,-2.19173 0.65063,-3.3208 0.33211,-2.74842 0.38606,-4.31984 -0.65454,-6.85889 -3.83561,-3.83561 -6.39954,-5.73951 -12,-6 -1.96823,1.96823 -1.66248,5.34809 -2,8 -2.1875,0.8125 -2.1875,0.8125 -5,1 -2.625,-2.375 -2.625,-2.375 -5,-5 -6.27491,-2.09164 -14.51192,-2.16754 -20.8125,-0.0586 -9.7083,5.23133 -16.73799,14.35324 -20.49609,24.60546 -1.40689,4.99167 -1.32262,8.86007 0.62109,13.76563 1.5009,2.66639 1.5009,2.66639 3.4375,4.25 0.61875,0.71156 0.61875,0.71156 1.25,1.4375 -0.3125,2.6875 -0.3125,2.6875 -1,5 -0.83531,-0.10441 -0.83531,-0.10441 -1.6875,-0.21094 -5.72212,-0.40596 -9.05722,0.52835 -13.45703,4.23438 -7.64103,8.1397 -10.4235,17.33023 -10.22656,28.30078 0.77078,7.63481 3.43797,14.2892 8.99609,19.67578 4.59409,3.59958 9.82954,5.35879 15.375,7 0.15625,2.39062 0.15625,2.39062 0,5 -1.2375,0.86625 -1.2375,0.86625 -2.5,1.75 -2.63272,1.93728 -2.63272,1.93728 -2.97266,4.28906 -0.20969,5.45204 0.83621,8.7348 4.47266,12.96094 5.9994,5.28519 10.1665,5.48821 18,5 2.01089,-0.63306 4.01463,-1.29094 6,-2 2.625,-0.1875 2.625,-0.1875 5,1 1.13399,2.18282 2.00421,4.4192 2.90625,6.70703 2.01564,4.22565 5.20999,6.40166 9.42188,8.39453 7.98665,2.68557 16.27417,1.0778 24.10937,-1.35156 0.99254,-0.3066 0.99254,-0.3066 2.00513,-0.61938 4.77058,-1.59866 10.14491,-3.43362 12.59253,-8.10718 -0.0484,-2.78729 -1.03301,-4.10048 -2.59766,-6.39844 -6.35764,-10.04536 -10.35116,-21.18913 -13.4375,-32.625 -0.21527,-0.79277 -0.43055,-1.58555 -0.65234,-2.40234 -1.95819,-8.36158 -1.99384,-17.05003 -2.34766,-25.59766 3.63963,2.42642 3.62862,3.3589 4.5625,7.5 0.25137,1.08797 0.50273,2.17594 0.76172,3.29687 0.55834,2.64646 1.06663,5.29255 1.55078,7.95313 4.8827,24.64978 17.55248,49.11303 38.125,64.25 11.45588,7.54058 25.94746,15.022 40,14 1.68799,-1.4375 1.68799,-1.4375 3,-3 1.32,0 2.64,0 4,0 -0.49656,2.81382 -1.1184,5.31574 -2.125,8 -0.9536,3.2695 -1.07434,4.83032 0.125,8 3.64197,3.86241 8.12948,3.73501 13.125,4.125 0.8764,0.0785 1.7528,0.1571 2.65576,0.23804 6.87533,0.59321 13.76244,1.00891 20.65723,1.29565 5.35789,0.23925 5.35789,0.23925 7.56201,1.34131 2.8842,0.27477 5.75431,0.49771 8.64453,0.68359 0.8796,0.0604 1.7592,0.12086 2.66545,0.18312 2.83392,0.19431 5.66816,0.38302 8.50252,0.57079 3.67342,0.2452 7.34657,0.49402 11.01953,0.74609 0.92812,0.0627 1.85624,0.12545 2.81249,0.19007 5.38053,0.37572 10.73517,0.86202 16.09718,1.44255 12.86996,1.37405 25.63899,1.41271 38.5708,1.30879 2.21679,-0.0101 4.43359,-0.0192 6.65039,-0.0273 5.3458,-0.0217 10.69144,-0.0549 16.03711,-0.0977 -0.753,-6.25026 -0.753,-6.25026 -4.3125,-11.25 -0.59426,-0.64453 -1.18852,-1.28906 -1.80078,-1.95313 -1.85466,-1.85077 -1.85466,-1.85077 -4.05469,-3.34375 -1.83203,-1.45312 -1.83203,-1.45312 -2.83203,-4.45312 6.78152,2.49117 11.9857,5.77711 15.875,12 1.13261,3.0203 1.63934,5.82111 2.125,9 2.23085,-0.25659 4.45967,-0.53087 6.6875,-0.8125 1.24137,-0.15082 2.48273,-0.30164 3.76172,-0.45703 3.48596,-0.71713 5.65687,-1.71082 8.55078,-3.73047 -0.3679,-7.174 -4.7733,-13.0121 -9.8125,-17.875 -2.1875,-2.125 -2.1875,-2.125 -3.1875,-5.125 7.04669,2.30096 11.60332,6.49458 15.10547,13.07812 0.69843,1.61328 1.30764,3.26477 1.89453,4.92188 0.66,-0.33 1.32,-0.66 2,-1 0.51626,-6.32423 -0.005,-10.8444 -4,-16 -0.45117,-0.58652 -0.90234,-1.17305 -1.36719,-1.77734 -5.07541,-5.76982 -11.63713,-8.3624 -18.63281,-11.22266 -0.77086,-0.34418 -1.54172,-0.68836 -2.33594,-1.04297 -7.70976,-2.76964 -15.13944,-3.31116 -23.28906,-3.26953 -1.04801,10e-4 -2.09602,0.003 -3.17578,0.004 -8.37709,0.10304 -16.11025,1.13079 -24.19922,3.30859 0,-0.99 0,-1.98 0,-3 1.5198,-0.15275 1.5198,-0.15275 3.07031,-0.30859 12.51904,-2.20266 23.21917,-10.38976 30.61719,-20.44141 6.34429,-9.61211 12.3125,-20.47091 12.3125,-32.25 0.66,0 1.32,0 2,0 0.66,1.65 1.32,3.3 2,5 3.10246,-3.10246 2.94588,-6.62491 3.11353,-10.88428 -0.005,-0.97405 -0.0105,-1.94809 -0.0159,-2.95166 -0.005,-1.59521 -0.005,-1.59521 -0.01,-3.22265 -0.008,-1.09442 -0.0168,-2.18883 -0.0254,-3.31641 -0.007,-1.67643 -0.007,-1.67643 -0.0137,-3.38672 -0.0117,-2.74615 -0.0282,-5.49219 -0.0488,-8.23828 1.20656,1.485 1.20656,1.485 2.4375,3 0.84562,0.99 1.69125,1.98 2.5625,3 0.33,0 0.66,0 1,0 1.56588,-22.44424 -4.35336,-43.36287 -15,-63 2.31,0 4.62,0 7,0 0.56791,-8.06901 -3.9716,-13.1285 -8.75391,-19.24219 -4.94496,-5.48966 -10.75596,-8.30006 -17.36718,-11.3125 -2.87891,-1.44531 -2.87891,-1.44531 -3.87891,-3.44531 1.65,0 3.3,0 5,0 0,-0.99 0,-1.98 0,-3 -9.94859,-5.70953 -19.79315,-10.64042 -30.75,-14.125 -1.37309,-0.44195 -1.37309,-0.44195 -2.77393,-0.89282 -5.0023,-1.51601 -9.25164,-2.31049 -14.47607,-1.98218 0,-0.66 0,-1.32 0,-2 18.473,0.47982 40.23945,4.58929 54,18 1.25,3.6875 1.25,3.6875 2,7 2.74311,2.21791 2.74311,2.21791 6,4 7.46705,5.40169 13.12987,13.22077 16,22 0.4375,3.25 0.4375,3.25 0,6 -2,1.875 -2,1.875 -4,3 1.22138,3.80373 2.60009,7.49976 4.10693,11.19873 6.18518,15.5121 9.4858,32.07755 7.89307,48.80127 -2,3 -2,3 -4.125,3.6875 -0.92813,0.15469 -0.92813,0.15469 -1.875,0.3125 -0.0374,1.03898 -0.0748,2.07797 -0.11328,3.14844 -0.35465,8.01169 -0.99211,15.27825 -3.88672,22.85156 -0.77859,0.0361 -1.55719,0.0722 -2.35937,0.10937 -0.87141,0.29391 -1.74282,0.58782 -2.64063,0.89063 -1.39273,2.77939 -1.39273,2.77939 -2.25,6.25 -3.40956,10.94049 -9.92222,19.57062 -18.31641,27.35937 -0.47308,0.45891 -0.94617,0.91782 -1.43359,1.39063 0,0.33 0,0.66 0,1 1.2549,0.0561 1.2549,0.0561 2.53516,0.11328 21.19639,1.19714 21.19639,1.19714 29.625,5.5 2.92847,1.43 4.13041,1.69003 7.27734,1.19922 0.76055,-0.11602 1.52109,-0.23203 2.30469,-0.35156 3.15863,-0.64484 6.18643,-1.48071 9.25781,-2.46094 0,-0.66 0,-1.32 0,-2 1.19625,-0.18562 2.3925,-0.37125 3.625,-0.5625 9.81904,-2.17167 19.06804,-7.95491 27.375,-13.4375 -1.72553,-4.82189 -4.23372,-9.12361 -6.75,-13.5625 -1.35196,-2.42356 -2.69976,-4.84941 -4.04736,-7.27539 -0.9787,-1.75951 -1.9629,-3.51596 -2.94873,-5.27149 -3.38151,-6.34146 -5.77446,-12.90906 -8.06641,-19.70312 -0.30253,-0.8963 -0.60505,-1.7926 -0.91675,-2.71606 -1.57595,-4.83433 -2.7393,-9.41231 -3.27075,-14.47144 3,1 3,1 4.42969,3.26562 2.47946,5.11976 4.7827,10.18729 6.69531,15.54688 5.74619,15.35395 14.08284,29.99065 23.56689,43.3335 1.42858,2.02475 2.8202,4.07229 4.21045,6.12353 5.42508,7.93585 11.06212,15.27678 17.72266,22.21484 2.375,2.51563 2.375,2.51563 4.44141,5.11719 6.71902,8.33431 14.31223,13.15976 24.93359,14.39844 4.33981,0.14849 8.6599,0.12245 13,0 0.93265,-6.17878 -0.28077,-8.93844 -4,-14 -1.31543,-1.68083 -2.64316,-3.35241 -4,-5 6.09891,2.22845 9.25192,4.41183 12.1875,10.4375 0.89969,2.83748 1.40152,5.61716 1.8125,8.5625 6.15568,-0.93102 11.60846,-1.79422 17,-5 1.20778,-7.59174 -3.01298,-12.80588 -7,-19 5.00676,2.30818 7.3055,4.10997 10,9 0.75,2.375 0.75,2.375 1,4 0.66,0 1.32,0 2,0 1.6138,-3.2276 1.39936,-5.40579 1,-9 -3.6209,-7.57583 -10.14966,-14.73691 -18,-18 -0.99,0 -1.98,0 -3,0 -0.28102,-0.71156 -0.56203,-1.42313 -0.85156,-2.15625 -0.73679,-1.82441 -1.50029,-3.63839 -2.29688,-5.4375 -3.9476,-9.35354 -5.71633,-18.81623 -7.40625,-28.78564 -0.52542,-3.09202 -1.08348,-6.17758 -1.64648,-9.26294 -3.04945,-17.8628 -4.12644,-35.39008 -4.05957,-53.51343 0.0108,-3.49903 -2e-5,-6.99757 -0.0127,-10.49658 10e-4,-2.25391 0.004,-4.50782 0.008,-6.76172 -0.004,-1.03138 -0.008,-2.06276 -0.0123,-3.1254 0.0394,-6.12126 0.73399,-11.53256 2.27789,-17.46054 0.33,0 0.66,0 1,0 1.09239,10.80586 1.31468,21.59936 1.55225,32.44849 0.19926,8.88742 0.44594,17.70907 1.44775,26.55151 11.06184,-4.16387 19.06624,-13.79174 26,-23 0.57621,-0.75797 1.15242,-1.51594 1.74609,-2.29688 0.99568,-1.32094 1.98591,-2.64603 2.96875,-3.97656 1.70395,-2.28918 3.4858,-4.51196 5.28516,-6.72656 0.33,2.97 0.66,5.94 1,9 10.86064,-3.68887 16.88938,-16.36559 22,-26 1.39166,-2.98361 2.71183,-5.96526 3.92969,-9.02344 1.07031,-1.97656 1.07031,-1.97656 4.07031,-2.97656 0,2.64 0,5.28 0,8 3.81617,0.43564 3.81617,0.43564 5.45703,-1.25781 10.71526,-14.76051 15.57337,-31.01455 18.54297,-48.74219 1.32,-0.33 2.64,-0.66 4,-1 0.99,1.32 1.98,2.64 3,4 0.99,-0.33 1.98,-0.66 3,-1 2.79036,-5.8411 3.41851,-10.68939 3.29297,-17.09375 -0.004,-0.83213 -0.008,-1.66426 -0.0129,-2.52161 -0.0166,-2.62856 -0.0543,-5.25632 -0.0926,-7.88464 -0.0151,-1.79426 -0.0288,-3.58853 -0.041,-5.38281 -0.0329,-4.3727 -0.0845,-8.74481 -0.14648,-13.11719 0.5775,0.33 1.155,0.66 1.75,1 2.44884,1.27076 2.44884,1.27076 6.25,1 1.02464,-12.86487 -4.30364,-25.19673 -11,-36 -1.62791,-1.38039 -3.28837,-2.7249 -5,-4 -0.8125,-2.25 -0.8125,-2.25 -1,-4 0.88688,0.35063 1.77375,0.70125 2.6875,1.0625 3.37453,0.95506 5.00936,0.90901 8.3125,-0.0625 -0.54315,-4.70135 -2.69598,-8.09515 -5.1875,-12 -4.21378,-6.7906 -7.59133,-13.68107 -10.8125,-21 -0.65692,-1.33816 -1.31944,-2.6737 -2,-4 -4.13887,0.3495 -8.04449,0.6815 -12,2 -3.95551,1.3185 -7.86113,1.6505 -12,2 0.33,-0.99 0.66,-1.98 1,-3 2.30468,-0.9327 4.49881,-1.68114 6.875,-2.375 5.63064,-1.7526 10.95034,-3.74145 16.26953,-6.31641 2.4867,-1.13959 4.97493,-2.14331 7.52344,-3.13281 22.81006,-8.98211 22.81006,-8.98211 39.14453,-26.11328 0.31582,-0.75152 0.63164,-1.50305 0.95703,-2.27734 0.40606,-0.58911 0.81211,-1.17821 1.23047,-1.78516 0.8018,-0.14695 1.60359,-0.29391 2.42969,-0.44531 2.75889,-0.31501 2.75889,-0.31501 4.37109,-2.76953 0.49887,-0.89848 0.99774,-1.79696 1.51172,-2.72266 0.51176,-0.8959 1.02352,-1.7918 1.55078,-2.71484 1.28199,-2.21295 1.28199,-2.21295 1.13672,-4.34766 0.66,0.33 1.32,0.66 2,1 0.33,0.99 0.66,1.98 1,3 3.35292,-0.74802 3.35292,-0.74802 4.9375,-4.375 4.74555,-9.91361 4.74555,-9.91361 6.0625,-20.625 3.41124,1.41155 4.84562,3.06221 7,6 0.66,0 1.32,0 2,0 2.419,-6.17793 3.46189,-11.50403 3.3125,-18.125 -0.008,-0.81316 -0.0168,-1.62631 -0.0254,-2.46411 -0.14776,-7.56754 -1.03805,-14.95002 -2.28711,-22.41089 2.64,0.66 5.28,1.32 8,2 -0.257,-6.68203 -2.43763,-11.3219 -5.625,-17.16797 -1.297,-2.67137 -1.94758,-4.90953 -2.375,-7.83203 1.98,-0.33 3.96,-0.66 6,-1 -0.57619,-3.56765 -1.86969,-5.25159 -4.4375,-7.75 -0.61746,-0.61359 -1.23492,-1.22719 -1.87109,-1.85938 -1.58394,-1.60231 -1.58394,-1.60231 -3.69141,-1.39062 -0.37244,-2.23468 -0.74482,-4.46937 -1.11694,-6.7041 -0.34612,-2.07505 -0.69333,-4.14991 -1.04151,-6.22461 -0.98661,-5.89022 -1.95869,-11.78202 -2.9002,-17.6796 -3.88868,-24.92536 -3.88868,-24.92536 -9.94135,-49.39169 -0.22123,-0.74766 -0.44247,-1.49531 -0.67041,-2.26563 -7.44854,-24.692 -18.72801,-46.75727 -36.32959,-65.73437 -0.6123,-0.68191 -1.22461,-1.36383 -1.85547,-2.06641 -13.59443,-14.46716 -32.34613,-23.98102 -50.08325,-32.34814 -3.7705,-1.80419 -6.89807,-3.85359 -10.06128,-6.58545 12.4598,-1.44881 27.73106,8.00262 38.15234,14.30078 2.71128,1.02604 4.11256,0.64068 6.84766,-0.30078 2.15505,-1.44051 4.12047,-2.87624 6.125,-4.5 0.56985,-0.45069 1.13969,-0.90138 1.72681,-1.36572 1.72398,-1.36853 3.43701,-2.74979 5.14819,-4.13428 0.92426,-0.73992 1.84852,-1.47984 2.80078,-2.24219 2.75442,-2.22801 5.47829,-4.48901 8.19922,-6.75781 0.50842,-0.42333 1.01684,-0.84665 1.54066,-1.28281 8.51243,-7.11393 16.61787,-14.52963 24.44689,-22.38907 1.70149,-1.70467 3.41599,-3.39548 5.13159,-5.08593 7.64355,-7.60025 14.42461,-15.61731 20.88086,-24.24219 0.44481,-0.58972 0.88962,-1.17944 1.3479,-1.78703 7.20751,-9.56799 13.14845,-19.58006 18.6521,-30.21297 0.60207,-1.16306 0.60207,-1.16306 1.21631,-2.34961 5.88925,-11.53441 10.34208,-23.16946 13.78369,-35.65039 0.26684,-0.91781 0.53367,-1.83562 0.8086,-2.78125 1.34619,-5.4219 1.41613,-10.90849 1.5039,-16.46875 0.0179,-0.76965 0.0358,-1.5393 0.0542,-2.33227 -0.009,-5.710356 -1.1486,-9.858387 -4.9917,-14.29273 -4.41955,-2.093473 -8.93286,-1.853738 -13.57422,-0.46875 -2.3607,0.983274 -4.5625,2.106419 -6.80078,3.34375 -0.84304,0.462773 -1.68609,0.925547 -2.55468,1.402344 -8.12678,4.817172 -14.7843,10.971176 -21.44532,17.597656 -0.49613,0.4921 -0.99225,0.9842 -1.50342,1.49121 -26.7749,26.92698 -45.47863,61.96251 -62.49658,95.50879 -0.57101,1.10916 -0.57101,1.10916 -1.15356,2.24072 -1.86425,3.65302 -3.48214,7.23489 -4.78394,11.13428 -1.25833,3.58403 -2.65341,6.89842 -4.4375,10.25 -3.70623,7.11227 -6.06604,14.79486 -8.625,22.375 0.31225,-8.07162 1.96766,-14.55538 5,-22 0.56584,-1.46667 1.12946,-2.93419 1.69141,-4.40234 12.98274,-33.60479 31.06615,-64.56091 52.30859,-93.59766 0.43023,-0.59007 0.86045,-1.18014 1.30371,-1.78809 13.57927,-18.49791 33.7848,-43.801713 57.87989,-47.551754 4.65144,-0.219822 8.033,0.674263 11.8164,3.339844 5.61156,7.260963 5.92981,16.18416 5,25 -3.2178,19.76708 -10.49435,38.46412 -20,56 -0.33145,0.61214 -0.6629,1.22429 -1.00439,1.85498 -7.21137,13.19324 -15.58662,25.43652 -24.99561,37.14502 -0.42168,0.52755 -0.84337,1.0551 -1.27783,1.59863 -11.8065,14.62951 -25.36345,28.28045 -39.72217,40.40137 -0.63583,0.5373 -1.27166,1.07459 -1.92676,1.62817 -8.3671,7.00465 -16.81663,13.56892 -26.07324,19.37183 2.19139,2.3573 4.43932,4.02057 7.1875,5.6875 0.71543,0.43699 1.43086,0.87398 2.16797,1.32422 0.81404,0.4892 0.81404,0.4892 1.64453,0.98828 16.653,-11.7345 32.52175,-24.10696 47.60157,-37.82031 1.63217,-1.48331 3.27318,-2.95694 4.92187,-4.42188 8.46351,-7.52601 16.22597,-15.23105 23.30078,-24.08984 1.93971,-2.3785 3.95553,-4.61513 6.05078,-6.85547 18.1866,-20.28784 30.99834,-46.70761 38.125,-72.8125 0.19433,-0.70834 0.38865,-1.41668 0.58887,-2.14648 1.31808,-4.91764 2.4206,-9.86047 3.41127,-14.8536 0.15098,-0.7375 0.30196,-1.47501 0.45752,-2.23486 2.35696,-11.97803 2.87286,-23.907051 2.97998,-36.07764 0.0182,-1.063824 0.0182,-1.063824 0.0367,-2.149139 0.20281,-13.955888 -1.01754,-29.724334 -11.1383,-40.272736 -5.36029,-4.958856 -10.54398,-6.740938 -17.82032,-6.5 -29.16576,2.717307 -55.5441,25.940619 -76.07812,45.046875 z"
     fill="#4f2c28"
     id="path6" />
  <path
     d="m 853,34 c 9.2943,8.303627 12.33762,19.712906 13.30713,31.842529 0.13139,4.14079 0.16612,8.265433 0.13037,12.407471 -0.003,0.738895 -0.005,1.477789 -0.008,2.239075 C 866.35319,94.269877 864.91523,107.51292 862,121 c -0.18724,0.88816 -0.37447,1.77633 -0.56738,2.69141 -7.81883,36.24477 -25.47455,66.72882 -50.31934,93.97656 -1.88705,2.08238 -3.72386,4.19706 -5.55078,6.33203 -5.92666,6.79096 -12.35752,13.13979 -19.21484,18.98828 -1.84613,1.58196 -3.66513,3.1837 -5.47657,4.80469 C 767.66827,259.53064 753.49612,269.92358 739,280 c -3.63,-2.31 -7.26,-4.62 -11,-7 2.94606,-2.94606 5.25809,-4.99077 8.625,-7.25 8.08108,-5.56907 15.52162,-11.75616 22.75781,-18.37891 2.08671,-1.8905 4.19871,-3.73355 6.33203,-5.57031 C 777.37871,231.61264 788.72146,220.42502 798,208 c 0.62431,-0.81767 0.62431,-0.81767 1.26123,-1.65186 6.73375,-8.82278 12.87242,-17.9288 18.59082,-27.43994 0.73757,-1.22604 1.48031,-2.44899 2.22949,-3.66797 C 832.88695,154.38107 847.22065,123.38922 842.5,98.347656 841.05725,93.421003 839.09027,90.27222 835,87 c -8.5953,-2.8651 -15.23743,0.138516 -23,4 -10.09628,5.253587 -18.00446,13.04229 -26,21 -0.50032,0.49629 -1.00064,0.99258 -1.51611,1.50391 -31.07383,31.25885 -55.07967,75.75859 -70.41358,116.6582 -0.71103,1.88527 -1.44536,3.76193 -2.20312,5.62891 C 709.33487,242.21746 708.2669,248.10074 708,255 c 0.22663,-0.64026 0.45327,-1.28052 0.68677,-1.94019 1.03635,-2.91778 2.08095,-5.83254 3.12573,-8.74731 0.35643,-1.0074 0.71285,-2.0148 1.08008,-3.05273 0.35127,-0.97647 0.70254,-1.95293 1.06445,-2.95899 0.31945,-0.89549 0.63889,-1.79099 0.96802,-2.71362 C 716,233 716,233 717.48242,230.54712 c 1.66508,-2.79469 2.7334,-5.54511 3.8418,-8.60181 2.47205,-6.55835 5.33974,-12.81204 8.48828,-19.07031 0.83543,-1.66229 0.83543,-1.66229 1.68774,-3.35815 C 750.47374,162.34572 781.25617,103.24794 824,89 c 4.52267,-0.516634 7.93239,-0.613307 11.9375,1.6875 5.66559,6.352328 4.63318,14.90455 4.25342,22.90479 -3.47432,43.81553 -35.36622,83.77324 -65.09229,113.49438 -1.47069,1.47289 -2.93316,2.95363 -4.39551,4.43481 C 764.46955,237.79157 757.91279,243.48347 751,249 c -1.16011,0.98199 -2.31488,1.97039 -3.46094,2.96875 -5.35282,4.64964 -10.78497,9.13421 -16.53906,13.28125 -1.03125,0.74766 -2.0625,1.49531 -3.125,2.26562 C 725,269 725,269 722.60156,268.96875 c -3.5447,-1.31995 -6.87822,-2.97333 -10.22656,-4.71875 -1.42374,-0.72671 -2.84822,-1.45196 -4.27344,-2.17578 -1.04365,-0.53101 -1.04365,-0.53101 -2.1084,-1.07276 C 697.72768,256.84847 691.32906,253.82059 682,254 c 2.97,2.475 2.97,2.475 6,5 -3,1 -3,1 -6,1 -0.83531,-1.11375 -0.83531,-1.11375 -1.6875,-2.25 -2.97082,-3.53287 -6.17307,-4.90114 -10.3125,-6.75 1.56421,-8.12151 4.2007,-15.77133 6.9375,-23.5625 0.4477,-1.28826 0.89497,-2.57667 1.3418,-3.86523 2.16601,-6.22044 4.37309,-12.4183 6.7207,-18.57227 0.32605,-0.87068 0.6521,-1.74136 0.98804,-2.63843 C 702.05061,159.48668 720.49092,118.83645 752,85 c 1.05187,-1.204629 1.05187,-1.204629 2.125,-2.433594 C 772.09168,62.000972 823.16972,14.566773 853,34 Z"
     fill="#dcd0c2"
     id="path8" />
  <path
     d="m 390,124 c 12.38405,6.74476 23.38133,15.38416 33.73047,24.91406 2.09713,1.92749 4.23329,3.79355 6.39453,5.64844 6.026,5.26214 11.5745,10.93331 16.78125,17.00391 1.65115,1.91915 3.31872,3.81842 5,5.71093 C 474.19622,202.47544 523.06027,257.7641 521,293 c -5.34688,-1.7537 -8.44385,-5.04185 -12.40234,-8.90625 C 505.79912,281.83809 503.44847,280.92361 500,280 c 0.33,0.70125 0.66,1.4025 1,2.125 1.09045,3.13503 1.15323,5.58063 1,8.875 -2.31,-0.33 -4.62,-0.66 -7,-1 2.54665,4.81033 4.99028,8.32442 9,12 -0.33,0.99 -0.66,1.98 -1,3 -7.21359,-1.93221 -13.79595,-4.53919 -20.5,-7.8125 -0.98484,-0.47719 -1.96969,-0.95439 -2.98438,-1.44604 C 449.11548,280.85407 418.73276,264.22003 393,242 c -0.79148,-0.68063 -1.58297,-1.36125 -2.39844,-2.0625 C 388.02373,237.66834 385.50447,235.34996 383,233 c -0.52997,-0.49597 -1.05993,-0.99193 -1.60596,-1.50293 C 356.55772,208.05748 333.2096,172.76815 331.625,137.5625 332.42144,129.99628 335.23603,124.0692 341,119 c 16.24047,-10.15029 33.3681,-2.79835 49,5 z"
     fill="#efb0a9"
     id="path10" />
  <path
     d="m 239,750 c 4.76799,0.11352 8.3267,1.62477 11.77344,4.84375 2.50962,4.41181 0.71443,9.35409 -0.32227,14.07568 -3.6757,16.95039 -5.52413,34.67186 -1.94726,51.79151 0.55782,3.69835 0.68371,7.30502 0.78955,11.03979 0.6012,21.19141 5.43953,41.68791 17.77295,59.33911 C 268,893 268,893 268.02734,895.00391 c -2.4168,4.69577 -7.81341,6.52673 -12.58398,8.12719 -9.17099,2.82966 -18.72161,5.32143 -27.94336,1.2439 -5.69553,-3.41251 -8.80791,-7.91427 -10.5,-14.375 -3.02018,-0.88829 -4.61911,-1.13603 -7.625,-0.0625 -6.06922,1.91068 -12.04611,2.20578 -17.8125,-0.625 -3.48977,-3.14931 -7.18065,-6.48682 -7.83594,-11.33594 C 183.62228,875.56203 183.59799,873.38638 184,871 c 2.5,-2.25 2.5,-2.25 5,-4 0.20853,-2.5732 0.20853,-2.5732 0,-5 -0.70125,-0.20754 -1.4025,-0.41508 -2.125,-0.62891 -8.04708,-2.61311 -13.98236,-5.62292 -18.47656,-13 -4.12403,-8.65124 -5.0604,-17.40634 -2.47657,-26.67968 2.79913,-7.27955 6.44345,-12.64613 12.39063,-17.62891 3.89136,-1.53845 7.55517,-1.30558 11.6875,-1.0625 0.95932,-2.19515 0.95932,-2.19515 1,-5 -2.32652,-3.15849 -2.32652,-3.15849 -5,-6 -2.50431,-7.51293 -0.6297,-13.1083 2.52344,-20.10156 C 192.53165,764.03047 197.33914,759.37365 205,755 c 0.59812,-0.3777 1.19625,-0.75539 1.8125,-1.14453 3.20883,-1.25488 6.1306,-1.15769 9.5625,-1.16797 1.28648,-0.0168 2.57297,-0.0335 3.89844,-0.0508 3.9775,0.38774 6.36111,1.24374 9.72656,3.36328 0.99,1.485 0.99,1.485 2,3 2.475,-0.495 2.475,-0.495 5,-1 0.14437,-1.13437 0.28875,-2.26875 0.4375,-3.4375 C 238,751 238,751 239,750 Z"
     fill="#efe9e2"
     id="path12" />
  <path
     d="m 833,89 c 4.11808,2.365703 5.61083,4.541307 7,9 3.32675,37.90951 -19.17235,77.135 -42.69922,105.19141 -7.10167,8.26146 -14.49976,16.19415 -22.20215,23.89526 -1.47069,1.47289 -2.93316,2.95363 -4.39551,4.43481 C 764.46955,237.79157 757.91279,243.48347 751,249 c -1.16011,0.98199 -2.31488,1.97039 -3.46094,2.96875 -5.35282,4.64964 -10.78497,9.13421 -16.53906,13.28125 -1.03125,0.74766 -2.0625,1.49531 -3.125,2.26562 C 725,269 725,269 722.63672,268.98047 c -3.74349,-1.39202 -7.27048,-3.1009 -10.82422,-4.91797 -1.08571,-0.54044 -1.08571,-0.54044 -2.19336,-1.0918 C 704.2675,260.2675 704.2675,260.2675 702,258 c 0.66,0 1.32,0 2,0 0.99,-3.63 1.98,-7.26 3,-11 1,4 1,4 1,8 0.22663,-0.64026 0.45327,-1.28052 0.68677,-1.94019 1.03635,-2.91778 2.08095,-5.83254 3.12573,-8.74731 0.35643,-1.0074 0.71285,-2.0148 1.08008,-3.05273 0.35127,-0.97647 0.70254,-1.95293 1.06445,-2.95899 0.31945,-0.89549 0.63889,-1.79099 0.96802,-2.71362 C 716,233 716,233 717.48242,230.54712 c 1.66508,-2.79469 2.7334,-5.54511 3.8418,-8.60181 2.47205,-6.55835 5.33974,-12.81204 8.48828,-19.07031 0.55696,-1.10819 1.11391,-2.21638 1.68774,-3.35815 C 790.64759,83.64082 790.64759,83.64082 833,89 Z"
     fill="#f0b0aa"
     id="path14" />
  <path
     d="m 574.8125,376.8125 c 0.76893,-0.0122 1.53785,-0.0245 2.33008,-0.0371 11.19458,-0.0283 21.40992,3.74456 29.66992,11.47461 11.22715,12.30152 14.36551,27.67017 14.375,43.8125 0.0122,1.06928 0.0245,2.13855 0.0371,3.24023 C 621.2578,453.6133 621.2578,453.6133 617,460 c -5.96584,1.00694 -12.30242,7.8e-4 -18.27324,-0.73257 -11.49427,-1.38737 -22.85116,-1.50176 -34.41426,-1.39243 -1.88867,0.0101 -3.77734,0.0192 -5.66602,0.0273 -4.54896,0.0217 -9.09766,0.056 -13.64648,0.0977 -0.20822,-1.17345 -0.20822,-1.17345 -0.42065,-2.37061 -0.64063,-2.90751 -1.61662,-4.39041 -3.39185,-6.75439 C 533.66519,438.04359 532.16433,425.91742 533,413 c 0.87408,-4.20415 2.07817,-8.15634 4,-12 -0.9075,-0.2475 -1.815,-0.495 -2.75,-0.75 -3.42447,-1.31711 -5.12311,-2.27236 -7.25,-5.25 0.40234,-2.63672 0.40234,-2.63672 1,-5 1.34191,0.0135 1.34191,0.0135 2.71094,0.0273 8.01075,-0.19642 12.71656,-1.22801 18.97656,-6.24218 7.60572,-5.87131 15.81744,-6.96497 25.125,-6.97266 z"
     fill="#472420"
     id="path16" />
  <path
     d="m 680,788 c 1.49534,2.99069 0.48783,4.98748 -0.25781,8.21875 -0.2974,1.32075 -0.59416,2.64164 -0.89038,3.96265 -0.15951,0.70228 -0.31903,1.40457 -0.48337,2.12814 C 667.49012,844.15109 667.49012,844.15109 670,886 c 2.19799,1.21685 4.34288,2.28153 6.625,3.3125 6.73459,3.19509 12.15542,6.35813 16.375,12.6875 -0.375,2.1875 -0.375,2.1875 -1,4 -1.65,-0.99 -3.3,-1.98 -5,-3 0.45053,1.0132 0.45053,1.0132 0.91016,2.04688 0.38027,0.89203 0.76054,1.78406 1.15234,2.70312 0.38285,0.88172 0.7657,1.76344 1.16016,2.67188 0.8424,2.79388 0.93322,3.92969 -0.22266,6.57812 -1.82111,2.01755 -3.78668,3.37389 -6,5 -0.66,0 -1.32,0 -2,0 -0.098,-0.65227 -0.19594,-1.30453 -0.29688,-1.97656 C 680.75816,914.5003 679.7246,910.38188 676,906 c -2.10039,-1.38869 -2.10039,-1.38869 -4,-2 0.68062,1.63969 0.68062,1.63969 1.375,3.3125 0.25523,0.61488 0.51047,1.22977 0.77344,1.86328 0.91963,2.08956 0.91963,2.08956 2.85156,4.82422 0.26403,3.35316 0.0875,6.63059 0,10 -3.63,0 -7.26,0 -11,0 -0.0206,-1.75313 -0.0412,-3.50625 -0.0625,-5.3125 -0.68426,-8.04959 -4.08824,-13.99926 -9.89844,-19.56641 -2.60486,-2.05403 -4.97355,-3.77579 -8.14844,-4.80468 C 645.42476,893.496 643.93807,892.75429 642,891 c -8.21444,-16.51817 -10.17102,-38.82601 -12,-57 -0.1534,-0.96035 -0.3068,-1.9207 -0.46484,-2.91016 -0.2892,-2.6899 -0.3941,-4.52279 0.46484,-7.08984 2.18371,-1.87309 4.42914,-3.02733 7,-4.31641 7.85814,-4.40997 14.78726,-11.63246 19.81641,-19.02734 1.24807,-1.74648 2.63026,-3.17947 4.18359,-4.65625 0.66,0.66 1.32,1.32 2,2 6.11155,0.12223 8.9368,-2.20182 13.30078,-6.30859 C 677.53539,790.46248 678.76823,789.23177 680,788 Z"
     fill="#d4c8bc"
     id="path18" />
  <path
     d="m 759.39062,373.94141 c 3.2253,1.96349 5.53185,3.97113 8.04688,6.80859 3.59004,3.15224 6.91301,3.13858 11.5625,3.25 0.64453,1.82813 0.64453,1.82813 1,4 -2.3125,2.75 -2.3125,2.75 -5,5 -0.66,0 -1.32001,0 -2,0 0.21656,0.86239 0.43312,1.72477 0.65625,2.61329 3.69179,16.18577 5.02314,34.50776 -3.65625,49.38671 0.65999,0 1.32,0 2,0 0,0.99 0,1.98 0,3 -2.61143,1.30572 -4.79049,1.29891 -7.70704,1.5 -1.14404,0.0825 -2.28808,0.165 -3.46679,0.25 -1.20076,0.0825 -2.40153,0.165 -3.63867,0.25 -2.36088,0.16379 -4.72157,0.33036 -7.08204,0.5 -1.05034,0.0722 -2.10069,0.14438 -3.18286,0.21875 -2.70415,0.26023 -5.27141,0.70033 -7.9226,1.28125 -2.83361,0.52057 -5.19674,0.77332 -8,0 -7.16187,-6.92252 -9.04233,-19.36769 -9.23829,-28.8164 C 721.49434,406.99275 721.34064,392.5912 733,380 c 7.57717,-6.17773 16.69015,-9.87855 26.39062,-6.05859 z"
     fill="#472420"
     id="path20" />
  <path
     d="m 390,124 c 12.38405,6.74476 23.38133,15.38416 33.73047,24.91406 2.09713,1.92749 4.23329,3.79355 6.39453,5.64844 6.026,5.26214 11.5745,10.93331 16.78125,17.00391 1.65115,1.91915 3.31872,3.81842 5,5.71093 C 474.19622,202.47544 523.06027,257.7641 521,293 c -5.34688,-1.7537 -8.44385,-5.04185 -12.40234,-8.90625 C 505.79912,281.83809 503.44847,280.92361 500,280 c 0.33,0.70125 0.66,1.4025 1,2.125 1.09045,3.13503 1.15323,5.58063 1,8.875 -2.31,-0.33 -4.62,-0.66 -7,-1 2.54665,4.81033 4.99028,8.32442 9,12 -0.33,0.99 -0.66,1.98 -1,3 -7.21359,-1.93221 -13.79595,-4.53919 -20.5,-7.8125 -0.98484,-0.47719 -1.96969,-0.95439 -2.98438,-1.44604 C 449.11548,280.85407 418.73276,264.22003 393,242 c -0.79148,-0.68063 -1.58297,-1.36125 -2.39844,-2.0625 C 388.02373,237.66834 385.50447,235.34996 383,233 c -0.52997,-0.49597 -1.05993,-0.99193 -1.60596,-1.50293 C 356.55772,208.05748 333.2096,172.76815 331.625,137.5625 332.42144,129.99628 335.23603,124.0692 341,119 c 16.24047,-10.15029 33.3681,-2.79835 49,5 z m -53,5 c -3.98744,7.97489 -0.69712,21.24463 1.67969,29.15625 7.60715,22.66955 19.38842,42.87688 35.85547,60.22656 1.97127,2.09312 3.83097,4.2085 5.65234,6.42969 3.2453,3.82449 6.97711,6.97072 10.8125,10.1875 0.85207,0.73992 1.70414,1.47984 2.58203,2.24219 23.8661,20.438 51.6969,35.66529 79.41943,50.17627 2.68748,1.41747 5.35682,2.86168 8.01807,4.32763 0.71116,0.38986 1.42232,0.77973 2.15503,1.1814 1.77985,0.9787 3.55671,1.96282 5.33325,2.94751 1.23363,0.55687 1.23363,0.55687 2.49219,1.125 0.66,-0.33 1.32,-0.66 2,-1 -0.35062,-0.55688 -0.70125,-1.11375 -1.0625,-1.6875 -1.15596,-2.85137 -0.74717,-4.39767 0.0625,-7.3125 1.65,-0.33 3.3,-0.66 5,-1 -0.0413,-1.27875 -0.0825,-2.5575 -0.125,-3.875 -0.0703,-2.17969 -0.0703,-2.17969 0.125,-4.125 0.66,-0.66 1.32,-1.32 2,-2 4.9969,0.22713 8.03017,2.06989 12,5 0.66,-0.33 1.32,-0.66 2,-1 -17.36782,-33.78044 -36.51112,-65.84657 -61,-95 -0.81984,-1.00547 -1.63969,-2.01094 -2.48438,-3.04688 C 436.41874,166.07688 421.75314,151.01333 405,139 c -0.87527,-0.64711 -1.75055,-1.29422 -2.65234,-1.96094 C 391.82653,129.42662 381.31401,123.96803 369,120 c -0.99,-0.33 -1.98,-0.66 -3,-1 -2.7654,-0.17499 -5.48309,-0.27703 -8.25,-0.3125 -0.73863,-0.029 -1.47727,-0.058 -2.23828,-0.0879 C 346.96399,118.50162 341.97583,122.268 337,129 Z"
     fill="#5c3231"
     id="path22" />
  <path
     d="m 853,34 c 7.04502,6.294096 10.28739,13.329461 11.01172,22.703125 C 863.99725,59.539765 863.32179,61.503278 862,64 c -0.35503,1.32772 -0.69178,2.660639 -1,4 -0.10022,-0.554619 -0.20045,-1.109238 -0.30371,-1.680664 C 860.23032,63.792941 859.74044,61.271753 859.25,58.75 859.09273,57.877305 858.93547,57.004609 858.77344,56.105469 857.49626,49.649915 857.49626,49.649915 853,45 c -0.56848,-0.415078 -1.13695,-0.830156 -1.72266,-1.257813 -3.5533,-1.158022 -7.03814,-0.85143 -10.71484,-0.617187 -1.19955,0.07396 -1.19955,0.07396 -2.42334,0.149414 -9.48904,0.725398 -18.1779,2.929325 -26.06885,8.393555 -2.48775,1.600612 -5.07423,2.775834 -7.75781,4.019531 -10.15601,4.988468 -18.67488,12.673567 -27.28906,19.914062 -1.76836,1.402803 -3.5627,2.775763 -5.41211,4.069825 -7.31475,5.124227 -13.59218,10.855882 -19.86133,17.203613 -0.95003,0.9393 -1.90055,1.878103 -2.85156,2.816406 C 741.78742,106.8323 736.08515,114.24116 731.125,123 c -2.77103,4.74186 -6.20351,8.48534 -9.94922,12.47656 -2.75681,3.19731 -4.78163,6.59549 -6.78906,10.29688 -1.52519,2.44889 -3.28414,4.26295 -5.38672,6.22656 0.5204,-5.70618 2.76563,-9.98168 5.4375,-14.9375 0.44811,-0.83829 0.89622,-1.67659 1.35791,-2.54028 C 720.06115,126.67185 724.79991,119.25928 730,112 c 0.47196,-0.66129 0.94392,-1.32258 1.43018,-2.00391 5.93138,-8.25032 12.14942,-16.016323 19.12841,-23.40234 C 752.57952,84.446722 754.48782,82.262766 756.375,80 774.02562,59.810023 824.27782,15.288654 853,34 Z"
     fill="#f4ecde"
     id="path24" />
  <path
     d="m 835.1875,86 c 4.35124,3.094212 7.10612,7.219482 8.42578,12.414063 C 847.25035,122.73463 835.34847,149.06449 824,170 c -0.33145,0.61214 -0.6629,1.22429 -1.0044,1.85498 -14.05447,25.71276 -14.05447,25.71276 -21.01123,29.13721 -2.53924,1.28962 -3.91139,2.95926 -5.73437,5.13281 -0.61359,0.72445 -1.22719,1.44891 -1.85938,2.19531 -0.4589,0.5543 -0.91781,1.1086 -1.39062,1.67969 0,-4.12772 1.65516,-5.18704 4.375,-8.25 18.52671,-21.51233 32.1093,-48.49451 39.625,-75.75 0.26684,-0.91781 0.53367,-1.83562 0.80859,-2.78125 1.34619,-5.4219 1.41614,-10.90849 1.50391,-16.46875 0.0268,-1.15448 0.0268,-1.15448 0.0542,-2.33227 C 839.3593,99.555451 838.71406,96.195036 836,92 c -4.09563,-2.730422 -7.19193,-2.604837 -12,-2 -3.23003,0.95641 -6.05687,2.373022 -9,4 -1.26457,0.69416 -1.26457,0.69416 -2.55469,1.402344 C 772.69193,118.96631 748.07907,169.41956 728,209 c -0.57101,1.10916 -0.57101,1.10916 -1.15356,2.24072 -1.86425,3.65302 -3.48214,7.23489 -4.78394,11.13428 -1.25833,3.58403 -2.65341,6.89842 -4.4375,10.25 -2.81057,5.36879 -4.68865,11.00508 -6.56982,16.75049 -1.84876,5.5213 -1.84876,5.5213 -4.05518,6.62451 0.29501,-8.45194 1.79527,-15.21575 5,-23 0.56643,-1.46513 1.13,-2.93137 1.69141,-4.39844 C 726.66612,194.994 744.75816,164.03592 766,135 c 0.43022,-0.59007 0.86045,-1.18014 1.30371,-1.78809 C 773.6385,124.58256 780.61409,116.73361 788,109 c 0.62519,-0.67805 1.25039,-1.35609 1.89453,-2.05469 C 800.25807,96.001823 819.23586,80.995563 835.1875,86 Z"
     fill="#5a332d"
     id="path26" />
  <path
     d="M 702.9375,458.1875 C 706,460 706,460 706.84766,462.33203 707.1224,467.1435 704.05942,470.49794 701,474 c -1.26675,0.75198 -2.55846,1.46404 -3.875,2.125 -1.86171,1.03001 -1.86171,1.03001 -3.125,2.875 -1.02332,5.68007 -1.43981,11.93646 1.07031,17.27734 2.29764,2.81357 4.51616,4.57005 8.13672,4.96094 5.61453,0.17196 5.61453,0.17196 10.73047,-1.92578 2.06376,-2.31392 3.61687,-4.57341 5.0625,-7.3125 1.485,0.495 1.485,0.495 3,1 -0.61542,5.38492 -3.00374,8.35602 -7.125,11.75 -4.86697,2.11608 -9.98614,3.129 -15.16016,1.55469 C 695.84043,504.46525 692.81429,502.28333 690,499 c -0.495,0.7425 -0.99,1.485 -1.5,2.25 -4.83915,5.32307 -11.4964,7.78304 -18.625,8.125 -6.89107,-0.0797 -12.6933,-3.1933 -17.5,-8 C 651,499 651,499 651,496 c 3.39722,0.58726 4.95693,1.72557 7.4375,4.0625 4.6243,3.57843 8.70951,3.74224 14.43359,3.45703 6.05648,-1.00563 9.43852,-3.78687 13.62891,-8.08203 2.2933,-5.25548 3.34514,-9.88021 1.5,-15.4375 -3.15477,-2.74986 -6.03231,-4.38971 -9.76563,-6.28125 C 675.15397,472.08182 673.17383,470.70663 671,468 c -0.25,-3.25 -0.25,-3.25 0,-6 1.26955,-0.64835 2.5407,-1.29358 3.8125,-1.9375 0.7077,-0.35965 1.41539,-0.7193 2.14453,-1.08984 7.19807,-3.427 18.44344,-3.21956 25.98047,-0.78516 z"
     fill="#52302d"
     id="path28" />
  <path
     d="m 591,388 c 0,0.33 0,0.66 0,1 -1.06219,0.098 -2.12437,0.19594 -3.21875,0.29687 C 576.80431,390.30426 576.80431,390.30426 567,395 c -0.58781,0.36352 -1.17562,0.72703 -1.78125,1.10156 -6.256,4.4725 -10.20921,11.57785 -12.21875,18.89844 -2.08496,13.15581 0.10577,24.53953 7.3125,35.75 0.55687,0.7425 1.11375,1.485 1.6875,2.25 -3.45108,0.49106 -6.56408,0.66253 -10,0 -5.33276,-4.32118 -8.22168,-11.53293 -9.6875,-18.0625 -1.06066,-13.36426 -0.96331,-26.55183 8.14062,-37.30078 C 561.46174,385.98871 575.85979,383.25013 591,388 Z"
     fill="#f7e9b0"
     id="path30" />
  <path
     d="m 398,241 c 4.38923,2.29437 8.21729,4.89195 12.125,7.9375 24.92288,18.9327 53.94326,33.18152 81.875,47.0625 -0.33645,-0.60457 -0.67289,-1.20914 -1.01953,-1.83203 -1.26109,-2.78848 -0.83792,-4.28383 0.0195,-7.16797 1,-1 1,-1 3.5625,-1.0625 0.80437,0.0206 1.60875,0.0412 2.4375,0.0625 -0.33,-0.66 -0.66,-1.32 -1,-2 -0.44536,-5.23299 -0.44536,-5.23299 1.125,-7.9375 C 499,275 499,275 501.9375,275.125 c 3.02271,0.86363 4.73085,1.81239 7.0625,3.875 -0.99,0.99 -1.98,1.98 -3,3 -1.98,-0.66 -3.96,-1.32 -6,-2 0.495,1.05187 0.495,1.05187 1,2.125 1.09045,3.13503 1.15323,5.58063 1,8.875 -2.31,-0.33 -4.62,-0.66 -7,-1 2.54665,4.81033 4.99028,8.32442 9,12 -0.33,0.99 -0.66,1.98 -1,3 -7.21359,-1.93221 -13.79595,-4.53919 -20.5,-7.8125 -0.98484,-0.4772 -1.96969,-0.95439 -2.98438,-1.44605 -25.72606,-12.59841 -50.88859,-26.57798 -73.96728,-43.60888 -1.28743,-0.94172 -2.60408,-1.84333 -3.92725,-2.73413 C 399.01172,247.14746 398.73803,244.25965 398,241 Z"
     fill="#5b3432"
     id="path32" />
  <path
     d="m 802,199 c 0.66,0 1.32,0 2,0 -1.46619,4.56808 -4.07088,7.76571 -7.1875,11.3125 -0.68546,0.79567 -0.68546,0.79567 -1.38477,1.60742 -0.95905,1.11069 -1.92254,2.21757 -2.88989,3.32105 -1.04512,1.19544 -2.08248,2.39772 -3.11279,3.60595 -4.86437,5.66644 -10.0717,10.94854 -15.36255,16.21558 -1.28294,1.28874 -1.28294,1.28874 -2.5918,2.60352 -4.99359,4.98597 -10.07678,9.784 -15.4707,14.33398 -0.63607,0.53746 -1.27214,1.07492 -1.92749,1.62866 C 745.70592,260.63342 737.25631,267.19727 728,273 c -1.65,-1.32 -3.3,-2.64 -5,-4 0.59684,-0.34289 1.19367,-0.68578 1.80859,-1.03906 8.73389,-5.26889 16.3778,-11.66422 24.14698,-18.24121 1.77416,-1.49238 3.56455,-2.95918 5.36865,-4.41504 9.588,-7.84245 18.20193,-16.68108 26.88281,-25.49732 C 786.30214,214.64054 791.43804,209.66966 797,205 c 0.9587,-1.10699 1.89696,-2.23206 2.8125,-3.375 0.72187,-0.86625 1.44375,-1.7325 2.1875,-2.625 z"
     fill="#552c2a"
     id="path34" />
  <path
     d="m 834,86 c 4.79564,2.26461 7.00895,5.217587 9,10 5.9823,24.32803 -7.63573,53.03536 -19,74 -0.33145,0.61214 -0.6629,1.22429 -1.0044,1.85498 -14.05447,25.71276 -14.05447,25.71276 -21.01123,29.13721 -2.53924,1.28962 -3.91139,2.95926 -5.73437,5.13281 -0.92039,1.08668 -0.92039,1.08668 -1.85938,2.19531 -0.4589,0.5543 -0.91781,1.1086 -1.39062,1.67969 0,-4.12772 1.65516,-5.18704 4.375,-8.25 18.52671,-21.51233 32.1093,-48.49451 39.625,-75.75 0.26684,-0.91781 0.53367,-1.83562 0.80859,-2.78125 1.34619,-5.4219 1.41614,-10.90849 1.50391,-16.46875 0.0179,-0.76965 0.0358,-1.5393 0.0542,-2.33227 C 839.358,98.704342 838.2502,94.500222 834.3125,90.125 833.87937,89.75375 833.44625,89.3825 833,89 c 0.33,-0.99 0.66,-1.98 1,-3 z"
     fill="#aa817c"
     id="path36" />
  <path
     d="m 332,134 c 0.66,1.32 1.32,2.64 2,4 0.66,-0.99 1.32,-1.98 2,-3 0.0748,1.01836 0.14953,2.03672 0.22656,3.08594 C 338.79685,167.54923 353.72239,194.07045 373,216 c 0.82371,0.94488 1.64742,1.88977 2.49609,2.86328 5.44813,6.12811 11.14223,11.57511 17.48438,16.75391 0.62519,0.5182 1.25039,1.0364 1.89453,1.57031 0.5543,0.4473 1.10859,0.89461 1.67969,1.35547 1.70228,1.71609 2.60875,3.18951 3.44531,5.45703 -0.495,1.485 -0.495,1.485 -1,3 -15.98248,-12.86937 -30.43355,-26.9865 -42,-44 -1.08668,-1.59522 -1.08668,-1.59522 -2.19531,-3.22266 C 342.81318,181.17875 330.61207,156.66958 332,134 Z"
     fill="#714744"
     id="path38" />
  <path
     d="m 752,383 c 6.68217,2.58918 10.05329,8.82324 13,15 5.57619,12.72252 7.79924,26.64641 2.83984,40.03906 -0.27715,0.64711 -0.55429,1.29422 -0.83984,1.96094 -0.4125,1.03125 -0.825,2.0625 -1.25,3.125 C 764,445 764,445 760.3125,445.3125 759.21938,445.20938 758.12625,445.10625 757,445 c 0.27715,-0.68707 0.5543,-1.37414 0.83984,-2.08203 0.36223,-0.90106 0.72446,-1.80211 1.09766,-2.73047 0.35965,-0.89332 0.7193,-1.78664 1.08984,-2.70703 3.8332,-9.77543 3.72483,-24.09198 0.22266,-33.98047 -2.79764,-6.12351 -6.19403,-12.1285 -12.25,-15.5 -3.30271,-0.95423 -6.59452,-1.54908 -10,-2 4.44103,-3.83868 8.3381,-3.8926 14,-3 z"
     fill="#f1e3a6"
     id="path40" />
  <path
     d="m 425,713 c 19.73612,-0.92273 38.37014,4.47028 54,17 2,2 2,2 2.125,5.125 -0.0412,0.94875 -0.0825,1.8975 -0.125,2.875 1.20656,0.43313 1.20656,0.43313 2.4375,0.875 C 486,740 486,740 487,742 c -0.99,1.32 -1.98,2.64 -3,4 -0.65227,-0.39832 -1.30453,-0.79664 -1.97656,-1.20703 C 477.42446,742.00509 472.86144,739.30279 468,737 c 0,-0.66 0,-1.32 0,-2 1.65,-0.33 3.3,-0.66 5,-1 -3.30179,-3.58439 -7.1422,-5.25809 -11.5,-7.3125 -1.25248,-0.59168 -1.25248,-0.59168 -2.53027,-1.19531 C 448.20232,720.54554 436.81835,716.37568 425,715 c 0,-0.66 0,-1.32 0,-2 z"
     fill="#502e29"
     id="path42" />
  <path
     d="m 591,388 c 0,0.33 0,0.66 0,1 -1.06219,0.098 -2.12437,0.19594 -3.21875,0.29687 C 576.79778,390.2896 576.79778,390.2896 567,395 c -0.61102,0.42152 -1.22203,0.84305 -1.85156,1.27734 -3.67736,2.82453 -5.52041,5.29444 -7.39844,9.53516 -1.15234,2.32812 -1.15234,2.32812 -2.75,4.1875 -3.69822,1.07012 -7.16945,1.16771 -11,1 1.60168,-7.68808 5.83147,-14.02699 12.12891,-18.83594 C 567.28946,385.22076 578.52818,384.08727 591,388 Z"
     fill="#f0ce7d"
     id="path44" />
  <path
     d="m 832,85 c 2,1.4375 2,1.4375 3,3 0,0.33 0,0.66 0,1 -0.68965,0.02578 -1.3793,0.05156 -2.08984,0.07813 C 826.11283,89.488389 820.94874,90.70189 815,94 c -1.2607,0.692227 -1.2607,0.692227 -2.54688,1.398438 C 799.69035,102.9602 789.79738,114.04263 780,125 c -2.56546,2.56546 -4.47687,2.54046 -8,3 2.88971,-4.58629 6.09682,-8.49954 9.8125,-12.4375 0.53625,-0.57202 1.0725,-1.14404 1.625,-1.7334 1.05448,-1.12149 2.11119,-2.24089 3.17041,-3.35791 1.11255,-1.17577 2.21333,-2.36268 3.31006,-3.55322 C 799.76503,96.536008 816.78495,83.129816 832,85 Z"
     fill="#633b36"
     id="path46" />
  <path
     d="m 398,241 c 4.38923,2.29437 8.21729,4.89195 12.125,7.9375 13.66276,10.3926 28.83993,18.83255 43.875,27.0625 -0.33,0.99 -0.66,1.98 -1,3 -3,1 -3,1 -6.38672,-0.52734 -1.44128,-0.78951 -2.87429,-1.59422 -4.30078,-2.41016 -0.77585,-0.43731 -1.55171,-0.87463 -2.35107,-1.3252 C 428.95363,268.40346 418.42052,261.24999 408,254 c -0.80341,-0.5551 -1.60682,-1.11021 -2.43457,-1.68213 -0.72026,-0.51482 -1.44053,-1.02964 -2.18262,-1.56006 -0.62245,-0.44198 -1.24491,-0.88397 -1.88623,-1.33935 C 398.91448,246.97115 398.55084,244.44276 398,241 Z"
     fill="#643a39"
     id="path48" />
  <path
     d="m 579,400 c 2.91368,1.98378 4.63559,3.41449 5.44531,6.9375 0.21817,3.83978 -0.21313,5.69876 -2.32031,9 -2.76017,2.67899 -3.61614,3.01538 -7.5,3.375 C 571,419 571,419 568.625,417.125 565.72207,413.32886 565.59481,410.78129 566,406 c 3.6589,-5.61031 6.33027,-6.67828 13,-6 z"
     fill="#f7f7f7"
     id="path50" />
  <path
     d="m 692.6875,460.8125 c 0.86689,-0.0122 1.73379,-0.0245 2.62695,-0.0371 0.82823,-0.002 1.65645,-0.004 2.50977,-0.006 1.13055,-0.006 1.13055,-0.006 2.28393,-0.0125 C 702,461 702,461 704,463 c -1.45765,1.62561 -2.91614,3.25047 -4.375,4.875 -0.81211,0.90492 -1.62422,1.80984 -2.46094,2.74219 -1.35482,1.49177 -2.73911,2.95786 -4.16406,4.38281 -5.99426,0 -11.36213,-3.43818 -16,-7 -1.29688,-2.19922 -1.29688,-2.19922 -2,-4 5.48694,-3.65796 11.29507,-3.18268 17.6875,-3.1875 z"
     fill="#f6b5ac"
     id="path52" />
  <path
     d="m 384,121 c -0.66,1.32 -1.32,2.64 -2,4 -0.56848,-0.19336 -1.13695,-0.38672 -1.72266,-0.58594 -0.77214,-0.26039 -1.54429,-0.52078 -2.33984,-0.78906 -0.7541,-0.25523 -1.5082,-0.51047 -2.28516,-0.77344 C 374.33943,122.43004 374.33943,122.43004 373,122 c -1.08152,-0.35578 -2.16305,-0.71156 -3.27734,-1.07812 -4.17977,-1.03508 -7.93907,-1.28922 -12.22266,-1.29688 -0.72059,-0.0245 -1.44117,-0.049 -2.18359,-0.0742 -6.50424,-0.0353 -10.77388,1.97933 -15.50391,6.57422 -2.55716,4.05619 -4.17253,8.38252 -5.8125,12.875 -0.33,0 -0.66,0 -1,0 -0.5223,-6.39812 -0.1247,-10.92625 4,-16 13.43325,-14.4535 30.96747,-8.85121 47,-2 z"
     fill="#653b3b"
     id="path54" />
  <path
     d="m 785,387 c 2.70365,2.70365 2.65101,4.75033 3.25391,8.51172 0.10577,0.64645 0.21155,1.2929 0.32054,1.95894 0.33696,2.07113 0.66256,4.14387 0.98805,6.21684 0.22258,1.37707 0.44588,2.75403 0.66992,4.13086 2.90747,17.96974 2.90747,17.96974 2.83008,23.61914 -0.009,0.86496 -0.0181,1.72992 -0.0273,2.62109 -0.0116,0.64067 -0.0232,1.28133 -0.0352,1.94141 -0.66,0 -1.32,0 -2,0 -1.12499,-4.01908 -2.24586,-8.03929 -3.36304,-12.06055 -0.38007,-1.36587 -0.76124,-2.73143 -1.14355,-4.09668 -0.55152,-1.97022 -1.099,-3.94153 -1.64575,-5.91308 -0.32992,-1.18352 -0.65984,-2.36704 -0.99976,-3.58643 -1.273,-5.01943 -2.01126,-9.85401 -2.0979,-15.03076 -0.0258,-0.93199 -0.0516,-1.86398 -0.0781,-2.82422 C 782.0521,389.60489 782.75462,388.76676 785,387 Z"
     fill="#ece3d7"
     id="path56" />
  <path
     d="m 332,134 c 0.66,1.32 1.32,2.64 2,4 0.66,-0.99 1.32,-1.98 2,-3 0.0748,1.01836 0.14953,2.03672 0.22656,3.08594 1.84092,21.1025 9.83462,41.53585 22.40235,58.59375 0.67869,1.14855 0.67869,1.14855 1.37109,2.32031 -0.33,0.99 -0.66,1.98 -1,3 -7.55174,-2.62888 -11.45321,-14.7374 -14.80444,-21.63403 C 337.41357,166.03511 331.01148,150.14586 332,134 Z"
     fill="#956865"
     id="path58" />
  <path
     d="m 730,112 c 0.66,0.33 1.32,0.66 2,1 -0.33,1.32 -0.66,2.64 -1,4 0.99,-0.99 1.98,-1.98 3,-3 0.66,0.33 1.32,0.66 2,1 -4.39686,7.64359 -8.8094,14.16174 -14.89453,20.58203 -2.74265,3.14972 -4.73305,6.53009 -6.71875,10.19141 -1.52519,2.44889 -3.28414,4.26295 -5.38672,6.22656 0.52048,-5.70697 2.76669,-9.9805 5.4375,-14.9375 0.43941,-0.82669 0.87882,-1.65338 1.33154,-2.50513 C 720.02196,126.69847 724.8671,119.3062 730,112 Z"
     fill="#ece3d6"
     id="path60" />
  <path
     d="m 703,458.5 c 0.99,0.495 1.98,0.99 3,1.5 -0.33,0.66 -0.66,1.32 -1,2 -0.62979,-0.0105 -1.25958,-0.021 -1.90845,-0.0317 -2.88464,-0.0419 -5.76922,-0.0677 -8.65405,-0.0933 -1.48597,-0.0251 -1.48597,-0.0251 -3.00195,-0.0508 -5.56284,-0.037 -10.18398,0.30495 -15.43555,2.17578 1.45256,3.82947 3.42896,5.1205 7,7 -0.33,1.65 -0.66,3.3 -1,5 -8.47191,-4.5618 -8.47191,-4.5618 -11,-8 -0.25,-3.25 -0.25,-3.25 0,-6 1.26955,-0.64835 2.5407,-1.29358 3.8125,-1.9375 0.7077,-0.35965 1.41539,-0.7193 2.14453,-1.08984 C 684.18974,455.52917 695.55498,455.65614 703,458.5 Z"
     fill="#573230"
     id="path62" />
  <path
     d="m 752,383 c 6.65314,2.57793 10.01709,8.86264 13,15 0.87041,2.34887 1.46646,4.54573 2,7 -0.61875,0.12375 -1.2375,0.2475 -1.875,0.375 -2.31621,0.49697 -2.31621,0.49697 -4.125,2.625 -0.17016,-0.58008 -0.34031,-1.16016 -0.51563,-1.75781 C 758.1943,398.86034 755.06874,391.93533 748,388 c -3.30271,-0.95423 -6.59452,-1.54908 -10,-2 4.44103,-3.83868 8.3381,-3.8926 14,-3 z"
     fill="#eeca7d"
     id="path64" />
  <path
     d="m 827,162 c -1.45872,4.95965 -3.57301,9.1694 -6.125,13.625 -0.39598,0.69642 -0.79197,1.39283 -1.19995,2.11035 -11.66834,20.29235 -11.66834,20.29235 -17.69068,23.25684 -2.53924,1.28962 -3.91139,2.95926 -5.73437,5.13281 -0.61359,0.72445 -1.22719,1.44891 -1.85938,2.19531 -0.68835,0.83145 -0.68835,0.83145 -1.39062,1.67969 0,-4.12772 1.65516,-5.18704 4.375,-8.25 8.60612,-9.99301 15.49144,-21.01723 21.67017,-32.64746 C 822.88057,162 822.88057,162 827,162 Z"
     fill="#7f504a"
     id="path66" />
  <path
     d="M 736.5625,395.9375 C 740,397 740,397 741.9375,398.6875 c 1.4084,3.06533 1.54022,4.96846 1.0625,8.3125 -1.625,2.875 -1.625,2.875 -4,5 -3,0.625 -3,0.625 -6,0 -2.86796,-2.56607 -3.86671,-4.20028 -4.5,-8 0.88105,-5.28628 2.50272,-7.96496 8.0625,-8.0625 z"
     fill="#f7f6f6"
     id="path68" />
  <path
     d="m 796,58 c 0.66,0.33 1.32,0.66 2,1 -0.81082,0.617461 -1.62164,1.234922 -2.45703,1.871094 -6.27525,4.794681 -12.47243,9.647685 -18.51953,14.730468 -1.76572,1.400709 -3.55819,2.770832 -5.40772,4.058838 -7.40342,5.169734 -13.71496,11.079825 -19.99072,17.5271 -0.96672,0.981834 -1.93417,1.962956 -2.90234,2.94336 -1.77455,1.7987 -3.54392,3.60194 -5.31006,5.40893 -2.45475,2.50319 -4.9298,4.98488 -7.4126,7.46021 0,-0.99 0,-1.98 0,-3 0.66,0 1.32,0 2,0 0.26482,-0.58628 0.52964,-1.17256 0.80249,-1.77661 1.23812,-2.2988 2.56635,-3.9059 4.35767,-5.79761 0.9361,-0.99459 0.9361,-0.99459 1.89111,-2.00928 0.66371,-0.694317 1.32741,-1.388639 2.01123,-2.104 0.68175,-0.717524 1.36351,-1.435049 2.06592,-2.174316 1.35164,-1.419078 2.70574,-2.835816 4.0625,-4.25 1.45696,-1.520671 2.90246,-3.052323 4.34424,-4.587403 6.76709,-7.045366 14.51272,-13.049634 22.67187,-18.40625 2.70459,-1.706637 2.70459,-1.706637 4.37891,-3.480469 C 786.401,63.599003 788.36266,62.576177 790.625,61.375 793.50082,59.946601 793.50082,59.946601 796,58 Z"
     fill="#ece2d4"
     id="path70" />
  <path
     d="m 481,929 c 5.86663,0 8.9971,3.05244 13.07422,6.85547 2.28628,2.54598 3.33565,4.77237 3.92578,8.14453 -0.66,0.33 -1.32,0.66 -2,1 -0.33,1.98 -0.66,3.96 -1,6 -11.55,0 -23.1,0 -35,0 0,-0.33 0,-0.66 0,-1 11.22,0 22.44,0 34,0 -2.56592,-8.6239 -2.56592,-8.6239 -8.1875,-13.875 -2.73047,-2.17969 -2.73047,-2.17969 -4.8125,-4.125 0,-0.99 0,-1.98 0,-3 z"
     fill="#684b48"
     id="path72" />
  <path
     d="M 601.625,428.0625 C 605,429 605,429 607,432 c -0.1875,3.5625 -0.1875,3.5625 -1,7 -3.24827,2.16551 -4.23094,2.55157 -8,2 -2.73251,-1.994 -3.83248,-3.1624 -4.5,-6.5 0.99503,-4.97514 3.11716,-6.52384 8.125,-6.4375 z"
     fill="#f1f1f1"
     id="path74" />
  <path
     d="m 719,492 c 0.99,0.33 1.98,0.66 3,1 -0.61542,5.38492 -3.00374,8.35602 -7.125,11.75 -4.21129,1.83099 -8.28919,2.40359 -12.875,2.25 -3.625,-1.4375 -3.625,-1.4375 -6,-3 0.33,-1.65 0.66,-3.3 1,-5 0.55816,0.32227 1.11633,0.64453 1.69141,0.97656 3.99131,1.76942 8.03038,1.586 12.30859,1.02344 3.96106,-2.27551 5.8862,-4.9949 8,-9 z"
     fill="#5a3932"
     id="path76" />
  <path
     d="m 516,939 c 0.66,0.66 1.32,1.32 2,2 -0.375,2.625 -0.375,2.625 -1,5 -6.04058,2.27057 -11.56319,3.48914 -18,4 -0.33,-2.31 -0.66,-4.62 -1,-7 3.56087,-1.18696 6.97331,-1.35095 10.6875,-1.5625 0.70189,-0.0432 1.40379,-0.0864 2.12695,-0.13086 1.7283,-0.10581 3.4569,-0.20671 5.18555,-0.30664 0,-0.66 0,-1.32 0,-2 z"
     fill="#c2b5ad"
     id="path78" />
  <path
     d="m 839,129 c -0.29944,8.38428 -3.14914,15.46853 -6.25977,23.15283 -0.64283,1.60413 -1.24953,3.22265 -1.84961,4.84326 C 830.05208,159.144 829.28428,161.08597 828,163 c -2.75,1.0625 -2.75,1.0625 -5,1 1.46992,-4.70085 3.3465,-9.14537 5.375,-13.625 2.67407,-5.97109 4.93263,-11.93414 6.80078,-18.21484 C 836.0041,129.98926 836.49492,129 839,129 Z"
     fill="#986c66"
     id="path80" />
  <path
     d="m 802,199 c 0.66,0 1.32,0 2,0 -1.47342,4.62705 -4.15595,7.85337 -7.3125,11.4375 -0.95463,1.10269 -1.90906,2.20555 -2.86328,3.30859 -0.46616,0.5348 -0.93232,1.0696 -1.4126,1.62061 -2.17341,2.51472 -4.29181,5.07331 -6.41162,7.6333 -0.58266,-0.2359 -1.16531,-0.4718 -1.76563,-0.71484 -2.32985,-0.56022 -2.32985,-0.56022 -4.15625,1.14843 -0.90492,0.99194 -0.90492,0.99194 -1.82812,2.00391 -0.61359,0.65871 -1.22719,1.31742 -1.85938,1.99609 -0.68835,0.77537 -0.68835,0.77537 -1.39062,1.56641 -0.66,-0.33 -1.32,-0.66 -2,-1 2.68322,-2.7126 5.37235,-5.41927 8.0625,-8.125 0.75217,-0.76055 1.50434,-1.52109 2.2793,-2.30469 3.91847,-3.93544 7.8617,-7.72811 12.1665,-11.24023 1.62706,-1.45078 2.94364,-3.00401 4.3042,-4.70508 1.08281,-1.29938 1.08281,-1.29938 2.1875,-2.625 z"
     fill="#643735"
     id="path82" />
  <path
     d="m 363,114 c 0,0.33 0,0.66 0,1 -1.04801,0.0909 -1.04801,0.0909 -2.11719,0.18359 -0.91008,0.0838 -1.82015,0.16758 -2.75781,0.25391 -0.90492,0.0812 -1.80984,0.16242 -2.74219,0.24609 -2.39392,0.1863 -2.39392,0.1863 -4.38281,1.31641 5.445,0.495 5.445,0.495 11,1 0,0.33 0,0.66 0,1 -0.85723,0.0258 -1.71445,0.0516 -2.59766,0.0781 -8.35752,0.41457 -13.46067,1.09282 -19.58984,7.04687 -2.55716,4.05618 -4.17253,8.38252 -5.8125,12.875 -0.33,0 -0.66,0 -1,0 -0.5223,-6.39812 -0.1247,-10.92625 4,-16 7.56273,-8.13712 15.19396,-9.53633 26,-9 z"
     fill="#835b57"
     id="path84" />
  <path
     d="m 777,351 c 5.87514,18.88282 5.87514,18.88282 6,26 -0.66,0.66 -1.32,1.32 -2,2 -9,-19.33333 -9,-19.33333 -9,-25 2.53846,-3 2.53846,-3 5,-3 z"
     fill="#f2ebde"
     id="path86" />
  <path
     d="m 356,199 c 5.0723,2.09812 7.82782,4.79814 10.9375,9.1875 0.85855,1.16563 1.71923,2.3297 2.58203,3.49219 0.41717,0.56557 0.83435,1.13115 1.26416,1.71386 2.54736,3.36443 5.37387,6.49106 8.21631,9.60645 -1.625,0.8125 -1.625,0.8125 -4,1 -5.1644,-3.4971 -8.64394,-8.0782 -12.3125,-13.0625 -0.53689,-0.70705 -1.07379,-1.4141 -1.62695,-2.14258 C 358.63117,205.53226 356.7861,203.05134 356,199 Z"
     fill="#7e5551"
     id="path88" />
  <path
     d="m 633,647 c -0.57264,3.5609 -1.79069,5.11297 -4.42188,7.53125 -0.69609,0.64582 -1.39218,1.29164 -2.10937,1.95703 -0.73219,0.66387 -1.46438,1.32774 -2.21875,2.01172 -0.71672,0.66387 -1.43344,1.32773 -2.17188,2.01172 C 618.48894,663.8172 614.86586,667.0169 611,670 c 1.36275,-3.22105 3.30252,-5.59232 5.57812,-8.22266 1.63667,-2.04583 3.01438,-4.19315 4.42188,-6.40234 3.30953,-5.03218 5.64619,-8.375 12,-8.375 z"
     fill="#ede4d7"
     id="path90" />
  <path
     d="m 827,162 c -1.51623,5.1487 -3.73785,9.63558 -6.3125,14.3125 -0.37834,0.72768 -0.75668,1.45535 -1.14648,2.20508 -2.89471,5.25553 -2.89471,5.25553 -6.33399,6.46289 -0.72832,0.006 -1.45664,0.0129 -2.20703,0.0195 1.69322,-4.65863 4.0223,-8.87604 6.4375,-13.1875 0.3951,-0.72381 0.7902,-1.44762 1.19727,-2.19336 0.38736,-0.69287 0.77472,-1.38574 1.17382,-2.09961 0.34861,-0.62801 0.69723,-1.25603 1.0564,-1.90307 C 822.51278,163.26972 824.07612,162 827,162 Z"
     fill="#8b5e5a"
     id="path92" />
  <path
     d="m 832,85 c 2,1.4375 2,1.4375 3,3 0,0.33 0,0.66 0,1 -0.68965,0.02578 -1.3793,0.05156 -2.08984,0.07813 C 826.9312,89.438995 822.24204,90.378979 816.875,93.0625 815,94 815,94 812,95 c 0,-1.65 0,-3.3 0,-5 12.92079,-6.029703 12.92079,-6.029703 20,-5 z"
     fill="#6c4441"
     id="path94" />
  <path
     d="m 753,425 c 2,2 2,2 2.25,5 -0.25,3 -0.25,3 -2.25,5 -3,0.3125 -3,0.3125 -6,0 -2,-3 -2,-3 -1.75,-6.125 0.37125,-1.42313 0.37125,-1.42313 0.75,-2.875 2.51282,-1.25641 4.21697,-1.20873 7,-1 z"
     fill="#f7f6f5"
     id="path96" />
  <path
     d="m 696,520 c 0.99,0.33 1.98,0.66 3,1 -6.45603,6.8147 -6.45603,6.8147 -12.16406,7.23047 -1.71317,-0.0213 -1.71317,-0.0213 -3.46094,-0.043 -1.7209,-0.01 -1.7209,-0.01 -3.47656,-0.0195 C 677,528 677,528 675,527 c 0,-0.66 0,-1.32 0,-2 1.0132,-0.10957 2.02641,-0.21914 3.07031,-0.33203 1.35164,-0.15957 2.70319,-0.31976 4.05469,-0.48047 0.66516,-0.0702 1.33031,-0.14051 2.01562,-0.21289 C 688.67886,523.41845 691.95936,522.04374 696,520 Z"
     fill="#593a35"
     id="path98" />
  <path
     d="m 682,457 c 16.89294,-0.55353 16.89294,-0.55353 24,3 -0.33,0.66 -0.66,1.32 -1,2 -6.6,-0.33 -13.2,-0.66 -20,-1 0,-0.99 0,-1.98 0,-3 -0.99,-0.33 -1.98,-0.66 -3,-1 z"
     fill="#613c39"
     id="path100" />
  <path
     d="m 651,923 c 0.33,0 0.66,0 1,0 0,2.31 0,4.62 0,7 -5.7323,2.85288 -10.59859,4.53444 -17,5 0.57345,-2.86725 0.86145,-3.86145 3,-6 2.82031,-0.63281 2.82031,-0.63281 6.125,-1.125 1.0957,-0.16758 2.19141,-0.33516 3.32031,-0.50781 0.84305,-0.12117 1.6861,-0.24235 2.55469,-0.36719 0.33,-1.32 0.66,-2.64 1,-4 z"
     fill="#d1c3b7"
     id="path102" />
  <path
     d="m 705,461 c 0.66,0 1.32,0 2,0 -0.29385,5.87693 -2.84113,9.98835 -7,14 -2.42351,1.18267 -4.30222,1.56836 -7,2 0.66,-0.99 1.32,-1.98 2,-3 0.66,0 1.32,0 2,0 -0.33,-0.99 -0.66,-1.98 -1,-3 1.45155,-1.67257 2.91144,-3.33792 4.375,-5 0.81211,-0.92813 1.62422,-1.85625 2.46094,-2.8125 1.07121,-1.08281 1.07121,-1.08281 2.16406,-2.1875 z"
     fill="#593230"
     id="path104" />
  <path
     d="m 712,233 c 1.32,0.33 2.64,0.66 4,1 -0.68945,2.06836 -1.37983,4.13642 -2.07422,6.20312 -0.6638,2.0054 -1.31025,4.01657 -1.94531,6.03125 -0.34418,1.07766 -0.68836,2.15532 -1.04297,3.26563 -0.32098,1.02094 -0.64195,2.04187 -0.97266,3.09375 C 709,255 709,255 707,256 c 0.29145,-8.35008 1.74197,-15.30196 5,-23 z"
     fill="#6a3f38"
     id="path106" />
  <path
     d="m 332,134 c 0.66,1.32 1.32,2.64 2,4 0.66,-0.99 1.32,-1.98 2,-3 0.13277,1.15758 0.26555,2.31516 0.40234,3.50781 0.17831,1.53907 0.3567,3.07814 0.53516,4.61719 0.087,0.76055 0.17402,1.52109 0.26367,2.30469 0.49038,4.21361 1.05786,8.3915 1.79883,12.57031 -0.99,0.33 -1.98,0.66 -3,1 -0.48067,-1.89545 -0.95947,-3.79138 -1.4375,-5.6875 -0.40025,-1.58361 -0.40025,-1.58361 -0.80859,-3.19922 C 332.40117,144.5271 331.90282,139.73336 332,134 Z"
     fill="#bc958c"
     id="path108" />
  <path
     d="m 337,157 c 3.89572,2.59714 4.63376,5.64108 6.125,9.875 0.26426,0.72059 0.52852,1.44117 0.80078,2.18359 1.19409,3.29133 2.2642,6.53213 3.07422,9.94141 -0.99,0.33 -1.98,0.66 -3,1 -0.99153,-2.32873 -1.96816,-4.66205 -2.9375,-7 -0.27779,-0.6484 -0.55559,-1.2968 -0.8418,-1.96484 C 338.2852,166.32465 337.44749,162.07528 337,157 Z"
     fill="#a47874"
     id="path110" />
  <path
     d="m 623,256 c 10.28571,-0.54454 19.93925,1.12199 30,3 0,0.33 0,0.66 0,1 -9.71614,0.14974 -19.3163,-0.30387 -29,-1 -0.33,-0.99 -0.66,-1.98 -1,-3 z"
     fill="#ece3d6"
     id="path112" />
  <path
     d="m 424,260 c 4.61513,1.31861 8.09898,3.21355 12,6 -0.33,1.32 -0.66,2.64 -1,4 -3.49844,-0.63389 -5.84087,-2.05178 -8.75,-4.0625 -0.79922,-0.54785 -1.59844,-1.0957 -2.42188,-1.66016 C 423.22484,263.85582 422.62156,263.4343 422,263 c 0.66,-0.99 1.32,-1.98 2,-3 z"
     fill="#5d3534"
     id="path114" />
  <path
     d="m 832.5,39.75 c 4.59969,0.328549 9.00348,1.254722 13.5,2.25 0,0.33 0,0.66 0,1 -1.39799,0.03867 -1.39799,0.03867 -2.82422,0.07813 -8.03591,0.357513 -14.90052,1.402787 -22.56641,4.082031 C 818,48 818,48 815,48 c 2.40618,-2.850882 4.48581,-3.640673 8.0625,-4.5625 3.59429,-0.934198 6.02642,-3.346392 9.4375,-3.6875 z"
     fill="#ece2d3"
     id="path116" />
  <path
     d="m 360.0625,114.6875 c 1.2491,0.004 2.4982,0.008 3.78516,0.0117 C 367,115 367,115 369,117 c -0.33,0.66 -0.66,1.32 -1,2 0.99,0.33 1.98,0.66 3,1 -1.2375,-0.14437 -2.475,-0.28875 -3.75,-0.4375 -5.74003,-0.64083 -11.49293,-1.10466 -17.25,-1.5625 2.71712,-3.79995 5.64566,-3.37188 10.0625,-3.3125 z"
     fill="#572f2f"
     id="path118" />
  <path
     d="m 383,122 c 4.75482,0.57634 7.97048,2.55069 12,5 0,1.32 0,2.64 0,4 -5.15465,-0.48325 -8.8155,-3.18611 -13,-6 0.33,-0.99 0.66,-1.98 1,-3 z"
     fill="#5b3131"
     id="path120" />
  <path
     d="m 834,86 c 4.0359,2.072488 6.24994,3.763005 8,8 0.23337,3.018611 0.17767,5.979619 0,9 -2,-1 -2,-1 -2.71094,-2.92578 C 838.96035,98.892793 838.96035,98.892793 838.625,97.6875 837.43508,93.855341 836.2189,91.552921 833,89 c 0.33,-0.99 0.66,-1.98 1,-3 z"
     fill="#9c6f6a"
     id="path122" />
  <path
     d="m 525,809 c 0.99,0.33 1.98,0.66 3,1 0.94922,1.96094 0.94922,1.96094 1.6875,4.375 0.25137,0.79148 0.50273,1.58297 0.76172,2.39844 C 531,819 531,819 531,822 c -0.99,0 -1.98,0 -3,0 -3.54718,-4.20406 -3.26597,-7.76933 -3,-13 z"
     fill="#654541"
     id="path124" />
  <path
     d="m 716,134 c 1.16797,1.61719 1.16797,1.61719 2,4 -1.01172,2.94531 -1.01172,2.94531 -2.6875,6.125 -0.54012,1.05445 -1.08023,2.10891 -1.63672,3.19531 C 712,150 712,150 709,152 c 0.5562,-4.68895 1.88183,-8.19924 4.0625,-12.375 0.54785,-1.05961 1.0957,-2.11922 1.66016,-3.21094 C 715.14418,135.61742 715.5657,134.82078 716,134 Z"
     fill="#e7dcd0"
     id="path126" />
  <path
     d="m 585.63281,386.45312 c 1.80591,0.4531 3.59068,0.98954 5.36719,1.54688 0,0.32999 0,0.66 0,1 -4.95,0.32999 -9.9,0.66 -15,1 0,-0.66001 0,-1.32 0,-2 -2.97,0 -5.94,0 -9,0 5.29095,-3.5273 12.49994,-2.60239 18.63281,-1.54688 z"
     fill="#cba466"
     id="path128" />
  <path
     d="m 720,223 c 0.42363,3.60085 -0.0329,5.06004 -1.8125,8.3125 -0.72187,0.88687 -1.44375,1.77375 -2.1875,2.6875 -0.99,0 -1.98,0 -3,0 0.48901,-6.35714 0.48901,-6.35714 2.9375,-9.4375 C 718,223 718,223 720,223 Z"
     fill="#623a33"
     id="path130" />
  <path
     d="m 624,759 c 0.66,0.33 1.32,0.66 2,1 1.73937,9.07427 1.10521,18.78835 1,28 -0.33,0 -0.66,0 -1,0 -0.33,-7.59 -0.66,-15.18 -1,-23 -0.66,0 -1.32,0 -2,0 -0.33,0.66 -0.66,1.32 -1,2 0.875,-6.875 0.875,-6.875 2,-8 z"
     fill="#8e7470"
     id="path132" />
  <path
     d="m 398,241 c 4.28478,2.30719 7.72291,4.32966 11,8 -1.32,0.99 -2.64,1.98 -4,3 -4.65987,-3.06571 -5.85485,-5.58657 -7,-11 z"
     fill="#6a3f3e"
     id="path134" />
  <path
     d="m 425,713 c 2.60444,-0.0539 5.20777,-0.0936 7.8125,-0.125 0.73799,-0.0168 1.47598,-0.0335 2.23633,-0.0508 3.86363,-0.035 5.66021,-0.0182 8.95117,2.17578 -1.98,0 -3.96,0 -6,0 0,0.66 0,1.32 0,2 -4.29,-0.66 -8.58,-1.32 -13,-2 0,-0.66 0,-1.32 0,-2 z"
     fill="#82635b"
     id="path136" />
  <path
     d="m 821,173 c -1.25257,4.48837 -2.73441,7.63837 -6,11 -2.25,0.8125 -2.25,0.8125 -4,1 4.45714,-12 4.45714,-12 10,-12 z"
     fill="#855853"
     id="path138" />
  <path
     d="m 336,124 c 0.99,0.99 1.98,1.98 3,3 -2.475,5.94 -2.475,5.94 -5,12 -0.33,0 -0.66,0 -1,0 -0.3505,-5.84174 -0.16727,-9.85318 3,-15 z"
     fill="#88625d"
     id="path140" />
  <path
     d="m 661,632 c 0.66,0.66 1.32,1.32 2,2 -1.26342,1.4855 -2.53601,2.96321 -3.8125,4.4375 -1.06154,1.23557 -1.06154,1.23557 -2.14453,2.49609 C 655,643 655,643 652,644 c 0.41575,-4.85042 2.4166,-6.8432 6,-10 0.99,-0.66 1.98,-1.32 3,-2 z"
     fill="#efe7db"
     id="path142" />
  <path
     d="m 728,444 c 2.49362,1.20381 4.68143,2.45429 7,4 0,0.66 0,1.32 0,2 1.32,0.66 2.64,1.32 4,2 -5.28497,0.5285 -5.28497,0.5285 -8,0 -2.5,-3 -2.5,-3 -4,-6 0.33,-0.66 0.66,-1.32 1,-2 z"
     fill="#58322e"
     id="path144" />
  <path
     d="m 505,922 c 4.31392,0.47932 6.1657,1.7458 9,5 -1.65,0.66 -3.3,1.32 -5,2 -2,-1.8125 -2,-1.8125 -4,-4 0,-0.99 0,-1.98 0,-3 z"
     fill="#5c3d37"
     id="path146" />
  <path
     d="m 508,279 c 0.59812,0.30937 1.19625,0.61875 1.8125,0.9375 2.27707,1.1646 2.27707,1.1646 5.1875,2.0625 0,1.65 0,3.3 0,5 -3.35596,-0.59928 -5.37801,-1.84622 -8,-4 0.33,-1.32 0.66,-2.64 1,-4 z"
     fill="#522b2d"
     id="path148" />
  <path
     d="m 356,199 c 4.58826,1.93727 6.80529,3.48864 9,8 -0.99,0.99 -1.98,1.98 -3,3 -1.00558,-1.45449 -2.0043,-2.91372 -3,-4.375 -0.55688,-0.81211 -1.11375,-1.62422 -1.6875,-2.46094 C 356,201 356,201 356,199 Z"
     fill="#875d5a"
     id="path150" />
  <path
     d="m 807,195 c -0.75,2.4375 -0.75,2.4375 -2,5 -0.59812,0.12375 -1.19625,0.2475 -1.8125,0.375 -3.12612,0.89318 -4.36232,2.73187 -6.4375,5.1875 -0.70641,0.82629 -1.41281,1.65258 -2.14063,2.50391 -0.53109,0.63808 -1.06218,1.27617 -1.60937,1.93359 0,-3.88433 1.1708,-4.67606 3.75,-7.5 0.69609,-0.77344 1.39219,-1.54688 2.10937,-2.34375 C 803.97826,195 803.97826,195 807,195 Z"
     fill="#744440"
     id="path152" />
  <path
     d="m 680,252 c 2.31,0 4.62,0 7,0 0,0.33 0,0.66 0,1 -1.65,0.33 -3.3,0.66 -5,1 1.98,1.65 3.96,3.3 6,5 -3,1 -3,1 -6,1 -2.1875,-3 -2.1875,-3 -4,-6 0.66,0 1.32,0 2,0 0,-0.66 0,-1.32 0,-2 z"
     fill="#bfada3"
     id="path154" />
  <path
     d="m 344,117 c 0.66,0.33 1.32,0.66 2,1 -0.33646,3.14027 -1.05236,4.05098 -3.375,6.3125 -1.29938,0.83531 -1.29938,0.83531 -2.625,1.6875 -0.99,-0.33 -1.98,-0.66 -3,-1 1.49098,-3.79521 3.75701,-5.61043 7,-8 z"
     fill="#734b45"
     id="path156" />
  <path
     d="m 481,929 c 5.53846,0.61538 5.53846,0.61538 7.875,2.5625 0.55687,0.71156 0.55687,0.71156 1.125,1.4375 -2.25,1.1875 -2.25,1.1875 -5,2 -2.3125,-1.1875 -2.3125,-1.1875 -4,-3 0,-0.99 0,-1.98 0,-3 z"
     fill="#694642"
     id="path158" />
  <path
     d="m 251,804 c 0.33,0 0.66,0 1,0 0.1035,6.41689 -0.25492,12.62694 -1,19 -1.32,-0.66 -2.64,-1.32 -4,-2 0.33,-1.32 0.66,-2.64 1,-4 0,0.99 0,1.98 0,3 0.66,0 1.32,0 2,0 0.33,-5.28 0.66,-10.56 1,-16 z"
     fill="#988079"
     id="path160" />
  <path
     d="m 688,586 c -1.24372,0.98713 -2.49527,1.9644 -3.75,2.9375 -0.69609,0.54527 -1.39219,1.09055 -2.10938,1.65234 -2.10154,1.38442 -3.68384,1.97303 -6.14062,2.41016 7.16535,-9.41732 7.16535,-9.41732 12,-7 z"
     fill="#d0c6bc"
     id="path162" />
  <path
     d="m 742,470 c 4.05842,6.08763 4.25021,10.84129 4,18 -0.33,0 -0.66,0 -1,0 -0.50509,-2.24886 -1.00389,-4.49914 -1.5,-6.75 -0.27844,-1.25297 -0.55688,-2.50594 -0.84375,-3.79688 C 742,474 742,474 742,470 Z"
     fill="#ece2d5"
     id="path164" />
  <path
     d="m 707,247 c 1.07396,4.29584 1.0733,7.60212 1,12 -1.875,0.625 -1.875,0.625 -4,1 -0.66,-0.66 -1.32,-1.32 -2,-2 0.66,0 1.32,0 2,0 0.99,-3.63 1.98,-7.26 3,-11 z"
     fill="#b9998d"
     id="path166" />
  <path
     d="m 709,241 c 1.125,3.75 1.125,3.75 0,6 0.66,0 1.32,0 2,0 -0.28151,1.31472 -0.57553,2.62676 -0.875,3.9375 -0.16242,0.7309 -0.32484,1.4618 -0.49219,2.21484 C 709,255 709,255 707,256 c 0.14121,-1.93784 0.28813,-3.87527 0.4375,-5.8125 0.0812,-1.07895 0.16242,-2.15789 0.24609,-3.26953 C 708,244 708,244 709,241 Z"
     fill="#895c53"
     id="path168" />
  <path
     d="m 337,157 c 4.23831,2.82554 3.97715,5.12181 5,10 -0.99,0.33 -1.98,0.66 -3,1 -1.42259,-3.82321 -2.24042,-6.91281 -2,-11 z"
     fill="#b08480"
     id="path170" />
  <path
     d="m 700,458 c 1.98,0.66 3.96,1.32 6,2 -0.33,0.66 -0.66,1.32 -1,2 -5.61,-0.33 -11.22,-0.66 -17,-1 0,-0.33 0,-0.66 0,-1 3.96,0 7.92,0 12,0 0,-0.66 0,-1.32 0,-2 z"
     fill="#976561"
     id="path172" />
  <path
     d="m 586,417 c 1.98,0.495 1.98,0.495 4,1 -0.33,1.65 -0.66,3.3 -1,5 -1.32,-0.33 -2.64,-0.66 -4,-1 0.33,-1.65 0.66,-3.3 1,-5 z"
     fill="#edebeb"
     id="path174" />
  <path
     d="m 303,76 c 0.66,0.33 1.32,0.66 2,1 -3.63,3.63 -7.26,7.26 -11,11 -0.33,-1.32 -0.66,-2.64 -1,-4 1.08281,-0.587812 1.08281,-0.587812 2.1875,-1.1875 C 298.22733,80.853501 300.52128,78.620364 303,76 Z"
     fill="#e9e1d2"
     id="path176" />
  <path
     d="m 738,265 c 0.66,0.33 1.32,0.66 2,1 -0.72316,0.4718 -0.72316,0.4718 -1.46094,0.95312 -4.79277,3.14077 -4.79277,3.14077 -7.53906,8.04688 -0.99,-0.99 -1.98,-1.98 -3,-3 3.3,-2.31 6.6,-4.62 10,-7 z"
     fill="#b4a4a0"
     id="path178" />
  <path
     d="m 745,412 c 1.32,0 2.64,0 4,0 -0.33,1.65 -0.66,3.3 -1,5 -1.32,-0.33 -2.64,-0.66 -4,-1 0.33,-1.32 0.66,-2.64 1,-4 z"
     fill="#e1dddd"
     id="path180" />
  <path
     d="m 680,788 c 1.33332,2.66664 0.67102,4.1668 0,7 -1.98,0 -3.96,0 -6,0 1.98,-2.31 3.96,-4.62 6,-7 z"
     fill="#b9a8a3"
     id="path182" />
  <path
     d="m 672,904 c 1.32,0.33 2.64,0.66 4,1 0,3 0,3 -2,6 -2,-3 -2,-3 -2,-7 z"
     fill="#583634"
     id="path184" />
  <path
     d="m 528,812 c 3.00617,3.00617 2.59585,5.82382 3,10 -0.99,0 -1.98,0 -3,0 -1,-3 -1,-3 0,-6 0,-1.32 0,-2.64 0,-4 z"
     fill="#6f514a"
     id="path186" />
  <path
     d="m 784,530 c 1,3 1,3 0.22266,4.82422 -1.07422,1.72526 -2.14844,3.45052 -3.22266,5.17578 -0.66,0 -1.32,0 -2,0 0.3125,-1.9375 0.3125,-1.9375 1,-4 0.99,-0.33 1.98,-0.66 3,-1 0.33,-1.65 0.66,-3.3 1,-5 z"
     fill="#e8e1d7"
     id="path188" />
  <path
     d="m 834,86 c 1.9375,0.6875 1.9375,0.6875 4,2 0.75,2.625 0.75,2.625 1,5 -2.468,-1.151734 -4.04784,-2.047836 -6,-4 0.33,-0.99 0.66,-1.98 1,-3 z"
     fill="#8c605e"
     id="path190" />
  <path
     d="m 815,50 c -1.28913,0.671549 -2.5814,1.337089 -3.875,2 -0.7193,0.37125 -1.43859,0.7425 -2.17969,1.125 C 807,54 807,54 805,54 c 0,-0.66 0,-1.32 0,-2 5.89286,-3.348214 5.89286,-3.348214 10,-2 z"
     fill="#ece2d5"
     id="path192" />
  <path
     d="m 496,864 c 1.65,0 3.3,0 5,0 -1.98,2.31 -3.96,4.62 -6,7 -0.33,-0.66 -0.66,-1.32 -1,-2 0.9375,-2.625 0.9375,-2.625 2,-5 z"
     fill="#b4a59d"
     id="path194" />
  <path
     d="m 745.25,383.3125 c 0.9075,0.22687 1.815,0.45375 2.75,0.6875 -3.64418,2.42945 -5.71241,2.1618 -10,2 2.63719,-2.53576 3.50905,-3.04721 7.25,-2.6875 z"
     fill="#d3ac66"
     id="path196" />
  <path
     d="m 772,538 c 0.66,0.99 1.32,1.98 2,3 -1.32,2.31 -2.64,4.62 -4,7 -1.39196,-4.17588 0.17677,-6.13475 2,-10 z"
     fill="#cfbfb3"
     id="path198" />
  <path
     d="m 614,449 c 0.33,0 0.66,0 1,0 0,2.31 0,4.62 0,7 -1.32,-0.33 -2.64,-0.66 -4,-1 1.875,-4.875 1.875,-4.875 3,-6 z"
     fill="#bdada6"
     id="path200" />
  <path
     d="m 777,351 c 0.33,1.32 0.66,2.64 1,4 -1.875,1.0625 -1.875,1.0625 -4,2 -0.66,-0.33 -1.32,-0.66 -2,-1 0,-2 0,-2 1.375,-3.625 C 775,351 775,351 777,351 Z"
     fill="#ebe1d5"
     id="path202" />
  <path
     d="m 333,71 c 0.66,0 1.32,0 2,0 0,0.66 0,1.32 0,2 0.94875,-0.04125 1.8975,-0.0825 2.875,-0.125 C 341,73 341,73 343,75 c -3.3,-0.33 -6.6,-0.66 -10,-1 0,-0.99 0,-1.98 0,-3 z"
     fill="#ebe2d5"
     id="path204" />
  <path
     d="m 699,521 c -1.375,2 -1.375,2 -3,4 -0.66,0 -1.32,0 -2,0 0,-0.66 0,-1.32 0,-2 -0.66,-0.33 -1.32,-0.66 -2,-1 3.625,-2.125 3.625,-2.125 7,-1 z"
     fill="#6e4e47"
     id="path206" />
  <path
     d="m 731,448 c 1.32,0 2.64,0 4,0 0,0.66 0,1.32 0,2 1.32,0.66 2.64,1.32 4,2 -2.64,0 -5.28,0 -8,0 0,-1.32 0,-2.64 0,-4 z"
     fill="#63403a"
     id="path208" />
</svg>
