<?xml version="1.0" standalone="no"?>
<!DOCTYPE svg PUBLIC "-//W3C//DTD SVG 20010904//EN"
 "http://www.w3.org/TR/2001/REC-SVG-20010904/DTD/svg10.dtd">
<svg version="1.0" xmlns="http://www.w3.org/2000/svg"
 width="1024.000000pt" height="1024.000000pt" viewBox="0 0 1024.000000 1024.000000"
 preserveAspectRatio="xMidYMid meet">

<g transform="translate(0.000000,1024.000000) scale(0.100000,-0.100000)"
fill="#000000" stroke="none">
<path d="M2719 9236 c-62 -17 -106 -44 -143 -90 l-31 -38 1 -137 c1 -162 27
-291 106 -520 96 -282 242 -540 442 -786 267 -326 471 -478 932 -694 l92 -42
-48 -92 c-44 -83 -77 -170 -185 -488 -39 -113 -59 -208 -80 -379 -8 -69 -24
-158 -35 -199 -26 -96 -25 -107 5 -136 26 -23 26 -24 15 -108 -18 -134 9 -239
64 -253 20 -5 27 -16 36 -57 14 -59 43 -112 66 -121 9 -3 28 -6 44 -6 25 0 40
-15 40 -40 0 -4 -30 -22 -67 -40 -122 -56 -405 -213 -434 -241 -19 -17 -29
-37 -29 -56 -1 -26 -10 -32 -138 -95 -200 -97 -372 -218 -372 -261 0 -17 -27
-44 -105 -106 -187 -148 -252 -224 -242 -280 4 -21 -6 -37 -58 -93 -65 -69
-90 -120 -79 -164 4 -16 -4 -36 -30 -70 -79 -103 -192 -373 -236 -566 l-22
-97 -40 21 c-53 28 -104 20 -139 -22 l-26 -30 -39 16 c-151 65 -364 -52 -366
-201 -1 -41 -3 -43 -40 -54 -91 -28 -158 -125 -158 -229 0 -68 15 -114 54
-165 l25 -33 -29 -58 c-38 -75 -41 -157 -8 -225 46 -96 161 -181 245 -181 17
0 23 -6 23 -20 0 -32 27 -77 62 -103 51 -38 102 -50 189 -45 63 4 91 11 140
36 59 31 61 31 87 14 42 -28 199 -23 277 9 l60 24 65 -39 c102 -62 170 -86
244 -86 103 0 126 -7 126 -41 0 -54 22 -64 191 -83 85 -10 322 -40 526 -67
464 -61 595 -72 752 -64 144 8 185 19 263 69 70 45 81 63 76 133 l-3 55 85 -7
c47 -4 178 -8 292 -10 l207 -3 58 -57 c106 -104 214 -141 383 -132 148 8 225
34 281 94 l43 47 95 -3 c162 -4 266 31 302 101 25 49 28 112 7 153 -21 40 -94
111 -129 126 l-29 11 0 147 c0 194 12 321 57 593 34 209 39 227 60 237 33 15
94 114 133 214 32 83 34 86 61 80 78 -15 139 103 139 270 0 68 2 77 19 77 35
0 68 38 81 91 21 86 -6 326 -51 472 l-22 68 21 20 c53 48 36 117 -94 380 -76
155 -83 175 -68 184 53 32 186 136 231 182 37 38 60 53 79 53 32 0 71 39 105
106 19 37 32 50 57 56 59 16 131 170 132 281 0 50 2 57 20 57 53 0 79 134 45
230 -13 37 -13 44 0 63 31 44 19 99 -49 230 -42 82 -83 183 -124 307 -122 373
-268 646 -440 822 -25 26 -43 50 -40 54 9 9 79 23 114 24 28 0 40 -12 115
-107 261 -337 569 -571 844 -642 216 -56 484 -53 602 8 87 44 136 145 113 232
-75 279 -574 865 -945 1111 -286 190 -716 316 -914 268 -39 -9 -56 -9 -64 -1
-32 32 -123 0 -243 -85 -76 -54 -313 -258 -364 -314 l-36 -38 -89 9 c-50 5
-107 7 -127 3 -34 -5 -39 -3 -49 20 -18 38 -75 51 -164 38 -111 -17 -300 -76
-444 -137 -73 -31 -133 -55 -135 -54 -1 2 -15 27 -31 54 -52 93 -262 399 -345
505 -161 204 -384 415 -667 627 -160 121 -241 174 -422 278 -361 206 -593 277
-762 231z m316 -90 c174 -58 518 -245 720 -389 172 -124 436 -340 545 -448
199 -197 425 -498 621 -829 56 -95 75 -120 77 -102 2 12 -2 38 -8 57 -6 19 -9
39 -6 44 11 17 247 111 370 147 75 22 152 37 201 40 l80 5 -28 -26 c-34 -31
-30 -60 7 -51 73 18 165 24 245 15 197 -22 359 -59 398 -91 18 -14 0 -28 -38
-28 -14 0 -34 -6 -45 -14 -18 -14 -18 -15 11 -26 16 -6 41 -9 55 -6 29 5 145
-39 240 -91 70 -40 173 -130 164 -144 -3 -5 31 -49 76 -97 171 -182 313 -446
430 -800 46 -141 87 -244 129 -324 71 -136 74 -153 31 -144 -38 7 -39 -8 -5
-78 30 -61 44 -168 25 -191 -11 -13 -15 -13 -33 0 -35 24 -44 4 -39 -82 4 -84
-17 -172 -60 -241 l-21 -34 -23 29 -24 28 -7 -25 c-11 -40 -83 -180 -93 -180
-5 0 -10 10 -12 22 -5 34 -22 31 -43 -8 -43 -79 -277 -271 -316 -259 -11 4
-48 -11 -96 -38 -89 -51 -119 -62 -127 -48 -10 15 -36 1 -36 -19 0 -42 76 -40
159 5 62 33 81 36 81 12 0 -6 43 -100 96 -209 53 -109 98 -216 101 -238 l6
-40 -42 0 c-37 0 -41 -3 -41 -24 0 -13 7 -29 15 -36 21 -18 60 -149 79 -266
16 -101 21 -258 10 -288 -10 -26 -39 -18 -75 22 -32 35 -34 36 -37 14 -2 -13
1 -37 7 -54 14 -40 14 -158 0 -233 -21 -114 -58 -148 -80 -75 -7 22 -18 40
-24 40 -7 0 -24 -37 -38 -82 -27 -87 -102 -246 -135 -287 -23 -29 -52 -23 -52
11 0 29 -15 52 -28 44 -5 -3 -15 -27 -21 -52 -13 -51 -83 -165 -125 -203 -29
-27 -42 -22 -48 19 -6 47 -32 32 -86 -53 -29 -46 -87 -119 -128 -162 -64 -67
-76 -76 -90 -64 -13 11 -21 6 -54 -32 -21 -24 -40 -42 -43 -39 -7 7 -24 154
-42 365 -16 190 -23 233 -38 242 -15 9 -2 -405 18 -557 19 -148 64 -360 111
-522 44 -151 51 -165 87 -178 52 -18 98 -61 123 -114 25 -54 29 -82 15 -105
-7 -11 -13 -6 -26 20 -21 42 -74 99 -92 99 -18 0 -16 -7 12 -44 27 -35 55 -97
55 -120 0 -19 -46 -43 -97 -52 -39 -6 -39 -6 -52 35 -13 45 -79 121 -104 121
-21 0 -22 -14 -2 -30 21 -18 55 -74 65 -111 l9 -31 -107 3 c-92 4 -115 8 -164
32 -148 73 -346 367 -544 808 -52 118 -101 220 -109 228 -16 16 -33 7 -45 -25
-5 -13 -14 -24 -19 -24 -14 0 -36 44 -51 99 -14 53 -30 40 -30 -24 1 -90 56
-154 110 -125 12 6 23 10 25 8 2 -2 31 -70 66 -153 35 -82 89 -200 120 -262
l58 -112 -69 -46 c-68 -45 -229 -125 -321 -159 l-46 -18 -54 41 c-83 63 -229
110 -343 111 l-48 0 32 37 c98 111 150 243 150 377 0 79 2 86 20 86 34 0 51
41 51 125 0 89 -15 170 -43 237 l-20 46 21 21 c13 13 21 34 21 54 0 57 -83
212 -167 311 -32 38 -32 40 -13 53 46 32 6 120 -94 210 -96 85 -238 143 -353
143 -72 0 -75 -16 -6 -30 186 -37 349 -135 409 -246 24 -44 11 -57 -39 -42
-20 6 -40 8 -44 5 -3 -4 23 -37 58 -74 36 -38 80 -89 97 -115 44 -64 102 -187
102 -215 0 -26 -21 -30 -40 -8 -15 18 -40 20 -40 2 0 -7 16 -42 35 -78 19 -36
42 -94 51 -128 17 -69 24 -204 11 -218 -5 -4 -22 7 -38 26 -16 19 -31 32 -34
29 -3 -3 -1 -41 4 -84 18 -145 -10 -268 -89 -389 -53 -81 -114 -137 -171 -158
-24 -9 -69 -26 -100 -37 -30 -11 -64 -27 -75 -35 -18 -14 -17 -14 13 -15 17 0
71 14 120 32 75 26 100 31 168 29 254 -7 455 -121 455 -259 0 -41 -16 -49 -28
-14 -14 41 -69 100 -114 123 -21 11 -38 17 -38 13 0 -3 18 -27 41 -52 43 -49
79 -111 79 -135 0 -14 -29 -29 -77 -41 -13 -3 -32 -9 -43 -12 -14 -4 -20 -1
-20 11 0 60 -99 155 -161 155 -46 0 -42 -18 9 -44 55 -28 102 -77 102 -107 0
-18 -8 -19 -115 -19 -136 0 -307 17 -650 64 -137 20 -340 45 -450 57 -110 12
-206 23 -214 25 -11 4 -9 10 9 29 46 49 18 61 -155 71 -103 6 -115 9 -189 47
-113 58 -185 115 -240 188 -84 111 -142 246 -192 442 -14 56 -28 104 -31 107
-3 3 -3 -42 0 -100 9 -187 97 -399 217 -529 17 -18 30 -35 28 -36 -18 -16
-114 -35 -178 -35 l-79 0 2 27 c2 24 -2 29 -25 31 -18 2 -40 -6 -61 -22 -123
-94 -305 -95 -357 -3 -12 21 -12 32 -4 56 6 16 9 33 5 39 -3 5 -33 9 -67 8
-51 -1 -69 4 -110 29 -59 37 -110 109 -119 169 -8 54 21 127 68 170 l31 29
-38 30 c-45 36 -86 116 -86 167 1 90 73 169 161 178 55 5 70 22 51 53 -50 79
65 209 184 209 55 0 112 -20 146 -52 54 -50 80 -36 63 34 -5 21 -2 30 18 43
23 15 28 15 54 1 55 -28 57 -35 58 -210 1 -158 8 -221 26 -210 5 3 9 23 9 45
0 103 43 411 75 535 55 213 151 425 247 543 28 36 48 66 42 68 -5 2 -16 8 -24
13 -24 15 13 71 103 156 76 71 87 94 46 94 -10 0 -19 6 -19 13 0 23 182 189
298 272 43 30 53 43 49 61 -3 18 10 33 77 82 93 68 244 153 361 202 104 44
114 53 91 79 -23 26 -17 33 57 77 86 50 402 214 413 214 5 0 16 -13 26 -29 22
-40 72 -65 116 -57 32 5 39 1 68 -33 72 -83 216 -129 263 -82 19 19 20 18 52
-15 67 -69 177 -103 242 -73 19 9 31 7 63 -10 66 -36 154 -22 154 23 0 22 -12
26 -34 11 -30 -22 -47 -19 -122 20 -78 41 -84 42 -84 15 0 -16 -7 -20 -35 -20
-48 0 -102 29 -176 95 -34 30 -67 55 -75 55 -7 0 -14 -14 -16 -32 -4 -45 -30
-47 -109 -6 -50 26 -75 48 -113 98 -57 76 -74 84 -82 41 -16 -77 -89 3 -118
130 -19 79 -31 92 -55 60 -38 -49 -70 -3 -90 129 -14 90 -25 105 -51 70 -10
-14 -22 -21 -27 -17 -16 17 -15 150 2 243 14 73 16 97 6 107 -9 9 -16 9 -31
-1 -24 -15 -24 -18 0 76 10 42 26 133 35 202 9 69 25 166 37 215 29 126 161
501 215 613 52 107 36 102 176 53 49 -17 93 -31 99 -31 32 0 -35 42 -172 108
-448 214 -553 272 -710 392 -158 120 -314 286 -478 507 -212 287 -382 694
-428 1022 -28 196 -6 271 91 307 64 23 230 14 330 -20z m3511 -1121 c-4 -14
-5 -25 -4 -25 2 0 28 10 58 22 46 18 75 22 175 23 101 0 136 -4 225 -28 132
-36 251 -82 381 -147 195 -98 295 -178 555 -441 201 -205 272 -290 383 -459
144 -220 173 -303 125 -366 -53 -71 -128 -94 -315 -94 -267 0 -456 62 -687
227 -132 94 -260 220 -423 415 -186 223 -305 355 -332 370 -17 8 -19 8 -14 -5
4 -11 -4 -19 -28 -27 -18 -6 -61 -29 -95 -51 -60 -39 -61 -39 -93 -22 -18 9
-54 24 -82 34 -43 15 -50 21 -47 41 7 57 -69 102 -232 137 l-79 17 124 108
c158 138 269 225 339 265 67 37 74 38 66 6z m224 -650 l61 -80 -28 -3 c-15 -2
-50 -10 -76 -18 l-48 -16 -42 39 c-23 21 -55 48 -71 59 l-30 21 25 14 c31 18
143 68 145 66 1 -1 30 -38 64 -82z m-384 -4628 c-14 -72 -33 -176 -41 -230
-19 -128 -39 -469 -31 -529 4 -28 2 -49 -4 -53 -19 -12 -10 -23 43 -54 87 -51
137 -107 137 -155 0 -27 0 -26 -38 14 -34 34 -62 51 -62 35 0 -2 14 -26 30
-52 48 -75 40 -91 -54 -108 -34 -7 -36 -6 -36 20 0 41 -29 94 -61 110 -36 19
-49 2 -21 -28 28 -31 42 -62 42 -91 0 -25 -3 -26 -52 -26 -82 0 -95 7 -102 48
-3 21 -20 61 -38 91 -27 44 -45 61 -93 85 -33 17 -62 32 -63 33 -19 9 -136
537 -121 542 6 2 21 14 32 27 11 13 29 24 39 24 11 0 31 6 46 14 35 18 173
162 206 215 24 38 28 40 51 29 21 -9 32 -8 60 5 36 17 107 100 134 155 25 54
24 21 -3 -121z m-1124 -998 l57 -89 -148 0 c-81 0 -189 3 -239 6 l-91 7 93 42
c107 48 203 105 231 135 18 20 21 20 30 5 5 -9 36 -57 67 -106z"/>
<path d="M2934 8899 c-51 -12 -101 -55 -110 -94 l-6 -30 21 32 c49 77 160 90
293 34 82 -34 253 -133 380 -219 247 -167 549 -484 755 -792 45 -68 240 -397
323 -545 l34 -59 -33 23 c-43 31 -59 17 -43 -37 16 -53 15 -61 -5 -56 -31 8
-56 -19 -55 -60 1 -20 6 -45 11 -55 8 -14 -26 -3 -137 46 -427 186 -732 377
-967 606 -57 56 -101 98 -98 92 52 -86 204 -244 328 -341 167 -132 535 -332
768 -418 142 -52 151 -49 140 44 -3 27 -4 50 -1 50 2 0 19 -11 38 -25 47 -34
64 -20 44 37 -18 52 -18 52 8 34 32 -23 48 -20 48 10 0 31 -181 386 -286 561
-295 492 -675 861 -1099 1067 -187 92 -269 114 -351 95z"/>
<path d="M6696 6544 c-22 -8 -54 -25 -72 -39 -41 -31 -90 -130 -105 -210 -20
-109 10 -335 56 -424 20 -39 42 -40 225 -6 74 14 136 25 137 25 12 1 54 57 65
87 17 50 17 261 -1 332 -12 48 -12 55 2 63 58 32 60 71 5 76 l-36 3 24 26 c27
29 32 73 9 73 -8 0 -30 -7 -49 -17 -33 -15 -37 -15 -85 5 -57 25 -118 27 -175
6z m97 -76 c141 -42 240 -336 171 -508 -14 -34 -20 -38 -55 -42 -21 -2 -39 -2
-39 -1 0 1 10 22 23 45 19 37 22 58 22 153 0 100 -3 116 -29 173 -48 103 -138
164 -218 147 -39 -9 -29 11 16 31 39 17 58 17 109 2z m-112 -119 c48 -25 44
-105 -7 -127 -72 -34 -127 77 -61 123 25 18 41 19 68 4z m55 -178 c-9 -14 -33
-14 -41 -1 -4 6 -1 18 6 26 11 13 14 13 27 0 8 -8 11 -19 8 -25z m109 -115
c19 -29 10 -54 -21 -62 -30 -8 -54 11 -54 40 0 47 49 62 75 22z"/>
<path d="M5130 6457 c-36 -13 -75 -29 -87 -35 -27 -15 -100 -15 -142 -1 -64
23 -62 -29 3 -81 l31 -25 -60 -5 c-52 -4 -60 -8 -60 -25 0 -13 13 -27 41 -40
l41 -20 -5 -111 c-5 -115 5 -181 39 -260 21 -50 75 -114 97 -114 13 0 12 4 -5
23 -78 84 -104 282 -57 421 22 64 99 145 171 180 71 35 170 45 240 25 l48 -14
-80 -5 c-99 -7 -160 -35 -221 -103 -66 -74 -87 -140 -82 -259 4 -84 9 -106 37
-163 18 -37 39 -69 47 -72 27 -10 13 -23 -25 -23 -48 0 -63 -16 -20 -22 17 -3
146 -3 287 0 289 5 294 6 313 74 15 56 5 264 -16 342 -39 141 -121 248 -232
302 -82 40 -210 45 -303 11z m153 -199 c32 -16 46 -39 47 -71 0 -39 -15 -64
-50 -82 -58 -30 -110 6 -110 76 0 29 7 43 31 63 34 29 50 32 82 14z m67 -204
c11 -12 10 -18 -3 -32 -16 -15 -18 -15 -34 0 -13 14 -14 20 -3 32 7 9 16 16
20 16 4 0 13 -7 20 -16z m190 -124 c15 -28 3 -59 -25 -66 -44 -11 -74 29 -49
64 19 28 60 29 74 2z"/>
<path d="M6197 5790 c-43 -11 -93 -35 -102 -50 -17 -28 50 -95 138 -136 35
-17 37 -20 37 -63 0 -87 -70 -151 -164 -151 -60 0 -96 15 -128 53 -22 25 -30
29 -37 18 -30 -46 67 -121 157 -121 57 0 116 24 158 65 43 41 44 41 61 22 65
-71 199 -56 227 26 15 42 0 43 -44 3 -48 -43 -90 -47 -141 -13 -31 21 -35 28
-40 82 l-5 60 41 37 c23 20 52 57 65 81 21 39 22 47 10 62 -7 9 -20 13 -28 10
-9 -3 -19 0 -23 7 -10 15 -130 21 -182 8z m200 -34 c13 -13 -79 -126 -103
-126 -19 0 -103 43 -134 68 -33 27 -21 39 61 57 57 13 163 14 176 1z"/>
</g>
</svg>
